%TF.GenerationSoftware,KiCad,Pcbnew,(6.0.4)*%
%TF.CreationDate,2023-04-26T13:38:40-05:00*%
%TF.ProjectId,Modulo de Practicas uPy,4d6f6475-6c6f-4206-9465-205072616374,rev?*%
%TF.SameCoordinates,Original*%
%TF.FileFunction,AssemblyDrawing,Top*%
%FSLAX46Y46*%
G04 Gerber Fmt 4.6, Leading zero omitted, Abs format (unit mm)*
G04 Created by KiCad (PCBNEW (6.0.4)) date 2023-04-26 13:38:40*
%MOMM*%
%LPD*%
G01*
G04 APERTURE LIST*
%ADD10C,0.150000*%
%ADD11C,0.080000*%
%ADD12C,0.100000*%
%ADD13C,0.280000*%
%ADD14C,0.127000*%
%ADD15C,0.120000*%
%ADD16C,0.200000*%
G04 APERTURE END LIST*
D10*
%TO.C,REF\u002A\u002A*%
X172650518Y-110942380D02*
X172317185Y-110466190D01*
X172079090Y-110942380D02*
X172079090Y-109942380D01*
X172460042Y-109942380D01*
X172555280Y-109990000D01*
X172602899Y-110037619D01*
X172650518Y-110132857D01*
X172650518Y-110275714D01*
X172602899Y-110370952D01*
X172555280Y-110418571D01*
X172460042Y-110466190D01*
X172079090Y-110466190D01*
X173079090Y-110418571D02*
X173412423Y-110418571D01*
X173555280Y-110942380D02*
X173079090Y-110942380D01*
X173079090Y-109942380D01*
X173555280Y-109942380D01*
X174317185Y-110418571D02*
X173983852Y-110418571D01*
X173983852Y-110942380D02*
X173983852Y-109942380D01*
X174460042Y-109942380D01*
X174983852Y-109942380D02*
X174983852Y-110180476D01*
X174745756Y-110085238D02*
X174983852Y-110180476D01*
X175221947Y-110085238D01*
X174840994Y-110370952D02*
X174983852Y-110180476D01*
X175126709Y-110370952D01*
X175745756Y-109942380D02*
X175745756Y-110180476D01*
X175507661Y-110085238D02*
X175745756Y-110180476D01*
X175983852Y-110085238D01*
X175602899Y-110370952D02*
X175745756Y-110180476D01*
X175888613Y-110370952D01*
%TO.C,M1*%
X127162380Y-52521904D02*
X126162380Y-52521904D01*
X126876666Y-52188571D01*
X126162380Y-51855238D01*
X127162380Y-51855238D01*
X127162380Y-51236190D02*
X127114761Y-51331428D01*
X127067142Y-51379047D01*
X126971904Y-51426666D01*
X126686190Y-51426666D01*
X126590952Y-51379047D01*
X126543333Y-51331428D01*
X126495714Y-51236190D01*
X126495714Y-51093333D01*
X126543333Y-50998095D01*
X126590952Y-50950476D01*
X126686190Y-50902857D01*
X126971904Y-50902857D01*
X127067142Y-50950476D01*
X127114761Y-50998095D01*
X127162380Y-51093333D01*
X127162380Y-51236190D01*
X126495714Y-50617142D02*
X126495714Y-50236190D01*
X126162380Y-50474285D02*
X127019523Y-50474285D01*
X127114761Y-50426666D01*
X127162380Y-50331428D01*
X127162380Y-50236190D01*
X127162380Y-49760000D02*
X127114761Y-49855238D01*
X127067142Y-49902857D01*
X126971904Y-49950476D01*
X126686190Y-49950476D01*
X126590952Y-49902857D01*
X126543333Y-49855238D01*
X126495714Y-49760000D01*
X126495714Y-49617142D01*
X126543333Y-49521904D01*
X126590952Y-49474285D01*
X126686190Y-49426666D01*
X126971904Y-49426666D01*
X127067142Y-49474285D01*
X127114761Y-49521904D01*
X127162380Y-49617142D01*
X127162380Y-49760000D01*
X127162380Y-48998095D02*
X126495714Y-48998095D01*
X126686190Y-48998095D02*
X126590952Y-48950476D01*
X126543333Y-48902857D01*
X126495714Y-48807619D01*
X126495714Y-48712380D01*
X127257619Y-48617142D02*
X127257619Y-47855238D01*
X127114761Y-47664761D02*
X127162380Y-47521904D01*
X127162380Y-47283809D01*
X127114761Y-47188571D01*
X127067142Y-47140952D01*
X126971904Y-47093333D01*
X126876666Y-47093333D01*
X126781428Y-47140952D01*
X126733809Y-47188571D01*
X126686190Y-47283809D01*
X126638571Y-47474285D01*
X126590952Y-47569523D01*
X126543333Y-47617142D01*
X126448095Y-47664761D01*
X126352857Y-47664761D01*
X126257619Y-47617142D01*
X126210000Y-47569523D01*
X126162380Y-47474285D01*
X126162380Y-47236190D01*
X126210000Y-47093333D01*
X127114761Y-46283809D02*
X127162380Y-46379047D01*
X127162380Y-46569523D01*
X127114761Y-46664761D01*
X127019523Y-46712380D01*
X126638571Y-46712380D01*
X126543333Y-46664761D01*
X126495714Y-46569523D01*
X126495714Y-46379047D01*
X126543333Y-46283809D01*
X126638571Y-46236190D01*
X126733809Y-46236190D01*
X126829047Y-46712380D01*
X127162380Y-45807619D02*
X126495714Y-45807619D01*
X126686190Y-45807619D02*
X126590952Y-45760000D01*
X126543333Y-45712380D01*
X126495714Y-45617142D01*
X126495714Y-45521904D01*
X126495714Y-45283809D02*
X127162380Y-45045714D01*
X126495714Y-44807619D01*
X127162380Y-44283809D02*
X127114761Y-44379047D01*
X127067142Y-44426666D01*
X126971904Y-44474285D01*
X126686190Y-44474285D01*
X126590952Y-44426666D01*
X126543333Y-44379047D01*
X126495714Y-44283809D01*
X126495714Y-44140952D01*
X126543333Y-44045714D01*
X126590952Y-43998095D01*
X126686190Y-43950476D01*
X126971904Y-43950476D01*
X127067142Y-43998095D01*
X127114761Y-44045714D01*
X127162380Y-44140952D01*
X127162380Y-44283809D01*
D11*
X124039047Y-48495238D02*
X124039047Y-47975238D01*
X124212380Y-48346666D01*
X124385714Y-47975238D01*
X124385714Y-48495238D01*
X124905714Y-48495238D02*
X124608571Y-48495238D01*
X124757142Y-48495238D02*
X124757142Y-47975238D01*
X124707619Y-48049523D01*
X124658095Y-48099047D01*
X124608571Y-48123809D01*
D10*
%TO.C,REF\u002A\u002A*%
X90106666Y-110942380D02*
X89773333Y-110466190D01*
X89535238Y-110942380D02*
X89535238Y-109942380D01*
X89916190Y-109942380D01*
X90011428Y-109990000D01*
X90059047Y-110037619D01*
X90106666Y-110132857D01*
X90106666Y-110275714D01*
X90059047Y-110370952D01*
X90011428Y-110418571D01*
X89916190Y-110466190D01*
X89535238Y-110466190D01*
X90535238Y-110418571D02*
X90868571Y-110418571D01*
X91011428Y-110942380D02*
X90535238Y-110942380D01*
X90535238Y-109942380D01*
X91011428Y-109942380D01*
X91773333Y-110418571D02*
X91440000Y-110418571D01*
X91440000Y-110942380D02*
X91440000Y-109942380D01*
X91916190Y-109942380D01*
X92440000Y-109942380D02*
X92440000Y-110180476D01*
X92201904Y-110085238D02*
X92440000Y-110180476D01*
X92678095Y-110085238D01*
X92297142Y-110370952D02*
X92440000Y-110180476D01*
X92582857Y-110370952D01*
X93201904Y-109942380D02*
X93201904Y-110180476D01*
X92963809Y-110085238D02*
X93201904Y-110180476D01*
X93440000Y-110085238D01*
X93059047Y-110370952D02*
X93201904Y-110180476D01*
X93344761Y-110370952D01*
%TO.C,D2*%
X97695000Y-73222380D02*
X97218809Y-73222380D01*
X97218809Y-72222380D01*
X98504523Y-73222380D02*
X98028333Y-73222380D01*
X98028333Y-72222380D01*
X99266428Y-72555714D02*
X99266428Y-73222380D01*
X99028333Y-72174761D02*
X98790238Y-72889047D01*
X99409285Y-72889047D01*
X100314047Y-73222380D02*
X99742619Y-73222380D01*
X100028333Y-73222380D02*
X100028333Y-72222380D01*
X99933095Y-72365238D01*
X99837857Y-72460476D01*
X99742619Y-72508095D01*
X101171190Y-72555714D02*
X101171190Y-73222380D01*
X100933095Y-72174761D02*
X100695000Y-72889047D01*
X101314047Y-72889047D01*
X101837857Y-72650952D02*
X101742619Y-72603333D01*
X101695000Y-72555714D01*
X101647380Y-72460476D01*
X101647380Y-72412857D01*
X101695000Y-72317619D01*
X101742619Y-72270000D01*
X101837857Y-72222380D01*
X102028333Y-72222380D01*
X102123571Y-72270000D01*
X102171190Y-72317619D01*
X102218809Y-72412857D01*
X102218809Y-72460476D01*
X102171190Y-72555714D01*
X102123571Y-72603333D01*
X102028333Y-72650952D01*
X101837857Y-72650952D01*
X101742619Y-72698571D01*
X101695000Y-72746190D01*
X101647380Y-72841428D01*
X101647380Y-73031904D01*
X101695000Y-73127142D01*
X101742619Y-73174761D01*
X101837857Y-73222380D01*
X102028333Y-73222380D01*
X102123571Y-73174761D01*
X102171190Y-73127142D01*
X102218809Y-73031904D01*
X102218809Y-72841428D01*
X102171190Y-72746190D01*
X102123571Y-72698571D01*
X102028333Y-72650952D01*
D11*
X99325952Y-71346190D02*
X99325952Y-70846190D01*
X99445000Y-70846190D01*
X99516428Y-70870000D01*
X99564047Y-70917619D01*
X99587857Y-70965238D01*
X99611666Y-71060476D01*
X99611666Y-71131904D01*
X99587857Y-71227142D01*
X99564047Y-71274761D01*
X99516428Y-71322380D01*
X99445000Y-71346190D01*
X99325952Y-71346190D01*
X99802142Y-70893809D02*
X99825952Y-70870000D01*
X99873571Y-70846190D01*
X99992619Y-70846190D01*
X100040238Y-70870000D01*
X100064047Y-70893809D01*
X100087857Y-70941428D01*
X100087857Y-70989047D01*
X100064047Y-71060476D01*
X99778333Y-71346190D01*
X100087857Y-71346190D01*
D10*
%TO.C,REF\u002A\u002A*%
X172650518Y-43632380D02*
X172317185Y-43156190D01*
X172079090Y-43632380D02*
X172079090Y-42632380D01*
X172460042Y-42632380D01*
X172555280Y-42680000D01*
X172602899Y-42727619D01*
X172650518Y-42822857D01*
X172650518Y-42965714D01*
X172602899Y-43060952D01*
X172555280Y-43108571D01*
X172460042Y-43156190D01*
X172079090Y-43156190D01*
X173079090Y-43108571D02*
X173412423Y-43108571D01*
X173555280Y-43632380D02*
X173079090Y-43632380D01*
X173079090Y-42632380D01*
X173555280Y-42632380D01*
X174317185Y-43108571D02*
X173983852Y-43108571D01*
X173983852Y-43632380D02*
X173983852Y-42632380D01*
X174460042Y-42632380D01*
X174983852Y-42632380D02*
X174983852Y-42870476D01*
X174745756Y-42775238D02*
X174983852Y-42870476D01*
X175221947Y-42775238D01*
X174840994Y-43060952D02*
X174983852Y-42870476D01*
X175126709Y-43060952D01*
X175745756Y-42632380D02*
X175745756Y-42870476D01*
X175507661Y-42775238D02*
X175745756Y-42870476D01*
X175983852Y-42775238D01*
X175602899Y-43060952D02*
X175745756Y-42870476D01*
X175888613Y-43060952D01*
%TO.C,J1*%
X103806666Y-105497380D02*
X103806666Y-106211666D01*
X103759047Y-106354523D01*
X103663809Y-106449761D01*
X103520952Y-106497380D01*
X103425714Y-106497380D01*
X104806666Y-106497380D02*
X104235238Y-106497380D01*
X104520952Y-106497380D02*
X104520952Y-105497380D01*
X104425714Y-105640238D01*
X104330476Y-105735476D01*
X104235238Y-105783095D01*
%TO.C,REF\u002A\u002A*%
X90106666Y-43632380D02*
X89773333Y-43156190D01*
X89535238Y-43632380D02*
X89535238Y-42632380D01*
X89916190Y-42632380D01*
X90011428Y-42680000D01*
X90059047Y-42727619D01*
X90106666Y-42822857D01*
X90106666Y-42965714D01*
X90059047Y-43060952D01*
X90011428Y-43108571D01*
X89916190Y-43156190D01*
X89535238Y-43156190D01*
X90535238Y-43108571D02*
X90868571Y-43108571D01*
X91011428Y-43632380D02*
X90535238Y-43632380D01*
X90535238Y-42632380D01*
X91011428Y-42632380D01*
X91773333Y-43108571D02*
X91440000Y-43108571D01*
X91440000Y-43632380D02*
X91440000Y-42632380D01*
X91916190Y-42632380D01*
X92440000Y-42632380D02*
X92440000Y-42870476D01*
X92201904Y-42775238D02*
X92440000Y-42870476D01*
X92678095Y-42775238D01*
X92297142Y-43060952D02*
X92440000Y-42870476D01*
X92582857Y-43060952D01*
X93201904Y-42632380D02*
X93201904Y-42870476D01*
X92963809Y-42775238D02*
X93201904Y-42870476D01*
X93440000Y-42775238D01*
X93059047Y-43060952D02*
X93201904Y-42870476D01*
X93344761Y-43060952D01*
D12*
%TO.C,J8*%
X125730000Y-62230000D02*
X123190000Y-62230000D01*
X125730000Y-57150000D02*
X125730000Y-62230000D01*
X123190000Y-57785000D02*
X123825000Y-57150000D01*
X123825000Y-57150000D02*
X125730000Y-57150000D01*
X123190000Y-62230000D02*
X123190000Y-57785000D01*
%TO.C,J2*%
X96256000Y-46612000D02*
X96256000Y-56512000D01*
X95056000Y-56562000D02*
X102556000Y-56562000D01*
X102556000Y-46562000D02*
X95056000Y-46562000D01*
X95056000Y-46562000D02*
X95056000Y-56562000D01*
X102556000Y-56562000D02*
X102556000Y-46562000D01*
%TO.C,Q1*%
X131240000Y-98712400D02*
X131240000Y-102212400D01*
X131236375Y-102236025D02*
G75*
G03*
X135470000Y-100482400I1753625J1753625D01*
G01*
X135470000Y-100482400D02*
G75*
G03*
X131236375Y-98728775I-2480000J0D01*
G01*
%TO.C,U2*%
X128285000Y-96520000D02*
X128285000Y-99060000D01*
X120665000Y-96520000D02*
X128285000Y-96520000D01*
X121300000Y-99060000D02*
X120665000Y-98425000D01*
X128285000Y-99060000D02*
X121300000Y-99060000D01*
X120665000Y-98425000D02*
X120665000Y-96520000D01*
%TO.C,M1*%
X125510000Y-52860000D02*
G75*
G03*
X125510000Y-52860000I-1050000J0D01*
G01*
X125510000Y-43660000D02*
G75*
G03*
X125510000Y-43660000I-1050000J0D01*
G01*
X125510000Y-48260000D02*
G75*
G03*
X125510000Y-48260000I-1050000J0D01*
G01*
%TO.C,U3*%
X116469000Y-64531000D02*
X110119000Y-64531000D01*
X111119000Y-44211000D02*
X116469000Y-44211000D01*
X110119000Y-64531000D02*
X110119000Y-45211000D01*
X110119000Y-45211000D02*
X111119000Y-44211000D01*
X116469000Y-44211000D02*
X116469000Y-64531000D01*
%TO.C,R5*%
X146225000Y-104765000D02*
X144225000Y-104765000D01*
X146225000Y-103515000D02*
X146225000Y-104765000D01*
X144225000Y-103515000D02*
X146225000Y-103515000D01*
X144225000Y-104765000D02*
X144225000Y-103515000D01*
%TO.C,D6*%
X150352000Y-108620000D02*
X148652000Y-108620000D01*
X148352000Y-109820000D02*
X150352000Y-109820000D01*
X150352000Y-109820000D02*
X150352000Y-108620000D01*
X148652000Y-108620000D02*
X148352000Y-108920000D01*
X148352000Y-108920000D02*
X148352000Y-109820000D01*
%TO.C,Q2*%
X106030000Y-72570000D02*
X106030000Y-69670000D01*
X107330000Y-72245000D02*
X107005000Y-72570000D01*
X106030000Y-69670000D02*
X107330000Y-69670000D01*
X107005000Y-72570000D02*
X106030000Y-72570000D01*
X107330000Y-69670000D02*
X107330000Y-72245000D01*
D13*
%TO.C,U1*%
X136670000Y-51220000D02*
G75*
G03*
X136670000Y-51220000I-140000J0D01*
G01*
X136670000Y-51220000D02*
G75*
G03*
X136670000Y-51220000I-140000J0D01*
G01*
D14*
X137180000Y-43970000D02*
X165080000Y-43970000D01*
X165080000Y-98370000D02*
X137180000Y-98370000D01*
X165080000Y-43970000D02*
X165080000Y-98370000D01*
X137180000Y-98370000D02*
X137180000Y-43970000D01*
D12*
%TO.C,D2*%
X98995000Y-70520000D02*
X98695000Y-70820000D01*
X98695000Y-71720000D02*
X100695000Y-71720000D01*
X100695000Y-70520000D02*
X98995000Y-70520000D01*
X100695000Y-71720000D02*
X100695000Y-70520000D01*
X98695000Y-70820000D02*
X98695000Y-71720000D01*
%TO.C,R3*%
X111490000Y-73015000D02*
X109490000Y-73015000D01*
X109490000Y-73015000D02*
X109490000Y-71765000D01*
X111490000Y-71765000D02*
X111490000Y-73015000D01*
X109490000Y-71765000D02*
X111490000Y-71765000D01*
%TO.C,J7*%
X132080000Y-53350000D02*
X129540000Y-53350000D01*
X129540000Y-53350000D02*
X129540000Y-43825000D01*
X129540000Y-43825000D02*
X130175000Y-43190000D01*
X130175000Y-43190000D02*
X132080000Y-43190000D01*
X132080000Y-43190000D02*
X132080000Y-53350000D01*
%TO.C,D1*%
X131699000Y-109321600D02*
X132715000Y-109321600D01*
X128651000Y-108305600D02*
X129921000Y-108305600D01*
X126111000Y-107035600D02*
X126111000Y-109575600D01*
X126111000Y-108305600D02*
X128651000Y-107035600D01*
X128651000Y-109575600D02*
X128651000Y-108305600D01*
X124841000Y-108305600D02*
X126111000Y-108305600D01*
X132207000Y-109829600D02*
X132207000Y-108813600D01*
X122047000Y-107289600D02*
X123063000Y-107289600D01*
X128651000Y-107035600D02*
X128651000Y-109575600D01*
X126111000Y-108305600D02*
X128651000Y-109575600D01*
X131406000Y-108305600D02*
G75*
G03*
X131406000Y-108305600I-4025000J0D01*
G01*
%TO.C,R7*%
X146225000Y-109845000D02*
X144225000Y-109845000D01*
X144225000Y-109845000D02*
X144225000Y-108595000D01*
X146225000Y-108595000D02*
X146225000Y-109845000D01*
X144225000Y-108595000D02*
X146225000Y-108595000D01*
%TO.C,R6*%
X146225000Y-107305000D02*
X144225000Y-107305000D01*
X144225000Y-106055000D02*
X146225000Y-106055000D01*
X146225000Y-106055000D02*
X146225000Y-107305000D01*
X144225000Y-107305000D02*
X144225000Y-106055000D01*
%TO.C,J3*%
X95056000Y-57738000D02*
X95056000Y-67738000D01*
X95056000Y-67738000D02*
X102556000Y-67738000D01*
X96256000Y-57788000D02*
X96256000Y-67688000D01*
X102556000Y-67738000D02*
X102556000Y-57738000D01*
X102556000Y-57738000D02*
X95056000Y-57738000D01*
%TO.C,D4*%
X150352000Y-104740000D02*
X150352000Y-103540000D01*
X150352000Y-103540000D02*
X148652000Y-103540000D01*
X148352000Y-103840000D02*
X148352000Y-104740000D01*
X148652000Y-103540000D02*
X148352000Y-103840000D01*
X148352000Y-104740000D02*
X150352000Y-104740000D01*
%TO.C,D3*%
X114900000Y-107885000D02*
X114600000Y-107585000D01*
X113700000Y-107585000D02*
X113700000Y-109585000D01*
X113700000Y-109585000D02*
X114900000Y-109585000D01*
X114600000Y-107585000D02*
X113700000Y-107585000D01*
X114900000Y-109585000D02*
X114900000Y-107885000D01*
%TO.C,D5*%
X148352000Y-107280000D02*
X150352000Y-107280000D01*
X148652000Y-106080000D02*
X148352000Y-106380000D01*
X150352000Y-106080000D02*
X148652000Y-106080000D01*
X150352000Y-107280000D02*
X150352000Y-106080000D01*
X148352000Y-106380000D02*
X148352000Y-107280000D01*
D15*
%TO.C,K1*%
X96440000Y-77440000D02*
X111840000Y-77440000D01*
X111840000Y-97040000D02*
X96440000Y-97040000D01*
X96440000Y-97040000D02*
X96440000Y-77440000D01*
X111840000Y-77440000D02*
X111840000Y-97040000D01*
D14*
%TO.C,RV1*%
X119695000Y-80818000D02*
X129225000Y-80818000D01*
X129225000Y-80818000D02*
X129225000Y-90348000D01*
X129225000Y-90348000D02*
X119695000Y-90348000D01*
X119695000Y-90348000D02*
X119695000Y-80818000D01*
D16*
X119060000Y-85598000D02*
G75*
G03*
X119060000Y-85598000I-100000J0D01*
G01*
D12*
%TO.C,R4*%
X111490000Y-70475000D02*
X109490000Y-70475000D01*
X109490000Y-69225000D02*
X111490000Y-69225000D01*
X109490000Y-70475000D02*
X109490000Y-69225000D01*
X111490000Y-69225000D02*
X111490000Y-70475000D01*
%TO.C,J5*%
X118110000Y-69190000D02*
X118745000Y-68555000D01*
X118745000Y-68555000D02*
X130810000Y-68555000D01*
X118110000Y-71095000D02*
X118110000Y-69190000D01*
X130810000Y-68555000D02*
X130810000Y-71095000D01*
X130810000Y-71095000D02*
X118110000Y-71095000D01*
%TO.C,J1*%
X111690000Y-102295000D02*
X111690000Y-109795000D01*
X96590000Y-108595000D02*
X111690000Y-108595000D01*
X111690000Y-109795000D02*
X96590000Y-109795000D01*
X96590000Y-102295000D02*
X111690000Y-102295000D01*
X96590000Y-109795000D02*
X96590000Y-102295000D01*
%TO.C,R2*%
X113675000Y-105775000D02*
X113675000Y-103775000D01*
X114925000Y-103775000D02*
X114925000Y-105775000D01*
X114925000Y-105775000D02*
X113675000Y-105775000D01*
X113675000Y-103775000D02*
X114925000Y-103775000D01*
%TO.C,J6*%
X163830000Y-103505000D02*
X163830000Y-106045000D01*
X156210000Y-105410000D02*
X156210000Y-103505000D01*
X156845000Y-106045000D02*
X156210000Y-105410000D01*
X156210000Y-103505000D02*
X163830000Y-103505000D01*
X163830000Y-106045000D02*
X156845000Y-106045000D01*
%TO.C,J4*%
X118110000Y-73025000D02*
X118745000Y-72390000D01*
X118110000Y-74930000D02*
X118110000Y-73025000D01*
X118745000Y-72390000D02*
X130810000Y-72390000D01*
X130810000Y-74930000D02*
X118110000Y-74930000D01*
X130810000Y-72390000D02*
X130810000Y-74930000D01*
%TO.C,R1*%
X134883400Y-93380400D02*
X134883400Y-94630400D01*
X134883400Y-94630400D02*
X132883400Y-94630400D01*
X132883400Y-94630400D02*
X132883400Y-93380400D01*
X132883400Y-93380400D02*
X134883400Y-93380400D01*
%TD*%
M02*
