M48
; DRILL file {KiCad (6.0.4)} date Wed Apr 26 13:38:45 2023
; FORMAT={-:-/ absolute / metric / decimal}
; #@! TF.CreationDate,2023-04-26T13:38:45-05:00
; #@! TF.GenerationSoftware,Kicad,Pcbnew,(6.0.4)
; #@! TF.FileFunction,Plated,1,2,PTH
FMAT,2
METRIC
; #@! TA.AperFunction,Plated,PTH,ViaDrill
T1C0.400
; #@! TA.AperFunction,Plated,PTH,ComponentDrill
T2C0.750
; #@! TA.AperFunction,Plated,PTH,ComponentDrill
T3C0.760
; #@! TA.AperFunction,Plated,PTH,ComponentDrill
T4C0.800
; #@! TA.AperFunction,Plated,PTH,ComponentDrill
T5C1.000
; #@! TA.AperFunction,Plated,PTH,ComponentDrill
T6C1.040
; #@! TA.AperFunction,Plated,PTH,ComponentDrill
T7C1.100
; #@! TA.AperFunction,Plated,PTH,ComponentDrill
T8C1.300
; #@! TA.AperFunction,Plated,PTH,ComponentDrill
T9C1.520
; #@! TA.AperFunction,Plated,PTH,ComponentDrill
T10C3.200
%
G90
G05
T1
X104.064Y-69.926
X109.474Y-68.326
X116.205Y-107.315
X129.54Y-60.96
X130.277Y-94.031
X130.81Y-62.23
X132.08Y-69.85
X132.08Y-90.805
X132.715Y-76.835
X134.823Y-92.151
X135.128Y-50.8
X136.652Y-47.535
X139.065Y-46.355
X140.335Y-55.245
X140.97Y-78.105
X140.97Y-83.185
X140.97Y-90.805
X141.605Y-73.025
X142.875Y-98.146
X143.51Y-80.645
X144.323Y-102.083
X145.415Y-83.185
X146.05Y-73.025
X148.59Y-52.705
X149.86Y-68.58
X150.495Y-89.535
X151.13Y-63.5
X153.035Y-82.55
X153.67Y-65.405
X156.21Y-71.755
X157.48Y-62.865
X157.48Y-75.565
X158.75Y-70.485
X158.75Y-77.47
X160.02Y-60.325
X161.29Y-74.295
X163.779Y-41.707
T2
X132.99Y-99.212
X132.99Y-100.482
X132.99Y-101.752
T3
X121.92Y-85.598
X124.46Y-85.598
X127.0Y-85.598
T4
X109.484Y-45.481
X109.484Y-48.021
X109.484Y-50.561
X109.484Y-53.101
X109.484Y-55.641
X109.484Y-58.181
X109.484Y-60.721
X109.484Y-63.261
X117.104Y-45.481
X117.104Y-48.021
X117.104Y-50.561
X117.104Y-53.101
X117.104Y-55.641
X117.104Y-58.181
X117.104Y-60.721
X117.104Y-63.261
T5
X98.09Y-80.69
X110.09Y-80.69
X119.38Y-69.825
X119.38Y-73.66
X121.92Y-69.825
X121.92Y-73.66
X121.935Y-97.79
X124.46Y-58.42
X124.46Y-60.96
X124.46Y-69.825
X124.46Y-73.66
X124.475Y-97.79
X127.0Y-69.825
X127.0Y-73.66
X127.015Y-97.79
X129.54Y-69.825
X129.54Y-73.66
X130.81Y-44.46
X130.81Y-47.0
X130.81Y-49.54
X130.81Y-52.08
X157.48Y-104.775
X160.02Y-104.775
X162.56Y-104.775
T6
X138.43Y-51.36
X138.43Y-53.9
X138.43Y-56.44
X138.43Y-58.98
X138.43Y-61.52
X138.43Y-64.06
X138.43Y-66.6
X138.43Y-69.14
X138.43Y-71.68
X138.43Y-74.22
X138.43Y-76.76
X138.43Y-79.3
X138.43Y-81.84
X138.43Y-84.38
X138.43Y-86.92
X138.43Y-89.46
X138.43Y-92.0
X138.43Y-94.54
X138.43Y-97.08
X163.83Y-51.36
X163.83Y-53.9
X163.83Y-56.44
X163.83Y-58.98
X163.83Y-61.52
X163.83Y-64.06
X163.83Y-66.6
X163.83Y-69.14
X163.83Y-71.68
X163.83Y-74.22
X163.83Y-76.76
X163.83Y-79.3
X163.83Y-81.84
X163.83Y-84.38
X163.83Y-86.92
X163.83Y-89.46
X163.83Y-92.0
X163.83Y-94.54
X163.83Y-97.08
T7
X124.46Y-43.66
X124.46Y-48.26
X124.46Y-52.86
T8
X98.09Y-92.89
X104.14Y-78.74
X110.14Y-92.94
T9
X98.806Y-49.022
X98.806Y-54.102
X98.806Y-60.198
X98.806Y-65.278
X99.06Y-106.045
X104.14Y-106.045
X109.22Y-106.045
T10
X91.44Y-43.18
X91.44Y-110.49
X173.984Y-43.18
X173.984Y-43.18
X173.984Y-110.49
X173.984Y-110.49
T0
M30
