%TF.GenerationSoftware,KiCad,Pcbnew,(6.0.4)*%
%TF.CreationDate,2023-04-26T13:38:40-05:00*%
%TF.ProjectId,Modulo de Practicas uPy,4d6f6475-6c6f-4206-9465-205072616374,rev?*%
%TF.SameCoordinates,Original*%
%TF.FileFunction,Other,User*%
%FSLAX46Y46*%
G04 Gerber Fmt 4.6, Leading zero omitted, Abs format (unit mm)*
G04 Created by KiCad (PCBNEW (6.0.4)) date 2023-04-26 13:38:40*
%MOMM*%
%LPD*%
G01*
G04 APERTURE LIST*
%ADD10C,0.050000*%
G04 APERTURE END LIST*
D10*
%TO.C,J8*%
X122660000Y-62770000D02*
X126260000Y-62770000D01*
X122660000Y-56620000D02*
X122660000Y-62770000D01*
X126260000Y-62770000D02*
X126260000Y-56620000D01*
X126260000Y-56620000D02*
X122660000Y-56620000D01*
%TO.C,REF\u002A\u002A*%
X177433852Y-110490000D02*
G75*
G03*
X177433852Y-110490000I-3450000J0D01*
G01*
%TO.C,J2*%
X94806000Y-56812000D02*
X102806000Y-56812000D01*
X102806000Y-46312000D02*
X102806000Y-56812000D01*
X94806000Y-56812000D02*
X94806000Y-46312000D01*
X102806000Y-46312000D02*
X94806000Y-46312000D01*
%TO.C,Q1*%
X130980000Y-103212400D02*
X130980000Y-97752400D01*
X135720000Y-97752400D02*
X130980000Y-97752400D01*
X130980000Y-103212400D02*
X135720000Y-103212400D01*
X135720000Y-97752400D02*
X135720000Y-103212400D01*
%TO.C,U2*%
X128785000Y-95990000D02*
X120135000Y-95990000D01*
X128785000Y-99590000D02*
X128785000Y-95990000D01*
X120135000Y-95990000D02*
X120135000Y-99590000D01*
X120135000Y-99590000D02*
X128785000Y-99590000D01*
%TO.C,M1*%
X122910000Y-54660000D02*
X126010000Y-54660000D01*
X126010000Y-50060000D02*
X126010000Y-46460000D01*
X122910000Y-50060000D02*
X126010000Y-50060000D01*
X126010000Y-41860000D02*
X122910000Y-41860000D01*
X126010000Y-46460000D02*
X122910000Y-46460000D01*
X126010000Y-45460000D02*
X126010000Y-41860000D01*
X126010000Y-51060000D02*
X122910000Y-51060000D01*
X122910000Y-45460000D02*
X126010000Y-45460000D01*
X122910000Y-46460000D02*
X122910000Y-50060000D01*
X122910000Y-41860000D02*
X122910000Y-45460000D01*
X122910000Y-51060000D02*
X122910000Y-54660000D01*
X126010000Y-54660000D02*
X126010000Y-51060000D01*
%TO.C,U3*%
X118184000Y-43931000D02*
X108384000Y-43931000D01*
X118184000Y-64781000D02*
X118184000Y-43931000D01*
X108384000Y-43931000D02*
X108384000Y-64781000D01*
X108384000Y-64781000D02*
X118184000Y-64781000D01*
%TO.C,R5*%
X146905000Y-105090000D02*
X143545000Y-105090000D01*
X143545000Y-103190000D02*
X146905000Y-103190000D01*
X146905000Y-103190000D02*
X146905000Y-105090000D01*
X143545000Y-105090000D02*
X143545000Y-103190000D01*
%TO.C,D6*%
X147672000Y-110170000D02*
X147672000Y-108270000D01*
X147672000Y-108270000D02*
X151032000Y-108270000D01*
X151032000Y-108270000D02*
X151032000Y-110170000D01*
X151032000Y-110170000D02*
X147672000Y-110170000D01*
%TO.C,REF\u002A\u002A*%
X94890000Y-110490000D02*
G75*
G03*
X94890000Y-110490000I-3450000J0D01*
G01*
%TO.C,Q2*%
X104760000Y-69420000D02*
X104760000Y-72820000D01*
X104760000Y-72820000D02*
X108600000Y-72820000D01*
X108600000Y-72820000D02*
X108600000Y-69420000D01*
X108600000Y-69420000D02*
X104760000Y-69420000D01*
%TO.C,U1*%
X165330000Y-98620000D02*
X136930000Y-98620000D01*
X136930000Y-43720000D02*
X165330000Y-43720000D01*
X165330000Y-43720000D02*
X165330000Y-98620000D01*
X136930000Y-98620000D02*
X136930000Y-43720000D01*
%TO.C,D2*%
X98015000Y-70170000D02*
X101375000Y-70170000D01*
X101375000Y-72070000D02*
X98015000Y-72070000D01*
X98015000Y-72070000D02*
X98015000Y-70170000D01*
X101375000Y-70170000D02*
X101375000Y-72070000D01*
%TO.C,R3*%
X112170000Y-71440000D02*
X112170000Y-73340000D01*
X108810000Y-71440000D02*
X112170000Y-71440000D01*
X108810000Y-73340000D02*
X108810000Y-71440000D01*
X112170000Y-73340000D02*
X108810000Y-73340000D01*
%TO.C,J7*%
X132610000Y-53860000D02*
X132610000Y-42660000D01*
X129010000Y-53860000D02*
X132610000Y-53860000D01*
X132610000Y-42660000D02*
X129010000Y-42660000D01*
X129010000Y-42660000D02*
X129010000Y-53860000D01*
%TO.C,D1*%
X118831000Y-107855600D02*
X118831000Y-111455600D01*
X130751000Y-105155600D02*
X135931000Y-105155600D01*
X135931000Y-105155600D02*
X135931000Y-108755600D01*
X118831000Y-111455600D02*
X124011000Y-111455600D01*
X122791000Y-107855600D02*
X118831000Y-107855600D01*
X135931000Y-108755600D02*
X131971000Y-108755600D01*
X124011697Y-111454949D02*
G75*
G03*
X131971000Y-108755600I3369303J3149349D01*
G01*
X130750303Y-105156251D02*
G75*
G03*
X122791000Y-107855600I-3369303J-3149349D01*
G01*
%TO.C,R7*%
X143545000Y-110170000D02*
X143545000Y-108270000D01*
X146905000Y-110170000D02*
X143545000Y-110170000D01*
X143545000Y-108270000D02*
X146905000Y-108270000D01*
X146905000Y-108270000D02*
X146905000Y-110170000D01*
%TO.C,R6*%
X146905000Y-107630000D02*
X143545000Y-107630000D01*
X146905000Y-105730000D02*
X146905000Y-107630000D01*
X143545000Y-105730000D02*
X146905000Y-105730000D01*
X143545000Y-107630000D02*
X143545000Y-105730000D01*
%TO.C,J3*%
X94806000Y-67988000D02*
X102806000Y-67988000D01*
X102806000Y-57488000D02*
X94806000Y-57488000D01*
X102806000Y-57488000D02*
X102806000Y-67988000D01*
X94806000Y-67988000D02*
X94806000Y-57488000D01*
%TO.C,D4*%
X151032000Y-105090000D02*
X147672000Y-105090000D01*
X147672000Y-105090000D02*
X147672000Y-103190000D01*
X151032000Y-103190000D02*
X151032000Y-105090000D01*
X147672000Y-103190000D02*
X151032000Y-103190000D01*
%TO.C,D3*%
X115250000Y-110265000D02*
X113350000Y-110265000D01*
X113350000Y-106905000D02*
X115250000Y-106905000D01*
X115250000Y-106905000D02*
X115250000Y-110265000D01*
X113350000Y-110265000D02*
X113350000Y-106905000D01*
%TO.C,D5*%
X151032000Y-105730000D02*
X151032000Y-107630000D01*
X147672000Y-105730000D02*
X151032000Y-105730000D01*
X151032000Y-107630000D02*
X147672000Y-107630000D01*
X147672000Y-107630000D02*
X147672000Y-105730000D01*
%TO.C,K1*%
X112090000Y-97290000D02*
X112090000Y-77190000D01*
X112090000Y-97290000D02*
X96190000Y-97290000D01*
X96190000Y-77190000D02*
X112090000Y-77190000D01*
X96190000Y-77190000D02*
X96190000Y-97290000D01*
%TO.C,RV1*%
X119445000Y-90598000D02*
X119445000Y-80568000D01*
X119445000Y-80568000D02*
X129475000Y-80568000D01*
X129475000Y-90598000D02*
X119445000Y-90598000D01*
X129475000Y-80568000D02*
X129475000Y-90598000D01*
%TO.C,R4*%
X108810000Y-68900000D02*
X112170000Y-68900000D01*
X108810000Y-70800000D02*
X108810000Y-68900000D01*
X112170000Y-70800000D02*
X108810000Y-70800000D01*
X112170000Y-68900000D02*
X112170000Y-70800000D01*
%TO.C,J5*%
X117580000Y-68075000D02*
X131280000Y-68075000D01*
X131280000Y-71625000D02*
X117580000Y-71625000D01*
X131280000Y-68075000D02*
X131280000Y-71625000D01*
X117580000Y-71625000D02*
X117580000Y-68075000D01*
%TO.C,REF\u002A\u002A*%
X177433852Y-43180000D02*
G75*
G03*
X177433852Y-43180000I-3450000J0D01*
G01*
%TO.C,J1*%
X96340000Y-102045000D02*
X111940000Y-102045000D01*
X111940000Y-110045000D02*
X111940000Y-102045000D01*
X96340000Y-102045000D02*
X96340000Y-110045000D01*
X111940000Y-110045000D02*
X96340000Y-110045000D01*
%TO.C,R2*%
X115250000Y-106455000D02*
X113350000Y-106455000D01*
X115250000Y-103095000D02*
X115250000Y-106455000D01*
X113350000Y-103095000D02*
X115250000Y-103095000D01*
X113350000Y-106455000D02*
X113350000Y-103095000D01*
%TO.C,J6*%
X155680000Y-102975000D02*
X155680000Y-106575000D01*
X164330000Y-106575000D02*
X164330000Y-102975000D01*
X155680000Y-106575000D02*
X164330000Y-106575000D01*
X164330000Y-102975000D02*
X155680000Y-102975000D01*
%TO.C,J4*%
X131280000Y-75460000D02*
X117580000Y-75460000D01*
X117580000Y-71910000D02*
X131280000Y-71910000D01*
X131280000Y-71910000D02*
X131280000Y-75460000D01*
X117580000Y-75460000D02*
X117580000Y-71910000D01*
%TO.C,REF\u002A\u002A*%
X94890000Y-43180000D02*
G75*
G03*
X94890000Y-43180000I-3450000J0D01*
G01*
%TO.C,R1*%
X135563400Y-94955400D02*
X132203400Y-94955400D01*
X135563400Y-93055400D02*
X135563400Y-94955400D01*
X132203400Y-93055400D02*
X135563400Y-93055400D01*
X132203400Y-94955400D02*
X132203400Y-93055400D01*
%TD*%
M02*
