%TF.GenerationSoftware,KiCad,Pcbnew,(6.0.4)*%
%TF.CreationDate,2023-04-26T13:38:40-05:00*%
%TF.ProjectId,Modulo de Practicas uPy,4d6f6475-6c6f-4206-9465-205072616374,rev?*%
%TF.SameCoordinates,Original*%
%TF.FileFunction,Soldermask,Top*%
%TF.FilePolarity,Negative*%
%FSLAX46Y46*%
G04 Gerber Fmt 4.6, Leading zero omitted, Abs format (unit mm)*
G04 Created by KiCad (PCBNEW (6.0.4)) date 2023-04-26 13:38:40*
%MOMM*%
%LPD*%
G01*
G04 APERTURE LIST*
G04 Aperture macros list*
%AMRoundRect*
0 Rectangle with rounded corners*
0 $1 Rounding radius*
0 $2 $3 $4 $5 $6 $7 $8 $9 X,Y pos of 4 corners*
0 Add a 4 corners polygon primitive as box body*
4,1,4,$2,$3,$4,$5,$6,$7,$8,$9,$2,$3,0*
0 Add four circle primitives for the rounded corners*
1,1,$1+$1,$2,$3*
1,1,$1+$1,$4,$5*
1,1,$1+$1,$6,$7*
1,1,$1+$1,$8,$9*
0 Add four rect primitives between the rounded corners*
20,1,$1+$1,$2,$3,$4,$5,0*
20,1,$1+$1,$4,$5,$6,$7,0*
20,1,$1+$1,$6,$7,$8,$9,0*
20,1,$1+$1,$8,$9,$2,$3,0*%
G04 Aperture macros list end*
%ADD10R,1.700000X1.700000*%
%ADD11O,1.700000X1.700000*%
%ADD12C,6.400000*%
%ADD13R,3.000000X3.000000*%
%ADD14C,3.000000*%
%ADD15R,1.500000X1.050000*%
%ADD16O,1.500000X1.050000*%
%ADD17RoundRect,0.250001X0.799999X-0.799999X0.799999X0.799999X-0.799999X0.799999X-0.799999X-0.799999X0*%
%ADD18C,2.100000*%
%ADD19R,1.600000X1.600000*%
%ADD20O,1.600000X1.600000*%
%ADD21RoundRect,0.250000X0.262500X0.450000X-0.262500X0.450000X-0.262500X-0.450000X0.262500X-0.450000X0*%
%ADD22RoundRect,0.243750X-0.243750X-0.456250X0.243750X-0.456250X0.243750X0.456250X-0.243750X0.456250X0*%
%ADD23RoundRect,0.150000X0.587500X0.150000X-0.587500X0.150000X-0.587500X-0.150000X0.587500X-0.150000X0*%
%ADD24C,1.560000*%
%ADD25R,1.560000X1.560000*%
%ADD26RoundRect,0.250000X-0.262500X-0.450000X0.262500X-0.450000X0.262500X0.450000X-0.262500X0.450000X0*%
%ADD27R,3.500000X2.700000*%
%ADD28C,5.700000*%
%ADD29RoundRect,0.243750X-0.456250X0.243750X-0.456250X-0.243750X0.456250X-0.243750X0.456250X0.243750X0*%
%ADD30C,2.500000*%
%ADD31R,1.268000X1.268000*%
%ADD32C,1.268000*%
%ADD33RoundRect,0.250000X0.450000X-0.262500X0.450000X0.262500X-0.450000X0.262500X-0.450000X-0.262500X0*%
G04 APERTURE END LIST*
D10*
%TO.C,J8*%
X124460000Y-58420000D03*
D11*
X124460000Y-60960000D03*
%TD*%
D12*
%TO.C,REF\u002A\u002A*%
X173983852Y-110490000D03*
X173983852Y-110490000D03*
%TD*%
D13*
%TO.C,J2*%
X98806000Y-49022000D03*
D14*
X98806000Y-54102000D03*
%TD*%
D15*
%TO.C,Q1*%
X132990000Y-99212400D03*
D16*
X132990000Y-100482400D03*
X132990000Y-101752400D03*
%TD*%
D10*
%TO.C,U2*%
X121935000Y-97790000D03*
D11*
X124475000Y-97790000D03*
X127015000Y-97790000D03*
%TD*%
D17*
%TO.C,M1*%
X124460000Y-52860000D03*
D18*
X124460000Y-48260000D03*
X124460000Y-43660000D03*
%TD*%
D19*
%TO.C,U3*%
X109484000Y-45481000D03*
D20*
X109484000Y-48021000D03*
X109484000Y-50561000D03*
X109484000Y-53101000D03*
X109484000Y-55641000D03*
X109484000Y-58181000D03*
X109484000Y-60721000D03*
X109484000Y-63261000D03*
X117104000Y-63261000D03*
X117104000Y-60721000D03*
X117104000Y-58181000D03*
X117104000Y-55641000D03*
X117104000Y-53101000D03*
X117104000Y-50561000D03*
X117104000Y-48021000D03*
X117104000Y-45481000D03*
%TD*%
D21*
%TO.C,R5*%
X146137500Y-104140000D03*
X144312500Y-104140000D03*
%TD*%
D22*
%TO.C,D6*%
X148414500Y-109220000D03*
X150289500Y-109220000D03*
%TD*%
D12*
%TO.C,REF\u002A\u002A*%
X91440000Y-110490000D03*
%TD*%
D23*
%TO.C,Q2*%
X107617500Y-72070000D03*
X107617500Y-70170000D03*
X105742500Y-71120000D03*
%TD*%
D24*
%TO.C,U1*%
X163830000Y-97080000D03*
X163830000Y-94540000D03*
X163830000Y-92000000D03*
X163830000Y-89460000D03*
X163830000Y-86920000D03*
X163830000Y-84380000D03*
X163830000Y-81840000D03*
X163830000Y-79300000D03*
X163830000Y-76760000D03*
X163830000Y-74220000D03*
X163830000Y-71680000D03*
X163830000Y-69140000D03*
X163830000Y-66600000D03*
X163830000Y-64060000D03*
X163830000Y-61520000D03*
X163830000Y-58980000D03*
X163830000Y-56440000D03*
X163830000Y-53900000D03*
X163830000Y-51360000D03*
X138430000Y-97080000D03*
X138430000Y-94540000D03*
X138430000Y-92000000D03*
X138430000Y-89460000D03*
X138430000Y-86920000D03*
X138430000Y-84380000D03*
X138430000Y-81840000D03*
X138430000Y-79300000D03*
X138430000Y-76760000D03*
X138430000Y-74220000D03*
X138430000Y-71680000D03*
X138430000Y-69140000D03*
X138430000Y-66600000D03*
X138430000Y-64060000D03*
X138430000Y-61520000D03*
X138430000Y-58980000D03*
X138430000Y-56440000D03*
X138430000Y-53900000D03*
D25*
X138430000Y-51360000D03*
%TD*%
D22*
%TO.C,D2*%
X98757500Y-71120000D03*
X100632500Y-71120000D03*
%TD*%
D26*
%TO.C,R3*%
X109577500Y-72390000D03*
X111402500Y-72390000D03*
%TD*%
D10*
%TO.C,J7*%
X130810000Y-44460000D03*
D11*
X130810000Y-47000000D03*
X130810000Y-49540000D03*
X130810000Y-52080000D03*
%TD*%
D27*
%TO.C,D1*%
X121031000Y-109655600D03*
X133731000Y-106955600D03*
D28*
X127381000Y-108305600D03*
%TD*%
D21*
%TO.C,R7*%
X146137500Y-109220000D03*
X144312500Y-109220000D03*
%TD*%
%TO.C,R6*%
X146137500Y-106680000D03*
X144312500Y-106680000D03*
%TD*%
D13*
%TO.C,J3*%
X98806000Y-60198000D03*
D14*
X98806000Y-65278000D03*
%TD*%
D22*
%TO.C,D4*%
X148414500Y-104140000D03*
X150289500Y-104140000D03*
%TD*%
D29*
%TO.C,D3*%
X114300000Y-107647500D03*
X114300000Y-109522500D03*
%TD*%
D22*
%TO.C,D5*%
X148414500Y-106680000D03*
X150289500Y-106680000D03*
%TD*%
D14*
%TO.C,K1*%
X104140000Y-78740000D03*
D30*
X98090000Y-80690000D03*
D14*
X98090000Y-92890000D03*
X110140000Y-92940000D03*
D30*
X110090000Y-80690000D03*
%TD*%
D31*
%TO.C,RV1*%
X121920000Y-85598000D03*
D32*
X124460000Y-85598000D03*
X127000000Y-85598000D03*
%TD*%
D26*
%TO.C,R4*%
X109577500Y-69850000D03*
X111402500Y-69850000D03*
%TD*%
D10*
%TO.C,J5*%
X119380000Y-69825000D03*
D11*
X121920000Y-69825000D03*
X124460000Y-69825000D03*
X127000000Y-69825000D03*
X129540000Y-69825000D03*
%TD*%
D12*
%TO.C,REF\u002A\u002A*%
X173983852Y-43180000D03*
X173983852Y-43180000D03*
%TD*%
D13*
%TO.C,J1*%
X99060000Y-106045000D03*
D14*
X104140000Y-106045000D03*
X109220000Y-106045000D03*
%TD*%
D33*
%TO.C,R2*%
X114300000Y-105687500D03*
X114300000Y-103862500D03*
%TD*%
D10*
%TO.C,J6*%
X157480000Y-104775000D03*
D11*
X160020000Y-104775000D03*
X162560000Y-104775000D03*
%TD*%
D10*
%TO.C,J4*%
X119380000Y-73660000D03*
D11*
X121920000Y-73660000D03*
X124460000Y-73660000D03*
X127000000Y-73660000D03*
X129540000Y-73660000D03*
%TD*%
D12*
%TO.C,REF\u002A\u002A*%
X91440000Y-43180000D03*
%TD*%
D26*
%TO.C,R1*%
X132970900Y-94005400D03*
X134795900Y-94005400D03*
%TD*%
M02*
