%TF.GenerationSoftware,KiCad,Pcbnew,(6.0.4)*%
%TF.CreationDate,2023-04-26T13:38:39-05:00*%
%TF.ProjectId,Modulo de Practicas uPy,4d6f6475-6c6f-4206-9465-205072616374,rev?*%
%TF.SameCoordinates,Original*%
%TF.FileFunction,Legend,Top*%
%TF.FilePolarity,Positive*%
%FSLAX46Y46*%
G04 Gerber Fmt 4.6, Leading zero omitted, Abs format (unit mm)*
G04 Created by KiCad (PCBNEW (6.0.4)) date 2023-04-26 13:38:39*
%MOMM*%
%LPD*%
G01*
G04 APERTURE LIST*
%ADD10C,0.150000*%
%ADD11C,0.300000*%
%ADD12C,0.250000*%
%ADD13C,0.120000*%
%ADD14C,0.010000*%
%ADD15C,0.127000*%
%ADD16C,0.200000*%
G04 APERTURE END LIST*
D10*
X124912380Y-95489976D02*
X123912380Y-95489976D01*
X123912380Y-94823309D02*
X123912380Y-94632833D01*
X123960000Y-94537595D01*
X124055238Y-94442357D01*
X124245714Y-94394738D01*
X124579047Y-94394738D01*
X124769523Y-94442357D01*
X124864761Y-94537595D01*
X124912380Y-94632833D01*
X124912380Y-94823309D01*
X124864761Y-94918547D01*
X124769523Y-95013785D01*
X124579047Y-95061404D01*
X124245714Y-95061404D01*
X124055238Y-95013785D01*
X123960000Y-94918547D01*
X123912380Y-94823309D01*
X124912380Y-93442357D02*
X124912380Y-94013785D01*
X124912380Y-93728071D02*
X123912380Y-93728071D01*
X124055238Y-93823309D01*
X124150476Y-93918547D01*
X124198095Y-94013785D01*
X124245714Y-92585214D02*
X124912380Y-92585214D01*
X123864761Y-92823309D02*
X124579047Y-93061404D01*
X124579047Y-92442357D01*
X122372380Y-67803976D02*
X121372380Y-67803976D01*
X121372380Y-67137309D02*
X121372380Y-66946833D01*
X121420000Y-66851595D01*
X121515238Y-66756357D01*
X121705714Y-66708738D01*
X122039047Y-66708738D01*
X122229523Y-66756357D01*
X122324761Y-66851595D01*
X122372380Y-66946833D01*
X122372380Y-67137309D01*
X122324761Y-67232547D01*
X122229523Y-67327785D01*
X122039047Y-67375404D01*
X121705714Y-67375404D01*
X121515238Y-67327785D01*
X121420000Y-67232547D01*
X121372380Y-67137309D01*
X122372380Y-65756357D02*
X122372380Y-66327785D01*
X122372380Y-66042071D02*
X121372380Y-66042071D01*
X121515238Y-66137309D01*
X121610476Y-66232547D01*
X121658095Y-66327785D01*
X121372380Y-64851595D02*
X121372380Y-65327785D01*
X121848571Y-65375404D01*
X121800952Y-65327785D01*
X121753333Y-65232547D01*
X121753333Y-64994452D01*
X121800952Y-64899214D01*
X121848571Y-64851595D01*
X121943809Y-64803976D01*
X122181904Y-64803976D01*
X122277142Y-64851595D01*
X122324761Y-64899214D01*
X122372380Y-64994452D01*
X122372380Y-65232547D01*
X122324761Y-65327785D01*
X122277142Y-65375404D01*
X118880000Y-66899214D02*
X118832380Y-66994452D01*
X118832380Y-67137309D01*
X118880000Y-67280166D01*
X118975238Y-67375404D01*
X119070476Y-67423023D01*
X119260952Y-67470642D01*
X119403809Y-67470642D01*
X119594285Y-67423023D01*
X119689523Y-67375404D01*
X119784761Y-67280166D01*
X119832380Y-67137309D01*
X119832380Y-67042071D01*
X119784761Y-66899214D01*
X119737142Y-66851595D01*
X119403809Y-66851595D01*
X119403809Y-67042071D01*
X119832380Y-66423023D02*
X118832380Y-66423023D01*
X119832380Y-65851595D01*
X118832380Y-65851595D01*
X119832380Y-65375404D02*
X118832380Y-65375404D01*
X118832380Y-65137309D01*
X118880000Y-64994452D01*
X118975238Y-64899214D01*
X119070476Y-64851595D01*
X119260952Y-64803976D01*
X119403809Y-64803976D01*
X119594285Y-64851595D01*
X119689523Y-64899214D01*
X119784761Y-64994452D01*
X119832380Y-65137309D01*
X119832380Y-65375404D01*
X130246380Y-78979976D02*
X129246380Y-78979976D01*
X129246380Y-78313309D02*
X129246380Y-78122833D01*
X129294000Y-78027595D01*
X129389238Y-77932357D01*
X129579714Y-77884738D01*
X129913047Y-77884738D01*
X130103523Y-77932357D01*
X130198761Y-78027595D01*
X130246380Y-78122833D01*
X130246380Y-78313309D01*
X130198761Y-78408547D01*
X130103523Y-78503785D01*
X129913047Y-78551404D01*
X129579714Y-78551404D01*
X129389238Y-78503785D01*
X129294000Y-78408547D01*
X129246380Y-78313309D01*
X129246380Y-77551404D02*
X129246380Y-76932357D01*
X129627333Y-77265690D01*
X129627333Y-77122833D01*
X129674952Y-77027595D01*
X129722571Y-76979976D01*
X129817809Y-76932357D01*
X130055904Y-76932357D01*
X130151142Y-76979976D01*
X130198761Y-77027595D01*
X130246380Y-77122833D01*
X130246380Y-77408547D01*
X130198761Y-77503785D01*
X130151142Y-77551404D01*
X129246380Y-76075214D02*
X129246380Y-76265690D01*
X129294000Y-76360928D01*
X129341619Y-76408547D01*
X129484476Y-76503785D01*
X129674952Y-76551404D01*
X130055904Y-76551404D01*
X130151142Y-76503785D01*
X130198761Y-76456166D01*
X130246380Y-76360928D01*
X130246380Y-76170452D01*
X130198761Y-76075214D01*
X130151142Y-76027595D01*
X130055904Y-75979976D01*
X129817809Y-75979976D01*
X129722571Y-76027595D01*
X129674952Y-76075214D01*
X129627333Y-76170452D01*
X129627333Y-76360928D01*
X129674952Y-76456166D01*
X129722571Y-76503785D01*
X129817809Y-76551404D01*
D11*
X146043428Y-113176857D02*
X146543428Y-113176857D01*
X146757714Y-113962571D02*
X146043428Y-113962571D01*
X146043428Y-112462571D01*
X146757714Y-112462571D01*
X147400571Y-113962571D02*
X147400571Y-112462571D01*
X147972000Y-112462571D01*
X148114857Y-112534000D01*
X148186285Y-112605428D01*
X148257714Y-112748285D01*
X148257714Y-112962571D01*
X148186285Y-113105428D01*
X148114857Y-113176857D01*
X147972000Y-113248285D01*
X147400571Y-113248285D01*
X149757714Y-113819714D02*
X149686285Y-113891142D01*
X149472000Y-113962571D01*
X149329142Y-113962571D01*
X149114857Y-113891142D01*
X148972000Y-113748285D01*
X148900571Y-113605428D01*
X148829142Y-113319714D01*
X148829142Y-113105428D01*
X148900571Y-112819714D01*
X148972000Y-112676857D01*
X149114857Y-112534000D01*
X149329142Y-112462571D01*
X149472000Y-112462571D01*
X149686285Y-112534000D01*
X149757714Y-112605428D01*
X151543428Y-113962571D02*
X151543428Y-112462571D01*
X152114857Y-112462571D01*
X152257714Y-112534000D01*
X152329142Y-112605428D01*
X152400571Y-112748285D01*
X152400571Y-112962571D01*
X152329142Y-113105428D01*
X152257714Y-113176857D01*
X152114857Y-113248285D01*
X151543428Y-113248285D01*
X152972000Y-113534000D02*
X153686285Y-113534000D01*
X152829142Y-113962571D02*
X153329142Y-112462571D01*
X153829142Y-113962571D01*
X155186285Y-113962571D02*
X154686285Y-113248285D01*
X154329142Y-113962571D02*
X154329142Y-112462571D01*
X154900571Y-112462571D01*
X155043428Y-112534000D01*
X155114857Y-112605428D01*
X155186285Y-112748285D01*
X155186285Y-112962571D01*
X155114857Y-113105428D01*
X155043428Y-113176857D01*
X154900571Y-113248285D01*
X154329142Y-113248285D01*
X155757714Y-113534000D02*
X156472000Y-113534000D01*
X155614857Y-113962571D02*
X156114857Y-112462571D01*
X156614857Y-113962571D01*
X158257714Y-112462571D02*
X158257714Y-113676857D01*
X158329142Y-113819714D01*
X158400571Y-113891142D01*
X158543428Y-113962571D01*
X158829142Y-113962571D01*
X158972000Y-113891142D01*
X159043428Y-113819714D01*
X159114857Y-113676857D01*
X159114857Y-112462571D01*
X159829142Y-113962571D02*
X159829142Y-112462571D01*
X160400571Y-112462571D01*
X160543428Y-112534000D01*
X160614857Y-112605428D01*
X160686285Y-112748285D01*
X160686285Y-112962571D01*
X160614857Y-113105428D01*
X160543428Y-113176857D01*
X160400571Y-113248285D01*
X159829142Y-113248285D01*
X161614857Y-113248285D02*
X161614857Y-113962571D01*
X161114857Y-112462571D02*
X161614857Y-113248285D01*
X162114857Y-112462571D01*
X163543428Y-112462571D02*
X164043428Y-113962571D01*
X164543428Y-112462571D01*
X165829142Y-113962571D02*
X164972000Y-113962571D01*
X165400571Y-113962571D02*
X165400571Y-112462571D01*
X165257714Y-112676857D01*
X165114857Y-112819714D01*
X164972000Y-112891142D01*
X166472000Y-113819714D02*
X166543428Y-113891142D01*
X166472000Y-113962571D01*
X166400571Y-113891142D01*
X166472000Y-113819714D01*
X166472000Y-113962571D01*
X167472000Y-112462571D02*
X167614857Y-112462571D01*
X167757714Y-112534000D01*
X167829142Y-112605428D01*
X167900571Y-112748285D01*
X167972000Y-113034000D01*
X167972000Y-113391142D01*
X167900571Y-113676857D01*
X167829142Y-113819714D01*
X167757714Y-113891142D01*
X167614857Y-113962571D01*
X167472000Y-113962571D01*
X167329142Y-113891142D01*
X167257714Y-113819714D01*
X167186285Y-113676857D01*
X167114857Y-113391142D01*
X167114857Y-113034000D01*
X167186285Y-112748285D01*
X167257714Y-112605428D01*
X167329142Y-112534000D01*
X167472000Y-112462571D01*
D12*
X91241619Y-59872952D02*
X92241619Y-59872952D01*
X91527333Y-60206285D01*
X92241619Y-60539619D01*
X91241619Y-60539619D01*
X92241619Y-61206285D02*
X92241619Y-61396761D01*
X92194000Y-61492000D01*
X92098761Y-61587238D01*
X91908285Y-61634857D01*
X91574952Y-61634857D01*
X91384476Y-61587238D01*
X91289238Y-61492000D01*
X91241619Y-61396761D01*
X91241619Y-61206285D01*
X91289238Y-61111047D01*
X91384476Y-61015809D01*
X91574952Y-60968190D01*
X91908285Y-60968190D01*
X92098761Y-61015809D01*
X92194000Y-61111047D01*
X92241619Y-61206285D01*
X92241619Y-61920571D02*
X92241619Y-62492000D01*
X91241619Y-62206285D02*
X92241619Y-62206285D01*
X92241619Y-63015809D02*
X92241619Y-63206285D01*
X92194000Y-63301523D01*
X92098761Y-63396761D01*
X91908285Y-63444380D01*
X91574952Y-63444380D01*
X91384476Y-63396761D01*
X91289238Y-63301523D01*
X91241619Y-63206285D01*
X91241619Y-63015809D01*
X91289238Y-62920571D01*
X91384476Y-62825333D01*
X91574952Y-62777714D01*
X91908285Y-62777714D01*
X92098761Y-62825333D01*
X92194000Y-62920571D01*
X92241619Y-63015809D01*
X91241619Y-64444380D02*
X91717809Y-64111047D01*
X91241619Y-63872952D02*
X92241619Y-63872952D01*
X92241619Y-64253904D01*
X92194000Y-64349142D01*
X92146380Y-64396761D01*
X92051142Y-64444380D01*
X91908285Y-64444380D01*
X91813047Y-64396761D01*
X91765428Y-64349142D01*
X91717809Y-64253904D01*
X91717809Y-63872952D01*
X92146380Y-65587238D02*
X92194000Y-65634857D01*
X92241619Y-65730095D01*
X92241619Y-65968190D01*
X92194000Y-66063428D01*
X92146380Y-66111047D01*
X92051142Y-66158666D01*
X91955904Y-66158666D01*
X91813047Y-66111047D01*
X91241619Y-65539619D01*
X91241619Y-66158666D01*
D10*
X119134000Y-78075214D02*
X119086380Y-78170452D01*
X119086380Y-78313309D01*
X119134000Y-78456166D01*
X119229238Y-78551404D01*
X119324476Y-78599023D01*
X119514952Y-78646642D01*
X119657809Y-78646642D01*
X119848285Y-78599023D01*
X119943523Y-78551404D01*
X120038761Y-78456166D01*
X120086380Y-78313309D01*
X120086380Y-78218071D01*
X120038761Y-78075214D01*
X119991142Y-78027595D01*
X119657809Y-78027595D01*
X119657809Y-78218071D01*
X120086380Y-77599023D02*
X119086380Y-77599023D01*
X120086380Y-77027595D01*
X119086380Y-77027595D01*
X120086380Y-76551404D02*
X119086380Y-76551404D01*
X119086380Y-76313309D01*
X119134000Y-76170452D01*
X119229238Y-76075214D01*
X119324476Y-76027595D01*
X119514952Y-75979976D01*
X119657809Y-75979976D01*
X119848285Y-76027595D01*
X119943523Y-76075214D01*
X120038761Y-76170452D01*
X120086380Y-76313309D01*
X120086380Y-76551404D01*
X121372380Y-93394738D02*
X121372380Y-93870928D01*
X121848571Y-93918547D01*
X121800952Y-93870928D01*
X121753333Y-93775690D01*
X121753333Y-93537595D01*
X121800952Y-93442357D01*
X121848571Y-93394738D01*
X121943809Y-93347119D01*
X122181904Y-93347119D01*
X122277142Y-93394738D01*
X122324761Y-93442357D01*
X122372380Y-93537595D01*
X122372380Y-93775690D01*
X122324761Y-93870928D01*
X122277142Y-93918547D01*
X121372380Y-93061404D02*
X122372380Y-92728071D01*
X121372380Y-92394738D01*
X122626380Y-78027595D02*
X121626380Y-78027595D01*
X121626380Y-77360928D02*
X121626380Y-77170452D01*
X121674000Y-77075214D01*
X121769238Y-76979976D01*
X121959714Y-76932357D01*
X122293047Y-76932357D01*
X122483523Y-76979976D01*
X122578761Y-77075214D01*
X122626380Y-77170452D01*
X122626380Y-77360928D01*
X122578761Y-77456166D01*
X122483523Y-77551404D01*
X122293047Y-77599023D01*
X121959714Y-77599023D01*
X121769238Y-77551404D01*
X121674000Y-77456166D01*
X121626380Y-77360928D01*
X121626380Y-76027595D02*
X121626380Y-76503785D01*
X122102571Y-76551404D01*
X122054952Y-76503785D01*
X122007333Y-76408547D01*
X122007333Y-76170452D01*
X122054952Y-76075214D01*
X122102571Y-76027595D01*
X122197809Y-75979976D01*
X122435904Y-75979976D01*
X122531142Y-76027595D01*
X122578761Y-76075214D01*
X122626380Y-76170452D01*
X122626380Y-76408547D01*
X122578761Y-76503785D01*
X122531142Y-76551404D01*
X127452380Y-67803976D02*
X126452380Y-67803976D01*
X126452380Y-67137309D02*
X126452380Y-66946833D01*
X126500000Y-66851595D01*
X126595238Y-66756357D01*
X126785714Y-66708738D01*
X127119047Y-66708738D01*
X127309523Y-66756357D01*
X127404761Y-66851595D01*
X127452380Y-66946833D01*
X127452380Y-67137309D01*
X127404761Y-67232547D01*
X127309523Y-67327785D01*
X127119047Y-67375404D01*
X126785714Y-67375404D01*
X126595238Y-67327785D01*
X126500000Y-67232547D01*
X126452380Y-67137309D01*
X126547619Y-66327785D02*
X126500000Y-66280166D01*
X126452380Y-66184928D01*
X126452380Y-65946833D01*
X126500000Y-65851595D01*
X126547619Y-65803976D01*
X126642857Y-65756357D01*
X126738095Y-65756357D01*
X126880952Y-65803976D01*
X127452380Y-66375404D01*
X127452380Y-65756357D01*
X127452380Y-64803976D02*
X127452380Y-65375404D01*
X127452380Y-65089690D02*
X126452380Y-65089690D01*
X126595238Y-65184928D01*
X126690476Y-65280166D01*
X126738095Y-65375404D01*
X133110023Y-49728380D02*
X133110023Y-48728380D01*
X133776690Y-48728380D02*
X133967166Y-48728380D01*
X134062404Y-48776000D01*
X134157642Y-48871238D01*
X134205261Y-49061714D01*
X134205261Y-49395047D01*
X134157642Y-49585523D01*
X134062404Y-49680761D01*
X133967166Y-49728380D01*
X133776690Y-49728380D01*
X133681452Y-49680761D01*
X133586214Y-49585523D01*
X133538595Y-49395047D01*
X133538595Y-49061714D01*
X133586214Y-48871238D01*
X133681452Y-48776000D01*
X133776690Y-48728380D01*
X134538595Y-48728380D02*
X135157642Y-48728380D01*
X134824309Y-49109333D01*
X134967166Y-49109333D01*
X135062404Y-49156952D01*
X135110023Y-49204571D01*
X135157642Y-49299809D01*
X135157642Y-49537904D01*
X135110023Y-49633142D01*
X135062404Y-49680761D01*
X134967166Y-49728380D01*
X134681452Y-49728380D01*
X134586214Y-49680761D01*
X134538595Y-49633142D01*
X135490976Y-48728380D02*
X136110023Y-48728380D01*
X135776690Y-49109333D01*
X135919547Y-49109333D01*
X136014785Y-49156952D01*
X136062404Y-49204571D01*
X136110023Y-49299809D01*
X136110023Y-49537904D01*
X136062404Y-49633142D01*
X136014785Y-49680761D01*
X135919547Y-49728380D01*
X135633833Y-49728380D01*
X135538595Y-49680761D01*
X135490976Y-49633142D01*
X134161685Y-111696371D02*
X133828352Y-111696371D01*
X133828352Y-112220180D02*
X133828352Y-111220180D01*
X134304542Y-111220180D01*
X134685495Y-111220180D02*
X134685495Y-112029704D01*
X134733114Y-112124942D01*
X134780733Y-112172561D01*
X134875971Y-112220180D01*
X135066447Y-112220180D01*
X135161685Y-112172561D01*
X135209304Y-112124942D01*
X135256923Y-112029704D01*
X135256923Y-111220180D01*
X135733114Y-112220180D02*
X135733114Y-111220180D01*
X136304542Y-112220180D01*
X136304542Y-111220180D01*
X136780733Y-112220180D02*
X136780733Y-111220180D01*
X137161685Y-111220180D01*
X137256923Y-111267800D01*
X137304542Y-111315419D01*
X137352161Y-111410657D01*
X137352161Y-111553514D01*
X137304542Y-111648752D01*
X137256923Y-111696371D01*
X137161685Y-111743990D01*
X136780733Y-111743990D01*
X137971209Y-111743990D02*
X137971209Y-112220180D01*
X137637876Y-111220180D02*
X137971209Y-111743990D01*
X138304542Y-111220180D01*
X138495019Y-111220180D02*
X139066447Y-111220180D01*
X138780733Y-112220180D02*
X138780733Y-111220180D01*
X139399780Y-112220180D02*
X139399780Y-111220180D01*
X139399780Y-111696371D02*
X139971209Y-111696371D01*
X139971209Y-112220180D02*
X139971209Y-111220180D01*
X140637876Y-111220180D02*
X140828352Y-111220180D01*
X140923590Y-111267800D01*
X141018828Y-111363038D01*
X141066447Y-111553514D01*
X141066447Y-111886847D01*
X141018828Y-112077323D01*
X140923590Y-112172561D01*
X140828352Y-112220180D01*
X140637876Y-112220180D01*
X140542638Y-112172561D01*
X140447400Y-112077323D01*
X140399780Y-111886847D01*
X140399780Y-111553514D01*
X140447400Y-111363038D01*
X140542638Y-111267800D01*
X140637876Y-111220180D01*
X141495019Y-112220180D02*
X141495019Y-111220180D01*
X142066447Y-112220180D01*
X142066447Y-111220180D01*
X132518828Y-112877800D02*
X132423590Y-112830180D01*
X132280733Y-112830180D01*
X132137876Y-112877800D01*
X132042638Y-112973038D01*
X131995019Y-113068276D01*
X131947400Y-113258752D01*
X131947400Y-113401609D01*
X131995019Y-113592085D01*
X132042638Y-113687323D01*
X132137876Y-113782561D01*
X132280733Y-113830180D01*
X132375971Y-113830180D01*
X132518828Y-113782561D01*
X132566447Y-113734942D01*
X132566447Y-113401609D01*
X132375971Y-113401609D01*
X133185495Y-113353990D02*
X133185495Y-113830180D01*
X132852161Y-112830180D02*
X133185495Y-113353990D01*
X133518828Y-112830180D01*
X133852161Y-113306371D02*
X134185495Y-113306371D01*
X134328352Y-113830180D02*
X133852161Y-113830180D01*
X133852161Y-112830180D01*
X134328352Y-112830180D01*
X135518828Y-113449228D02*
X136280733Y-113449228D01*
X137518828Y-113306371D02*
X137852161Y-113306371D01*
X137995019Y-113830180D02*
X137518828Y-113830180D01*
X137518828Y-112830180D01*
X137995019Y-112830180D01*
X138995019Y-113734942D02*
X138947400Y-113782561D01*
X138804542Y-113830180D01*
X138709304Y-113830180D01*
X138566447Y-113782561D01*
X138471209Y-113687323D01*
X138423590Y-113592085D01*
X138375971Y-113401609D01*
X138375971Y-113258752D01*
X138423590Y-113068276D01*
X138471209Y-112973038D01*
X138566447Y-112877800D01*
X138709304Y-112830180D01*
X138804542Y-112830180D01*
X138947400Y-112877800D01*
X138995019Y-112925419D01*
X139423590Y-112830180D02*
X139423590Y-113639704D01*
X139471209Y-113734942D01*
X139518828Y-113782561D01*
X139614066Y-113830180D01*
X139804542Y-113830180D01*
X139899780Y-113782561D01*
X139947400Y-113734942D01*
X139995019Y-113639704D01*
X139995019Y-112830180D01*
X140423590Y-113544466D02*
X140899780Y-113544466D01*
X140328352Y-113830180D02*
X140661685Y-112830180D01*
X140995019Y-113830180D01*
X141328352Y-113830180D02*
X141328352Y-112830180D01*
X141566447Y-112830180D01*
X141709304Y-112877800D01*
X141804542Y-112973038D01*
X141852161Y-113068276D01*
X141899780Y-113258752D01*
X141899780Y-113401609D01*
X141852161Y-113592085D01*
X141804542Y-113687323D01*
X141709304Y-113782561D01*
X141566447Y-113830180D01*
X141328352Y-113830180D01*
X142518828Y-112830180D02*
X142709304Y-112830180D01*
X142804542Y-112877800D01*
X142899780Y-112973038D01*
X142947400Y-113163514D01*
X142947400Y-113496847D01*
X142899780Y-113687323D01*
X142804542Y-113782561D01*
X142709304Y-113830180D01*
X142518828Y-113830180D01*
X142423590Y-113782561D01*
X142328352Y-113687323D01*
X142280733Y-113496847D01*
X142280733Y-113163514D01*
X142328352Y-112973038D01*
X142423590Y-112877800D01*
X142518828Y-112830180D01*
X143947400Y-113830180D02*
X143614066Y-113353990D01*
X143375971Y-113830180D02*
X143375971Y-112830180D01*
X143756923Y-112830180D01*
X143852161Y-112877800D01*
X143899780Y-112925419D01*
X143947400Y-113020657D01*
X143947400Y-113163514D01*
X143899780Y-113258752D01*
X143852161Y-113306371D01*
X143756923Y-113353990D01*
X143375971Y-113353990D01*
X96534023Y-75636380D02*
X96534023Y-74636380D01*
X97200690Y-74636380D02*
X97391166Y-74636380D01*
X97486404Y-74684000D01*
X97581642Y-74779238D01*
X97629261Y-74969714D01*
X97629261Y-75303047D01*
X97581642Y-75493523D01*
X97486404Y-75588761D01*
X97391166Y-75636380D01*
X97200690Y-75636380D01*
X97105452Y-75588761D01*
X97010214Y-75493523D01*
X96962595Y-75303047D01*
X96962595Y-74969714D01*
X97010214Y-74779238D01*
X97105452Y-74684000D01*
X97200690Y-74636380D01*
X98010214Y-74731619D02*
X98057833Y-74684000D01*
X98153071Y-74636380D01*
X98391166Y-74636380D01*
X98486404Y-74684000D01*
X98534023Y-74731619D01*
X98581642Y-74826857D01*
X98581642Y-74922095D01*
X98534023Y-75064952D01*
X97962595Y-75636380D01*
X98581642Y-75636380D01*
X98914976Y-74636380D02*
X99534023Y-74636380D01*
X99200690Y-75017333D01*
X99343547Y-75017333D01*
X99438785Y-75064952D01*
X99486404Y-75112571D01*
X99534023Y-75207809D01*
X99534023Y-75445904D01*
X99486404Y-75541142D01*
X99438785Y-75588761D01*
X99343547Y-75636380D01*
X99057833Y-75636380D01*
X98962595Y-75588761D01*
X98914976Y-75541142D01*
D11*
X173668571Y-81449142D02*
X174882857Y-81449142D01*
X175025714Y-81520571D01*
X175097142Y-81592000D01*
X175168571Y-81734857D01*
X175168571Y-81949142D01*
X175097142Y-82092000D01*
X174597142Y-81449142D02*
X174668571Y-81592000D01*
X174668571Y-81877714D01*
X174597142Y-82020571D01*
X174525714Y-82092000D01*
X174382857Y-82163428D01*
X173954285Y-82163428D01*
X173811428Y-82092000D01*
X173740000Y-82020571D01*
X173668571Y-81877714D01*
X173668571Y-81592000D01*
X173740000Y-81449142D01*
X174668571Y-80734857D02*
X173668571Y-80734857D01*
X173168571Y-80734857D02*
X173240000Y-80806285D01*
X173311428Y-80734857D01*
X173240000Y-80663428D01*
X173168571Y-80734857D01*
X173311428Y-80734857D01*
X173668571Y-80234857D02*
X173668571Y-79663428D01*
X173168571Y-80020571D02*
X174454285Y-80020571D01*
X174597142Y-79949142D01*
X174668571Y-79806285D01*
X174668571Y-79663428D01*
X174668571Y-79163428D02*
X173168571Y-79163428D01*
X174668571Y-78520571D02*
X173882857Y-78520571D01*
X173740000Y-78592000D01*
X173668571Y-78734857D01*
X173668571Y-78949142D01*
X173740000Y-79092000D01*
X173811428Y-79163428D01*
X173668571Y-77163428D02*
X174668571Y-77163428D01*
X173668571Y-77806285D02*
X174454285Y-77806285D01*
X174597142Y-77734857D01*
X174668571Y-77592000D01*
X174668571Y-77377714D01*
X174597142Y-77234857D01*
X174525714Y-77163428D01*
X174668571Y-76449142D02*
X173168571Y-76449142D01*
X173740000Y-76449142D02*
X173668571Y-76306285D01*
X173668571Y-76020571D01*
X173740000Y-75877714D01*
X173811428Y-75806285D01*
X173954285Y-75734857D01*
X174382857Y-75734857D01*
X174525714Y-75806285D01*
X174597142Y-75877714D01*
X174668571Y-76020571D01*
X174668571Y-76306285D01*
X174597142Y-76449142D01*
X174525714Y-75092000D02*
X174597142Y-75020571D01*
X174668571Y-75092000D01*
X174597142Y-75163428D01*
X174525714Y-75092000D01*
X174668571Y-75092000D01*
X174597142Y-73734857D02*
X174668571Y-73877714D01*
X174668571Y-74163428D01*
X174597142Y-74306285D01*
X174525714Y-74377714D01*
X174382857Y-74449142D01*
X173954285Y-74449142D01*
X173811428Y-74377714D01*
X173740000Y-74306285D01*
X173668571Y-74163428D01*
X173668571Y-73877714D01*
X173740000Y-73734857D01*
X174668571Y-72877714D02*
X174597142Y-73020571D01*
X174525714Y-73092000D01*
X174382857Y-73163428D01*
X173954285Y-73163428D01*
X173811428Y-73092000D01*
X173740000Y-73020571D01*
X173668571Y-72877714D01*
X173668571Y-72663428D01*
X173740000Y-72520571D01*
X173811428Y-72449142D01*
X173954285Y-72377714D01*
X174382857Y-72377714D01*
X174525714Y-72449142D01*
X174597142Y-72520571D01*
X174668571Y-72663428D01*
X174668571Y-72877714D01*
X174668571Y-71734857D02*
X173668571Y-71734857D01*
X173811428Y-71734857D02*
X173740000Y-71663428D01*
X173668571Y-71520571D01*
X173668571Y-71306285D01*
X173740000Y-71163428D01*
X173882857Y-71092000D01*
X174668571Y-71092000D01*
X173882857Y-71092000D02*
X173740000Y-71020571D01*
X173668571Y-70877714D01*
X173668571Y-70663428D01*
X173740000Y-70520571D01*
X173882857Y-70449142D01*
X174668571Y-70449142D01*
X173097142Y-68663428D02*
X175025714Y-69949142D01*
X174597142Y-67520571D02*
X174668571Y-67663428D01*
X174668571Y-67949142D01*
X174597142Y-68092000D01*
X174525714Y-68163428D01*
X174382857Y-68234857D01*
X173954285Y-68234857D01*
X173811428Y-68163428D01*
X173740000Y-68092000D01*
X173668571Y-67949142D01*
X173668571Y-67663428D01*
X173740000Y-67520571D01*
X173668571Y-67092000D02*
X173668571Y-66520571D01*
X173168571Y-66877714D02*
X174454285Y-66877714D01*
X174597142Y-66806285D01*
X174668571Y-66663428D01*
X174668571Y-66520571D01*
X174668571Y-65377714D02*
X173882857Y-65377714D01*
X173740000Y-65449142D01*
X173668571Y-65592000D01*
X173668571Y-65877714D01*
X173740000Y-66020571D01*
X174597142Y-65377714D02*
X174668571Y-65520571D01*
X174668571Y-65877714D01*
X174597142Y-66020571D01*
X174454285Y-66092000D01*
X174311428Y-66092000D01*
X174168571Y-66020571D01*
X174097142Y-65877714D01*
X174097142Y-65520571D01*
X174025714Y-65377714D01*
X173668571Y-64806285D02*
X174668571Y-64449142D01*
X173668571Y-64092000D02*
X174668571Y-64449142D01*
X175025714Y-64592000D01*
X175097142Y-64663428D01*
X175168571Y-64806285D01*
X173668571Y-62877714D02*
X174668571Y-62877714D01*
X173668571Y-63520571D02*
X174454285Y-63520571D01*
X174597142Y-63449142D01*
X174668571Y-63306285D01*
X174668571Y-63092000D01*
X174597142Y-62949142D01*
X174525714Y-62877714D01*
X173668571Y-62163428D02*
X175168571Y-62163428D01*
X173740000Y-62163428D02*
X173668571Y-62020571D01*
X173668571Y-61734857D01*
X173740000Y-61592000D01*
X173811428Y-61520571D01*
X173954285Y-61449142D01*
X174382857Y-61449142D01*
X174525714Y-61520571D01*
X174597142Y-61592000D01*
X174668571Y-61734857D01*
X174668571Y-62020571D01*
X174597142Y-62163428D01*
X174668571Y-60163428D02*
X173882857Y-60163428D01*
X173740000Y-60234857D01*
X173668571Y-60377714D01*
X173668571Y-60663428D01*
X173740000Y-60806285D01*
X174597142Y-60163428D02*
X174668571Y-60306285D01*
X174668571Y-60663428D01*
X174597142Y-60806285D01*
X174454285Y-60877714D01*
X174311428Y-60877714D01*
X174168571Y-60806285D01*
X174097142Y-60663428D01*
X174097142Y-60306285D01*
X174025714Y-60163428D01*
X173668571Y-59449142D02*
X174668571Y-59449142D01*
X173811428Y-59449142D02*
X173740000Y-59377714D01*
X173668571Y-59234857D01*
X173668571Y-59020571D01*
X173740000Y-58877714D01*
X173882857Y-58806285D01*
X174668571Y-58806285D01*
X173668571Y-58306285D02*
X173668571Y-57734857D01*
X173168571Y-58092000D02*
X174454285Y-58092000D01*
X174597142Y-58020571D01*
X174668571Y-57877714D01*
X174668571Y-57734857D01*
X174668571Y-56592000D02*
X173882857Y-56592000D01*
X173740000Y-56663428D01*
X173668571Y-56806285D01*
X173668571Y-57092000D01*
X173740000Y-57234857D01*
X174597142Y-56592000D02*
X174668571Y-56734857D01*
X174668571Y-57092000D01*
X174597142Y-57234857D01*
X174454285Y-57306285D01*
X174311428Y-57306285D01*
X174168571Y-57234857D01*
X174097142Y-57092000D01*
X174097142Y-56734857D01*
X174025714Y-56592000D01*
D10*
X126500000Y-94585214D02*
X126452380Y-94680452D01*
X126452380Y-94823309D01*
X126500000Y-94966166D01*
X126595238Y-95061404D01*
X126690476Y-95109023D01*
X126880952Y-95156642D01*
X127023809Y-95156642D01*
X127214285Y-95109023D01*
X127309523Y-95061404D01*
X127404761Y-94966166D01*
X127452380Y-94823309D01*
X127452380Y-94728071D01*
X127404761Y-94585214D01*
X127357142Y-94537595D01*
X127023809Y-94537595D01*
X127023809Y-94728071D01*
X127452380Y-94109023D02*
X126452380Y-94109023D01*
X127452380Y-93537595D01*
X126452380Y-93537595D01*
X127452380Y-93061404D02*
X126452380Y-93061404D01*
X126452380Y-92823309D01*
X126500000Y-92680452D01*
X126595238Y-92585214D01*
X126690476Y-92537595D01*
X126880952Y-92489976D01*
X127023809Y-92489976D01*
X127214285Y-92537595D01*
X127309523Y-92585214D01*
X127404761Y-92680452D01*
X127452380Y-92823309D01*
X127452380Y-93061404D01*
X133681261Y-51532380D02*
X133205071Y-51532380D01*
X133157452Y-52008571D01*
X133205071Y-51960952D01*
X133300309Y-51913333D01*
X133538404Y-51913333D01*
X133633642Y-51960952D01*
X133681261Y-52008571D01*
X133728880Y-52103809D01*
X133728880Y-52341904D01*
X133681261Y-52437142D01*
X133633642Y-52484761D01*
X133538404Y-52532380D01*
X133300309Y-52532380D01*
X133205071Y-52484761D01*
X133157452Y-52437142D01*
X134014595Y-51532380D02*
X134347928Y-52532380D01*
X134681261Y-51532380D01*
X127331261Y-60666380D02*
X126855071Y-60666380D01*
X126807452Y-61142571D01*
X126855071Y-61094952D01*
X126950309Y-61047333D01*
X127188404Y-61047333D01*
X127283642Y-61094952D01*
X127331261Y-61142571D01*
X127378880Y-61237809D01*
X127378880Y-61475904D01*
X127331261Y-61571142D01*
X127283642Y-61618761D01*
X127188404Y-61666380D01*
X126950309Y-61666380D01*
X126855071Y-61618761D01*
X126807452Y-61571142D01*
X127664595Y-60666380D02*
X127997928Y-61666380D01*
X128331261Y-60666380D01*
X133760785Y-43960000D02*
X133665547Y-43912380D01*
X133522690Y-43912380D01*
X133379833Y-43960000D01*
X133284595Y-44055238D01*
X133236976Y-44150476D01*
X133189357Y-44340952D01*
X133189357Y-44483809D01*
X133236976Y-44674285D01*
X133284595Y-44769523D01*
X133379833Y-44864761D01*
X133522690Y-44912380D01*
X133617928Y-44912380D01*
X133760785Y-44864761D01*
X133808404Y-44817142D01*
X133808404Y-44483809D01*
X133617928Y-44483809D01*
X134236976Y-44912380D02*
X134236976Y-43912380D01*
X134808404Y-44912380D01*
X134808404Y-43912380D01*
X135284595Y-44912380D02*
X135284595Y-43912380D01*
X135522690Y-43912380D01*
X135665547Y-43960000D01*
X135760785Y-44055238D01*
X135808404Y-44150476D01*
X135856023Y-44340952D01*
X135856023Y-44483809D01*
X135808404Y-44674285D01*
X135760785Y-44769523D01*
X135665547Y-44864761D01*
X135522690Y-44912380D01*
X135284595Y-44912380D01*
D12*
X91241619Y-48696952D02*
X92241619Y-48696952D01*
X91527333Y-49030285D01*
X92241619Y-49363619D01*
X91241619Y-49363619D01*
X92241619Y-50030285D02*
X92241619Y-50220761D01*
X92194000Y-50316000D01*
X92098761Y-50411238D01*
X91908285Y-50458857D01*
X91574952Y-50458857D01*
X91384476Y-50411238D01*
X91289238Y-50316000D01*
X91241619Y-50220761D01*
X91241619Y-50030285D01*
X91289238Y-49935047D01*
X91384476Y-49839809D01*
X91574952Y-49792190D01*
X91908285Y-49792190D01*
X92098761Y-49839809D01*
X92194000Y-49935047D01*
X92241619Y-50030285D01*
X92241619Y-50744571D02*
X92241619Y-51316000D01*
X91241619Y-51030285D02*
X92241619Y-51030285D01*
X92241619Y-51839809D02*
X92241619Y-52030285D01*
X92194000Y-52125523D01*
X92098761Y-52220761D01*
X91908285Y-52268380D01*
X91574952Y-52268380D01*
X91384476Y-52220761D01*
X91289238Y-52125523D01*
X91241619Y-52030285D01*
X91241619Y-51839809D01*
X91289238Y-51744571D01*
X91384476Y-51649333D01*
X91574952Y-51601714D01*
X91908285Y-51601714D01*
X92098761Y-51649333D01*
X92194000Y-51744571D01*
X92241619Y-51839809D01*
X91241619Y-53268380D02*
X91717809Y-52935047D01*
X91241619Y-52696952D02*
X92241619Y-52696952D01*
X92241619Y-53077904D01*
X92194000Y-53173142D01*
X92146380Y-53220761D01*
X92051142Y-53268380D01*
X91908285Y-53268380D01*
X91813047Y-53220761D01*
X91765428Y-53173142D01*
X91717809Y-53077904D01*
X91717809Y-52696952D01*
X91241619Y-54982666D02*
X91241619Y-54411238D01*
X91241619Y-54696952D02*
X92241619Y-54696952D01*
X92098761Y-54601714D01*
X92003523Y-54506476D01*
X91955904Y-54411238D01*
D10*
X126706380Y-77408547D02*
X126706380Y-76837119D01*
X127706380Y-77122833D02*
X126706380Y-77122833D01*
X126706380Y-76599023D02*
X127706380Y-75932357D01*
X126706380Y-75932357D02*
X127706380Y-76599023D01*
X133110023Y-47442380D02*
X133110023Y-46442380D01*
X133776690Y-46442380D02*
X133967166Y-46442380D01*
X134062404Y-46490000D01*
X134157642Y-46585238D01*
X134205261Y-46775714D01*
X134205261Y-47109047D01*
X134157642Y-47299523D01*
X134062404Y-47394761D01*
X133967166Y-47442380D01*
X133776690Y-47442380D01*
X133681452Y-47394761D01*
X133586214Y-47299523D01*
X133538595Y-47109047D01*
X133538595Y-46775714D01*
X133586214Y-46585238D01*
X133681452Y-46490000D01*
X133776690Y-46442380D01*
X134538595Y-46442380D02*
X135157642Y-46442380D01*
X134824309Y-46823333D01*
X134967166Y-46823333D01*
X135062404Y-46870952D01*
X135110023Y-46918571D01*
X135157642Y-47013809D01*
X135157642Y-47251904D01*
X135110023Y-47347142D01*
X135062404Y-47394761D01*
X134967166Y-47442380D01*
X134681452Y-47442380D01*
X134586214Y-47394761D01*
X134538595Y-47347142D01*
X135538595Y-46537619D02*
X135586214Y-46490000D01*
X135681452Y-46442380D01*
X135919547Y-46442380D01*
X136014785Y-46490000D01*
X136062404Y-46537619D01*
X136110023Y-46632857D01*
X136110023Y-46728095D01*
X136062404Y-46870952D01*
X135490976Y-47442380D01*
X136110023Y-47442380D01*
D12*
X147510857Y-45535380D02*
X147510857Y-44535380D01*
X147748952Y-44535380D01*
X147891809Y-44583000D01*
X147987047Y-44678238D01*
X148034666Y-44773476D01*
X148082285Y-44963952D01*
X148082285Y-45106809D01*
X148034666Y-45297285D01*
X147987047Y-45392523D01*
X147891809Y-45487761D01*
X147748952Y-45535380D01*
X147510857Y-45535380D01*
X149082285Y-45535380D02*
X148748952Y-45059190D01*
X148510857Y-45535380D02*
X148510857Y-44535380D01*
X148891809Y-44535380D01*
X148987047Y-44583000D01*
X149034666Y-44630619D01*
X149082285Y-44725857D01*
X149082285Y-44868714D01*
X149034666Y-44963952D01*
X148987047Y-45011571D01*
X148891809Y-45059190D01*
X148510857Y-45059190D01*
X149510857Y-45535380D02*
X149510857Y-44535380D01*
X149844190Y-44535380D02*
X150177523Y-45535380D01*
X150510857Y-44535380D01*
X150844190Y-45011571D02*
X151177523Y-45011571D01*
X151320380Y-45535380D02*
X150844190Y-45535380D01*
X150844190Y-44535380D01*
X151320380Y-44535380D01*
X152320380Y-45535380D02*
X151987047Y-45059190D01*
X151748952Y-45535380D02*
X151748952Y-44535380D01*
X152129904Y-44535380D01*
X152225142Y-44583000D01*
X152272761Y-44630619D01*
X152320380Y-44725857D01*
X152320380Y-44868714D01*
X152272761Y-44963952D01*
X152225142Y-45011571D01*
X152129904Y-45059190D01*
X151748952Y-45059190D01*
X153987047Y-45535380D02*
X153510857Y-45535380D01*
X153510857Y-44535380D01*
X154272761Y-44630619D02*
X154320380Y-44583000D01*
X154415619Y-44535380D01*
X154653714Y-44535380D01*
X154748952Y-44583000D01*
X154796571Y-44630619D01*
X154844190Y-44725857D01*
X154844190Y-44821095D01*
X154796571Y-44963952D01*
X154225142Y-45535380D01*
X154844190Y-45535380D01*
X155320380Y-45535380D02*
X155510857Y-45535380D01*
X155606095Y-45487761D01*
X155653714Y-45440142D01*
X155748952Y-45297285D01*
X155796571Y-45106809D01*
X155796571Y-44725857D01*
X155748952Y-44630619D01*
X155701333Y-44583000D01*
X155606095Y-44535380D01*
X155415619Y-44535380D01*
X155320380Y-44583000D01*
X155272761Y-44630619D01*
X155225142Y-44725857D01*
X155225142Y-44963952D01*
X155272761Y-45059190D01*
X155320380Y-45106809D01*
X155415619Y-45154428D01*
X155606095Y-45154428D01*
X155701333Y-45106809D01*
X155748952Y-45059190D01*
X155796571Y-44963952D01*
X156129904Y-44535380D02*
X156748952Y-44535380D01*
X156415619Y-44916333D01*
X156558476Y-44916333D01*
X156653714Y-44963952D01*
X156701333Y-45011571D01*
X156748952Y-45106809D01*
X156748952Y-45344904D01*
X156701333Y-45440142D01*
X156653714Y-45487761D01*
X156558476Y-45535380D01*
X156272761Y-45535380D01*
X156177523Y-45487761D01*
X156129904Y-45440142D01*
X157177523Y-45535380D02*
X157177523Y-44535380D01*
X157415619Y-44535380D01*
X157558476Y-44583000D01*
X157653714Y-44678238D01*
X157701333Y-44773476D01*
X157748952Y-44963952D01*
X157748952Y-45106809D01*
X157701333Y-45297285D01*
X157653714Y-45392523D01*
X157558476Y-45487761D01*
X157415619Y-45535380D01*
X157177523Y-45535380D01*
X143034666Y-47145380D02*
X143034666Y-46145380D01*
X143701333Y-46145380D02*
X143891809Y-46145380D01*
X143987047Y-46193000D01*
X144082285Y-46288238D01*
X144129904Y-46478714D01*
X144129904Y-46812047D01*
X144082285Y-47002523D01*
X143987047Y-47097761D01*
X143891809Y-47145380D01*
X143701333Y-47145380D01*
X143606095Y-47097761D01*
X143510857Y-47002523D01*
X143463238Y-46812047D01*
X143463238Y-46478714D01*
X143510857Y-46288238D01*
X143606095Y-46193000D01*
X143701333Y-46145380D01*
X144510857Y-46240619D02*
X144558476Y-46193000D01*
X144653714Y-46145380D01*
X144891809Y-46145380D01*
X144987047Y-46193000D01*
X145034666Y-46240619D01*
X145082285Y-46335857D01*
X145082285Y-46431095D01*
X145034666Y-46573952D01*
X144463238Y-47145380D01*
X145082285Y-47145380D01*
X145987047Y-46145380D02*
X145510857Y-46145380D01*
X145463238Y-46621571D01*
X145510857Y-46573952D01*
X145606095Y-46526333D01*
X145844190Y-46526333D01*
X145939428Y-46573952D01*
X145987047Y-46621571D01*
X146034666Y-46716809D01*
X146034666Y-46954904D01*
X145987047Y-47050142D01*
X145939428Y-47097761D01*
X145844190Y-47145380D01*
X145606095Y-47145380D01*
X145510857Y-47097761D01*
X145463238Y-47050142D01*
X147748952Y-47145380D02*
X147177523Y-47145380D01*
X147463238Y-47145380D02*
X147463238Y-46145380D01*
X147368000Y-46288238D01*
X147272761Y-46383476D01*
X147177523Y-46431095D01*
X148129904Y-46859666D02*
X148606095Y-46859666D01*
X148034666Y-47145380D02*
X148368000Y-46145380D01*
X148701333Y-47145380D01*
X154796571Y-47145380D02*
X154796571Y-46145380D01*
X155463238Y-46145380D02*
X155653714Y-46145380D01*
X155748952Y-46193000D01*
X155844190Y-46288238D01*
X155891809Y-46478714D01*
X155891809Y-46812047D01*
X155844190Y-47002523D01*
X155748952Y-47097761D01*
X155653714Y-47145380D01*
X155463238Y-47145380D01*
X155368000Y-47097761D01*
X155272761Y-47002523D01*
X155225142Y-46812047D01*
X155225142Y-46478714D01*
X155272761Y-46288238D01*
X155368000Y-46193000D01*
X155463238Y-46145380D01*
X156225142Y-46145380D02*
X156844190Y-46145380D01*
X156510857Y-46526333D01*
X156653714Y-46526333D01*
X156748952Y-46573952D01*
X156796571Y-46621571D01*
X156844190Y-46716809D01*
X156844190Y-46954904D01*
X156796571Y-47050142D01*
X156748952Y-47097761D01*
X156653714Y-47145380D01*
X156368000Y-47145380D01*
X156272761Y-47097761D01*
X156225142Y-47050142D01*
X157701333Y-46478714D02*
X157701333Y-47145380D01*
X157463238Y-46097761D02*
X157225142Y-46812047D01*
X157844190Y-46812047D01*
X158891809Y-46145380D02*
X159510857Y-46145380D01*
X159177523Y-46526333D01*
X159320380Y-46526333D01*
X159415619Y-46573952D01*
X159463238Y-46621571D01*
X159510857Y-46716809D01*
X159510857Y-46954904D01*
X159463238Y-47050142D01*
X159415619Y-47097761D01*
X159320380Y-47145380D01*
X159034666Y-47145380D01*
X158939428Y-47097761D01*
X158891809Y-47050142D01*
X159891809Y-46859666D02*
X160368000Y-46859666D01*
X159796571Y-47145380D02*
X160129904Y-46145380D01*
X160463238Y-47145380D01*
X143034666Y-48755380D02*
X143034666Y-47755380D01*
X143701333Y-47755380D02*
X143891809Y-47755380D01*
X143987047Y-47803000D01*
X144082285Y-47898238D01*
X144129904Y-48088714D01*
X144129904Y-48422047D01*
X144082285Y-48612523D01*
X143987047Y-48707761D01*
X143891809Y-48755380D01*
X143701333Y-48755380D01*
X143606095Y-48707761D01*
X143510857Y-48612523D01*
X143463238Y-48422047D01*
X143463238Y-48088714D01*
X143510857Y-47898238D01*
X143606095Y-47803000D01*
X143701333Y-47755380D01*
X144510857Y-47850619D02*
X144558476Y-47803000D01*
X144653714Y-47755380D01*
X144891809Y-47755380D01*
X144987047Y-47803000D01*
X145034666Y-47850619D01*
X145082285Y-47945857D01*
X145082285Y-48041095D01*
X145034666Y-48183952D01*
X144463238Y-48755380D01*
X145082285Y-48755380D01*
X145939428Y-47755380D02*
X145748952Y-47755380D01*
X145653714Y-47803000D01*
X145606095Y-47850619D01*
X145510857Y-47993476D01*
X145463238Y-48183952D01*
X145463238Y-48564904D01*
X145510857Y-48660142D01*
X145558476Y-48707761D01*
X145653714Y-48755380D01*
X145844190Y-48755380D01*
X145939428Y-48707761D01*
X145987047Y-48660142D01*
X146034666Y-48564904D01*
X146034666Y-48326809D01*
X145987047Y-48231571D01*
X145939428Y-48183952D01*
X145844190Y-48136333D01*
X145653714Y-48136333D01*
X145558476Y-48183952D01*
X145510857Y-48231571D01*
X145463238Y-48326809D01*
X147177523Y-47850619D02*
X147225142Y-47803000D01*
X147320380Y-47755380D01*
X147558476Y-47755380D01*
X147653714Y-47803000D01*
X147701333Y-47850619D01*
X147748952Y-47945857D01*
X147748952Y-48041095D01*
X147701333Y-48183952D01*
X147129904Y-48755380D01*
X147748952Y-48755380D01*
X148129904Y-48469666D02*
X148606095Y-48469666D01*
X148034666Y-48755380D02*
X148368000Y-47755380D01*
X148701333Y-48755380D01*
X154796571Y-48755380D02*
X154796571Y-47755380D01*
X155463238Y-47755380D02*
X155653714Y-47755380D01*
X155748952Y-47803000D01*
X155844190Y-47898238D01*
X155891809Y-48088714D01*
X155891809Y-48422047D01*
X155844190Y-48612523D01*
X155748952Y-48707761D01*
X155653714Y-48755380D01*
X155463238Y-48755380D01*
X155368000Y-48707761D01*
X155272761Y-48612523D01*
X155225142Y-48422047D01*
X155225142Y-48088714D01*
X155272761Y-47898238D01*
X155368000Y-47803000D01*
X155463238Y-47755380D01*
X156225142Y-47755380D02*
X156844190Y-47755380D01*
X156510857Y-48136333D01*
X156653714Y-48136333D01*
X156748952Y-48183952D01*
X156796571Y-48231571D01*
X156844190Y-48326809D01*
X156844190Y-48564904D01*
X156796571Y-48660142D01*
X156748952Y-48707761D01*
X156653714Y-48755380D01*
X156368000Y-48755380D01*
X156272761Y-48707761D01*
X156225142Y-48660142D01*
X157748952Y-47755380D02*
X157272761Y-47755380D01*
X157225142Y-48231571D01*
X157272761Y-48183952D01*
X157368000Y-48136333D01*
X157606095Y-48136333D01*
X157701333Y-48183952D01*
X157748952Y-48231571D01*
X157796571Y-48326809D01*
X157796571Y-48564904D01*
X157748952Y-48660142D01*
X157701333Y-48707761D01*
X157606095Y-48755380D01*
X157368000Y-48755380D01*
X157272761Y-48707761D01*
X157225142Y-48660142D01*
X159415619Y-48088714D02*
X159415619Y-48755380D01*
X159177523Y-47707761D02*
X158939428Y-48422047D01*
X159558476Y-48422047D01*
X159891809Y-48469666D02*
X160368000Y-48469666D01*
X159796571Y-48755380D02*
X160129904Y-47755380D01*
X160463238Y-48755380D01*
X141772761Y-50365380D02*
X141772761Y-49365380D01*
X142439428Y-49365380D02*
X142629904Y-49365380D01*
X142725142Y-49413000D01*
X142820380Y-49508238D01*
X142868000Y-49698714D01*
X142868000Y-50032047D01*
X142820380Y-50222523D01*
X142725142Y-50317761D01*
X142629904Y-50365380D01*
X142439428Y-50365380D01*
X142344190Y-50317761D01*
X142248952Y-50222523D01*
X142201333Y-50032047D01*
X142201333Y-49698714D01*
X142248952Y-49508238D01*
X142344190Y-49413000D01*
X142439428Y-49365380D01*
X143820380Y-50365380D02*
X143248952Y-50365380D01*
X143534666Y-50365380D02*
X143534666Y-49365380D01*
X143439428Y-49508238D01*
X143344190Y-49603476D01*
X143248952Y-49651095D01*
X144677523Y-49365380D02*
X144487047Y-49365380D01*
X144391809Y-49413000D01*
X144344190Y-49460619D01*
X144248952Y-49603476D01*
X144201333Y-49793952D01*
X144201333Y-50174904D01*
X144248952Y-50270142D01*
X144296571Y-50317761D01*
X144391809Y-50365380D01*
X144582285Y-50365380D01*
X144677523Y-50317761D01*
X144725142Y-50270142D01*
X144772761Y-50174904D01*
X144772761Y-49936809D01*
X144725142Y-49841571D01*
X144677523Y-49793952D01*
X144582285Y-49746333D01*
X144391809Y-49746333D01*
X144296571Y-49793952D01*
X144248952Y-49841571D01*
X144201333Y-49936809D01*
X145963238Y-49841571D02*
X146296571Y-49841571D01*
X146439428Y-50365380D02*
X145963238Y-50365380D01*
X145963238Y-49365380D01*
X146439428Y-49365380D01*
X146868000Y-50365380D02*
X146868000Y-49365380D01*
X147439428Y-50365380D01*
X147439428Y-49365380D01*
X148439428Y-50365380D02*
X147868000Y-50365380D01*
X148153714Y-50365380D02*
X148153714Y-49365380D01*
X148058476Y-49508238D01*
X147963238Y-49603476D01*
X147868000Y-49651095D01*
X148915619Y-50317761D02*
X148915619Y-50365380D01*
X148868000Y-50460619D01*
X148820380Y-50508238D01*
X149296571Y-49460619D02*
X149344190Y-49413000D01*
X149439428Y-49365380D01*
X149677523Y-49365380D01*
X149772761Y-49413000D01*
X149820380Y-49460619D01*
X149868000Y-49555857D01*
X149868000Y-49651095D01*
X149820380Y-49793952D01*
X149248952Y-50365380D01*
X149868000Y-50365380D01*
X153534666Y-50365380D02*
X153534666Y-49365380D01*
X154201333Y-49365380D02*
X154391809Y-49365380D01*
X154487047Y-49413000D01*
X154582285Y-49508238D01*
X154629904Y-49698714D01*
X154629904Y-50032047D01*
X154582285Y-50222523D01*
X154487047Y-50317761D01*
X154391809Y-50365380D01*
X154201333Y-50365380D01*
X154106095Y-50317761D01*
X154010857Y-50222523D01*
X153963238Y-50032047D01*
X153963238Y-49698714D01*
X154010857Y-49508238D01*
X154106095Y-49413000D01*
X154201333Y-49365380D01*
X155582285Y-50365380D02*
X155010857Y-50365380D01*
X155296571Y-50365380D02*
X155296571Y-49365380D01*
X155201333Y-49508238D01*
X155106095Y-49603476D01*
X155010857Y-49651095D01*
X155915619Y-49365380D02*
X156582285Y-49365380D01*
X156153714Y-50365380D01*
X157725142Y-49841571D02*
X158058476Y-49841571D01*
X158201333Y-50365380D02*
X157725142Y-50365380D01*
X157725142Y-49365380D01*
X158201333Y-49365380D01*
X158629904Y-50365380D02*
X158629904Y-49365380D01*
X159201333Y-50365380D01*
X159201333Y-49365380D01*
X159582285Y-49365380D02*
X160201333Y-49365380D01*
X159868000Y-49746333D01*
X160010857Y-49746333D01*
X160106095Y-49793952D01*
X160153714Y-49841571D01*
X160201333Y-49936809D01*
X160201333Y-50174904D01*
X160153714Y-50270142D01*
X160106095Y-50317761D01*
X160010857Y-50365380D01*
X159725142Y-50365380D01*
X159629904Y-50317761D01*
X159582285Y-50270142D01*
X160677523Y-50317761D02*
X160677523Y-50365380D01*
X160629904Y-50460619D01*
X160582285Y-50508238D01*
X161534666Y-49698714D02*
X161534666Y-50365380D01*
X161296571Y-49317761D02*
X161058476Y-50032047D01*
X161677523Y-50032047D01*
D10*
X125166380Y-76932357D02*
X124690190Y-77265690D01*
X125166380Y-77503785D02*
X124166380Y-77503785D01*
X124166380Y-77122833D01*
X124214000Y-77027595D01*
X124261619Y-76979976D01*
X124356857Y-76932357D01*
X124499714Y-76932357D01*
X124594952Y-76979976D01*
X124642571Y-77027595D01*
X124690190Y-77122833D01*
X124690190Y-77503785D01*
X124166380Y-76599023D02*
X125166380Y-75932357D01*
X124166380Y-75932357D02*
X125166380Y-76599023D01*
X129992380Y-67803976D02*
X128992380Y-67803976D01*
X128992380Y-67137309D02*
X128992380Y-66946833D01*
X129040000Y-66851595D01*
X129135238Y-66756357D01*
X129325714Y-66708738D01*
X129659047Y-66708738D01*
X129849523Y-66756357D01*
X129944761Y-66851595D01*
X129992380Y-66946833D01*
X129992380Y-67137309D01*
X129944761Y-67232547D01*
X129849523Y-67327785D01*
X129659047Y-67375404D01*
X129325714Y-67375404D01*
X129135238Y-67327785D01*
X129040000Y-67232547D01*
X128992380Y-67137309D01*
X129087619Y-66327785D02*
X129040000Y-66280166D01*
X128992380Y-66184928D01*
X128992380Y-65946833D01*
X129040000Y-65851595D01*
X129087619Y-65803976D01*
X129182857Y-65756357D01*
X129278095Y-65756357D01*
X129420952Y-65803976D01*
X129992380Y-66375404D01*
X129992380Y-65756357D01*
X129087619Y-65375404D02*
X129040000Y-65327785D01*
X128992380Y-65232547D01*
X128992380Y-64994452D01*
X129040000Y-64899214D01*
X129087619Y-64851595D01*
X129182857Y-64803976D01*
X129278095Y-64803976D01*
X129420952Y-64851595D01*
X129992380Y-65423023D01*
X129992380Y-64803976D01*
X124912380Y-67803976D02*
X123912380Y-67803976D01*
X123912380Y-67137309D02*
X123912380Y-66946833D01*
X123960000Y-66851595D01*
X124055238Y-66756357D01*
X124245714Y-66708738D01*
X124579047Y-66708738D01*
X124769523Y-66756357D01*
X124864761Y-66851595D01*
X124912380Y-66946833D01*
X124912380Y-67137309D01*
X124864761Y-67232547D01*
X124769523Y-67327785D01*
X124579047Y-67375404D01*
X124245714Y-67375404D01*
X124055238Y-67327785D01*
X123960000Y-67232547D01*
X123912380Y-67137309D01*
X124912380Y-65756357D02*
X124912380Y-66327785D01*
X124912380Y-66042071D02*
X123912380Y-66042071D01*
X124055238Y-66137309D01*
X124150476Y-66232547D01*
X124198095Y-66327785D01*
X124912380Y-65280166D02*
X124912380Y-65089690D01*
X124864761Y-64994452D01*
X124817142Y-64946833D01*
X124674285Y-64851595D01*
X124483809Y-64803976D01*
X124102857Y-64803976D01*
X124007619Y-64851595D01*
X123960000Y-64899214D01*
X123912380Y-64994452D01*
X123912380Y-65184928D01*
X123960000Y-65280166D01*
X124007619Y-65327785D01*
X124102857Y-65375404D01*
X124340952Y-65375404D01*
X124436190Y-65327785D01*
X124483809Y-65280166D01*
X124531428Y-65184928D01*
X124531428Y-64994452D01*
X124483809Y-64899214D01*
X124436190Y-64851595D01*
X124340952Y-64803976D01*
X126760023Y-58872380D02*
X126760023Y-57872380D01*
X127426690Y-57872380D02*
X127617166Y-57872380D01*
X127712404Y-57920000D01*
X127807642Y-58015238D01*
X127855261Y-58205714D01*
X127855261Y-58539047D01*
X127807642Y-58729523D01*
X127712404Y-58824761D01*
X127617166Y-58872380D01*
X127426690Y-58872380D01*
X127331452Y-58824761D01*
X127236214Y-58729523D01*
X127188595Y-58539047D01*
X127188595Y-58205714D01*
X127236214Y-58015238D01*
X127331452Y-57920000D01*
X127426690Y-57872380D01*
X128236214Y-57967619D02*
X128283833Y-57920000D01*
X128379071Y-57872380D01*
X128617166Y-57872380D01*
X128712404Y-57920000D01*
X128760023Y-57967619D01*
X128807642Y-58062857D01*
X128807642Y-58158095D01*
X128760023Y-58300952D01*
X128188595Y-58872380D01*
X128807642Y-58872380D01*
X129140976Y-57872380D02*
X129760023Y-57872380D01*
X129426690Y-58253333D01*
X129569547Y-58253333D01*
X129664785Y-58300952D01*
X129712404Y-58348571D01*
X129760023Y-58443809D01*
X129760023Y-58681904D01*
X129712404Y-58777142D01*
X129664785Y-58824761D01*
X129569547Y-58872380D01*
X129283833Y-58872380D01*
X129188595Y-58824761D01*
X129140976Y-58777142D01*
D11*
X170620571Y-82278285D02*
X171620571Y-81921142D01*
X170620571Y-81564000D02*
X171620571Y-81921142D01*
X171977714Y-82064000D01*
X172049142Y-82135428D01*
X172120571Y-82278285D01*
X171620571Y-80778285D02*
X171549142Y-80921142D01*
X171477714Y-80992571D01*
X171334857Y-81064000D01*
X170906285Y-81064000D01*
X170763428Y-80992571D01*
X170692000Y-80921142D01*
X170620571Y-80778285D01*
X170620571Y-80564000D01*
X170692000Y-80421142D01*
X170763428Y-80349714D01*
X170906285Y-80278285D01*
X171334857Y-80278285D01*
X171477714Y-80349714D01*
X171549142Y-80421142D01*
X171620571Y-80564000D01*
X171620571Y-80778285D01*
X170620571Y-78992571D02*
X171620571Y-78992571D01*
X170620571Y-79635428D02*
X171406285Y-79635428D01*
X171549142Y-79564000D01*
X171620571Y-79421142D01*
X171620571Y-79206857D01*
X171549142Y-79064000D01*
X171477714Y-78992571D01*
X170620571Y-78492571D02*
X170620571Y-77921142D01*
X170120571Y-78278285D02*
X171406285Y-78278285D01*
X171549142Y-78206857D01*
X171620571Y-78064000D01*
X171620571Y-77921142D01*
X170620571Y-76778285D02*
X171620571Y-76778285D01*
X170620571Y-77421142D02*
X171406285Y-77421142D01*
X171549142Y-77349714D01*
X171620571Y-77206857D01*
X171620571Y-76992571D01*
X171549142Y-76849714D01*
X171477714Y-76778285D01*
X171620571Y-76064000D02*
X170120571Y-76064000D01*
X170692000Y-76064000D02*
X170620571Y-75921142D01*
X170620571Y-75635428D01*
X170692000Y-75492571D01*
X170763428Y-75421142D01*
X170906285Y-75349714D01*
X171334857Y-75349714D01*
X171477714Y-75421142D01*
X171549142Y-75492571D01*
X171620571Y-75635428D01*
X171620571Y-75921142D01*
X171549142Y-76064000D01*
X171549142Y-74135428D02*
X171620571Y-74278285D01*
X171620571Y-74564000D01*
X171549142Y-74706857D01*
X171406285Y-74778285D01*
X170834857Y-74778285D01*
X170692000Y-74706857D01*
X170620571Y-74564000D01*
X170620571Y-74278285D01*
X170692000Y-74135428D01*
X170834857Y-74064000D01*
X170977714Y-74064000D01*
X171120571Y-74778285D01*
X171477714Y-73421142D02*
X171549142Y-73349714D01*
X171620571Y-73421142D01*
X171549142Y-73492571D01*
X171477714Y-73421142D01*
X171620571Y-73421142D01*
X171549142Y-72064000D02*
X171620571Y-72206857D01*
X171620571Y-72492571D01*
X171549142Y-72635428D01*
X171477714Y-72706857D01*
X171334857Y-72778285D01*
X170906285Y-72778285D01*
X170763428Y-72706857D01*
X170692000Y-72635428D01*
X170620571Y-72492571D01*
X170620571Y-72206857D01*
X170692000Y-72064000D01*
X171620571Y-71206857D02*
X171549142Y-71349714D01*
X171477714Y-71421142D01*
X171334857Y-71492571D01*
X170906285Y-71492571D01*
X170763428Y-71421142D01*
X170692000Y-71349714D01*
X170620571Y-71206857D01*
X170620571Y-70992571D01*
X170692000Y-70849714D01*
X170763428Y-70778285D01*
X170906285Y-70706857D01*
X171334857Y-70706857D01*
X171477714Y-70778285D01*
X171549142Y-70849714D01*
X171620571Y-70992571D01*
X171620571Y-71206857D01*
X171620571Y-70064000D02*
X170620571Y-70064000D01*
X170763428Y-70064000D02*
X170692000Y-69992571D01*
X170620571Y-69849714D01*
X170620571Y-69635428D01*
X170692000Y-69492571D01*
X170834857Y-69421142D01*
X171620571Y-69421142D01*
X170834857Y-69421142D02*
X170692000Y-69349714D01*
X170620571Y-69206857D01*
X170620571Y-68992571D01*
X170692000Y-68849714D01*
X170834857Y-68778285D01*
X171620571Y-68778285D01*
X170049142Y-66992571D02*
X171977714Y-68278285D01*
X170906285Y-65564000D02*
X170834857Y-65635428D01*
X170763428Y-65778285D01*
X170763428Y-65921142D01*
X170834857Y-66064000D01*
X170906285Y-66135428D01*
X171049142Y-66206857D01*
X171192000Y-66206857D01*
X171334857Y-66135428D01*
X171406285Y-66064000D01*
X171477714Y-65921142D01*
X171477714Y-65778285D01*
X171406285Y-65635428D01*
X171334857Y-65564000D01*
X170763428Y-65564000D02*
X171334857Y-65564000D01*
X171406285Y-65492571D01*
X171406285Y-65421142D01*
X171334857Y-65278285D01*
X171192000Y-65206857D01*
X170834857Y-65206857D01*
X170620571Y-65349714D01*
X170477714Y-65564000D01*
X170406285Y-65849714D01*
X170477714Y-66135428D01*
X170620571Y-66349714D01*
X170834857Y-66492571D01*
X171120571Y-66564000D01*
X171406285Y-66492571D01*
X171620571Y-66349714D01*
X171763428Y-66135428D01*
X171834857Y-65849714D01*
X171763428Y-65564000D01*
X171620571Y-65349714D01*
X171549142Y-63921142D02*
X171620571Y-64064000D01*
X171620571Y-64349714D01*
X171549142Y-64492571D01*
X171477714Y-64564000D01*
X171334857Y-64635428D01*
X170906285Y-64635428D01*
X170763428Y-64564000D01*
X170692000Y-64492571D01*
X170620571Y-64349714D01*
X170620571Y-64064000D01*
X170692000Y-63921142D01*
X170620571Y-63492571D02*
X170620571Y-62921142D01*
X170120571Y-63278285D02*
X171406285Y-63278285D01*
X171549142Y-63206857D01*
X171620571Y-63064000D01*
X171620571Y-62921142D01*
X171620571Y-61778285D02*
X170834857Y-61778285D01*
X170692000Y-61849714D01*
X170620571Y-61992571D01*
X170620571Y-62278285D01*
X170692000Y-62421142D01*
X171549142Y-61778285D02*
X171620571Y-61921142D01*
X171620571Y-62278285D01*
X171549142Y-62421142D01*
X171406285Y-62492571D01*
X171263428Y-62492571D01*
X171120571Y-62421142D01*
X171049142Y-62278285D01*
X171049142Y-61921142D01*
X170977714Y-61778285D01*
X170620571Y-61206857D02*
X171620571Y-60849714D01*
X170620571Y-60492571D02*
X171620571Y-60849714D01*
X171977714Y-60992571D01*
X172049142Y-61064000D01*
X172120571Y-61206857D01*
X170620571Y-59278285D02*
X171620571Y-59278285D01*
X170620571Y-59921142D02*
X171406285Y-59921142D01*
X171549142Y-59849714D01*
X171620571Y-59706857D01*
X171620571Y-59492571D01*
X171549142Y-59349714D01*
X171477714Y-59278285D01*
X170620571Y-58564000D02*
X172120571Y-58564000D01*
X170692000Y-58564000D02*
X170620571Y-58421142D01*
X170620571Y-58135428D01*
X170692000Y-57992571D01*
X170763428Y-57921142D01*
X170906285Y-57849714D01*
X171334857Y-57849714D01*
X171477714Y-57921142D01*
X171549142Y-57992571D01*
X171620571Y-58135428D01*
X171620571Y-58421142D01*
X171549142Y-58564000D01*
X171620571Y-56564000D02*
X170834857Y-56564000D01*
X170692000Y-56635428D01*
X170620571Y-56778285D01*
X170620571Y-57064000D01*
X170692000Y-57206857D01*
X171549142Y-56564000D02*
X171620571Y-56706857D01*
X171620571Y-57064000D01*
X171549142Y-57206857D01*
X171406285Y-57278285D01*
X171263428Y-57278285D01*
X171120571Y-57206857D01*
X171049142Y-57064000D01*
X171049142Y-56706857D01*
X170977714Y-56564000D01*
X170620571Y-55849714D02*
X171620571Y-55849714D01*
X170763428Y-55849714D02*
X170692000Y-55778285D01*
X170620571Y-55635428D01*
X170620571Y-55421142D01*
X170692000Y-55278285D01*
X170834857Y-55206857D01*
X171620571Y-55206857D01*
X170620571Y-54706857D02*
X170620571Y-54135428D01*
X170120571Y-54492571D02*
X171406285Y-54492571D01*
X171549142Y-54421142D01*
X171620571Y-54278285D01*
X171620571Y-54135428D01*
X171620571Y-52992571D02*
X170834857Y-52992571D01*
X170692000Y-53064000D01*
X170620571Y-53206857D01*
X170620571Y-53492571D01*
X170692000Y-53635428D01*
X171549142Y-52992571D02*
X171620571Y-53135428D01*
X171620571Y-53492571D01*
X171549142Y-53635428D01*
X171406285Y-53706857D01*
X171263428Y-53706857D01*
X171120571Y-53635428D01*
X171049142Y-53492571D01*
X171049142Y-53135428D01*
X170977714Y-52992571D01*
D10*
%TO.C,U2*%
X121721904Y-101036380D02*
X121245714Y-101036380D01*
X121245714Y-100036380D01*
X122055238Y-101036380D02*
X122055238Y-100036380D01*
X122388571Y-100750666D01*
X122721904Y-100036380D01*
X122721904Y-101036380D01*
X123102857Y-100036380D02*
X123721904Y-100036380D01*
X123388571Y-100417333D01*
X123531428Y-100417333D01*
X123626666Y-100464952D01*
X123674285Y-100512571D01*
X123721904Y-100607809D01*
X123721904Y-100845904D01*
X123674285Y-100941142D01*
X123626666Y-100988761D01*
X123531428Y-101036380D01*
X123245714Y-101036380D01*
X123150476Y-100988761D01*
X123102857Y-100941142D01*
X124626666Y-100036380D02*
X124150476Y-100036380D01*
X124102857Y-100512571D01*
X124150476Y-100464952D01*
X124245714Y-100417333D01*
X124483809Y-100417333D01*
X124579047Y-100464952D01*
X124626666Y-100512571D01*
X124674285Y-100607809D01*
X124674285Y-100845904D01*
X124626666Y-100941142D01*
X124579047Y-100988761D01*
X124483809Y-101036380D01*
X124245714Y-101036380D01*
X124150476Y-100988761D01*
X124102857Y-100941142D01*
X125102857Y-100655428D02*
X125864761Y-100655428D01*
X126817142Y-101036380D02*
X126340952Y-101036380D01*
X126340952Y-100036380D01*
X127150476Y-101036380D02*
X127150476Y-100036380D01*
X127531428Y-100036380D01*
X127626666Y-100084000D01*
X127674285Y-100131619D01*
X127721904Y-100226857D01*
X127721904Y-100369714D01*
X127674285Y-100464952D01*
X127626666Y-100512571D01*
X127531428Y-100560190D01*
X127150476Y-100560190D01*
%TO.C,M1*%
X122662380Y-49069523D02*
X121662380Y-49069523D01*
X122376666Y-48736190D01*
X121662380Y-48402857D01*
X122662380Y-48402857D01*
X122662380Y-47402857D02*
X122662380Y-47974285D01*
X122662380Y-47688571D02*
X121662380Y-47688571D01*
X121805238Y-47783809D01*
X121900476Y-47879047D01*
X121948095Y-47974285D01*
%TO.C,U3*%
X111674952Y-42743380D02*
X111198761Y-42743380D01*
X111198761Y-41743380D01*
X111960666Y-41838619D02*
X112008285Y-41791000D01*
X112103523Y-41743380D01*
X112341619Y-41743380D01*
X112436857Y-41791000D01*
X112484476Y-41838619D01*
X112532095Y-41933857D01*
X112532095Y-42029095D01*
X112484476Y-42171952D01*
X111913047Y-42743380D01*
X112532095Y-42743380D01*
X113008285Y-42743380D02*
X113198761Y-42743380D01*
X113294000Y-42695761D01*
X113341619Y-42648142D01*
X113436857Y-42505285D01*
X113484476Y-42314809D01*
X113484476Y-41933857D01*
X113436857Y-41838619D01*
X113389238Y-41791000D01*
X113294000Y-41743380D01*
X113103523Y-41743380D01*
X113008285Y-41791000D01*
X112960666Y-41838619D01*
X112913047Y-41933857D01*
X112913047Y-42171952D01*
X112960666Y-42267190D01*
X113008285Y-42314809D01*
X113103523Y-42362428D01*
X113294000Y-42362428D01*
X113389238Y-42314809D01*
X113436857Y-42267190D01*
X113484476Y-42171952D01*
X113817809Y-41743380D02*
X114436857Y-41743380D01*
X114103523Y-42124333D01*
X114246380Y-42124333D01*
X114341619Y-42171952D01*
X114389238Y-42219571D01*
X114436857Y-42314809D01*
X114436857Y-42552904D01*
X114389238Y-42648142D01*
X114341619Y-42695761D01*
X114246380Y-42743380D01*
X113960666Y-42743380D01*
X113865428Y-42695761D01*
X113817809Y-42648142D01*
X114865428Y-42743380D02*
X114865428Y-41743380D01*
X115103523Y-41743380D01*
X115246380Y-41791000D01*
X115341619Y-41886238D01*
X115389238Y-41981476D01*
X115436857Y-42171952D01*
X115436857Y-42314809D01*
X115389238Y-42505285D01*
X115341619Y-42600523D01*
X115246380Y-42695761D01*
X115103523Y-42743380D01*
X114865428Y-42743380D01*
%TO.C,D6*%
X151661904Y-109672380D02*
X151661904Y-108672380D01*
X151900000Y-108672380D01*
X152042857Y-108720000D01*
X152138095Y-108815238D01*
X152185714Y-108910476D01*
X152233333Y-109100952D01*
X152233333Y-109243809D01*
X152185714Y-109434285D01*
X152138095Y-109529523D01*
X152042857Y-109624761D01*
X151900000Y-109672380D01*
X151661904Y-109672380D01*
X153090476Y-108672380D02*
X152900000Y-108672380D01*
X152804761Y-108720000D01*
X152757142Y-108767619D01*
X152661904Y-108910476D01*
X152614285Y-109100952D01*
X152614285Y-109481904D01*
X152661904Y-109577142D01*
X152709523Y-109624761D01*
X152804761Y-109672380D01*
X152995238Y-109672380D01*
X153090476Y-109624761D01*
X153138095Y-109577142D01*
X153185714Y-109481904D01*
X153185714Y-109243809D01*
X153138095Y-109148571D01*
X153090476Y-109100952D01*
X152995238Y-109053333D01*
X152804761Y-109053333D01*
X152709523Y-109100952D01*
X152661904Y-109148571D01*
X152614285Y-109243809D01*
%TO.C,Q2*%
X105568761Y-69127619D02*
X105473523Y-69080000D01*
X105378285Y-68984761D01*
X105235428Y-68841904D01*
X105140190Y-68794285D01*
X105044952Y-68794285D01*
X105092571Y-69032380D02*
X104997333Y-68984761D01*
X104902095Y-68889523D01*
X104854476Y-68699047D01*
X104854476Y-68365714D01*
X104902095Y-68175238D01*
X104997333Y-68080000D01*
X105092571Y-68032380D01*
X105283047Y-68032380D01*
X105378285Y-68080000D01*
X105473523Y-68175238D01*
X105521142Y-68365714D01*
X105521142Y-68699047D01*
X105473523Y-68889523D01*
X105378285Y-68984761D01*
X105283047Y-69032380D01*
X105092571Y-69032380D01*
X105902095Y-68127619D02*
X105949714Y-68080000D01*
X106044952Y-68032380D01*
X106283047Y-68032380D01*
X106378285Y-68080000D01*
X106425904Y-68127619D01*
X106473523Y-68222857D01*
X106473523Y-68318095D01*
X106425904Y-68460952D01*
X105854476Y-69032380D01*
X106473523Y-69032380D01*
%TO.C,U1*%
X143796465Y-96194496D02*
X144130147Y-96194496D01*
X144273154Y-96718854D02*
X143796465Y-96718854D01*
X143796465Y-95717807D01*
X144273154Y-95717807D01*
X144654505Y-96671185D02*
X144797512Y-96718854D01*
X145035856Y-96718854D01*
X145131194Y-96671185D01*
X145178863Y-96623516D01*
X145226532Y-96528178D01*
X145226532Y-96432841D01*
X145178863Y-96337503D01*
X145131194Y-96289834D01*
X145035856Y-96242165D01*
X144845181Y-96194496D01*
X144749843Y-96146827D01*
X144702174Y-96099158D01*
X144654505Y-96003821D01*
X144654505Y-95908483D01*
X144702174Y-95813145D01*
X144749843Y-95765476D01*
X144845181Y-95717807D01*
X145083525Y-95717807D01*
X145226532Y-95765476D01*
X145655552Y-96718854D02*
X145655552Y-95717807D01*
X146036903Y-95717807D01*
X146132241Y-95765476D01*
X146179910Y-95813145D01*
X146227579Y-95908483D01*
X146227579Y-96051489D01*
X146179910Y-96146827D01*
X146132241Y-96194496D01*
X146036903Y-96242165D01*
X145655552Y-96242165D01*
X146561261Y-95717807D02*
X147180957Y-95717807D01*
X146847275Y-96099158D01*
X146990281Y-96099158D01*
X147085619Y-96146827D01*
X147133288Y-96194496D01*
X147180957Y-96289834D01*
X147180957Y-96528178D01*
X147133288Y-96623516D01*
X147085619Y-96671185D01*
X146990281Y-96718854D01*
X146704268Y-96718854D01*
X146608930Y-96671185D01*
X146561261Y-96623516D01*
X147562308Y-95813145D02*
X147609977Y-95765476D01*
X147705315Y-95717807D01*
X147943659Y-95717807D01*
X148038997Y-95765476D01*
X148086666Y-95813145D01*
X148134335Y-95908483D01*
X148134335Y-96003821D01*
X148086666Y-96146827D01*
X147514639Y-96718854D01*
X148134335Y-96718854D01*
X148563355Y-96337503D02*
X149326058Y-96337503D01*
X149802747Y-96718854D02*
X149802747Y-95717807D01*
X150041091Y-95717807D01*
X150184098Y-95765476D01*
X150279436Y-95860814D01*
X150327105Y-95956152D01*
X150374774Y-96146827D01*
X150374774Y-96289834D01*
X150327105Y-96480510D01*
X150279436Y-96575847D01*
X150184098Y-96671185D01*
X150041091Y-96718854D01*
X149802747Y-96718854D01*
X150803794Y-96194496D02*
X151137476Y-96194496D01*
X151280483Y-96718854D02*
X150803794Y-96718854D01*
X150803794Y-95717807D01*
X151280483Y-95717807D01*
X151566496Y-95717807D02*
X151900178Y-96718854D01*
X152233861Y-95717807D01*
X152567543Y-96718854D02*
X152567543Y-95717807D01*
X153139570Y-96718854D02*
X152710550Y-96146827D01*
X153139570Y-95717807D02*
X152567543Y-96289834D01*
X153568590Y-96718854D02*
X153568590Y-95717807D01*
X153902272Y-95717807D02*
X154474299Y-95717807D01*
X154188286Y-96718854D02*
X154188286Y-95717807D01*
X155380009Y-96623516D02*
X155332340Y-96671185D01*
X155189333Y-96718854D01*
X155093995Y-96718854D01*
X154950988Y-96671185D01*
X154855651Y-96575847D01*
X154807982Y-96480510D01*
X154760313Y-96289834D01*
X154760313Y-96146827D01*
X154807982Y-95956152D01*
X154855651Y-95860814D01*
X154950988Y-95765476D01*
X155093995Y-95717807D01*
X155189333Y-95717807D01*
X155332340Y-95765476D01*
X155380009Y-95813145D01*
X155809029Y-96337503D02*
X156571731Y-96337503D01*
X156953082Y-95717807D02*
X157572778Y-95717807D01*
X157239096Y-96099158D01*
X157382103Y-96099158D01*
X157477440Y-96146827D01*
X157525109Y-96194496D01*
X157572778Y-96289834D01*
X157572778Y-96528178D01*
X157525109Y-96623516D01*
X157477440Y-96671185D01*
X157382103Y-96718854D01*
X157096089Y-96718854D01*
X157000751Y-96671185D01*
X156953082Y-96623516D01*
X157954129Y-95813145D02*
X158001798Y-95765476D01*
X158097136Y-95717807D01*
X158335481Y-95717807D01*
X158430818Y-95765476D01*
X158478487Y-95813145D01*
X158526156Y-95908483D01*
X158526156Y-96003821D01*
X158478487Y-96146827D01*
X157906460Y-96718854D01*
X158526156Y-96718854D01*
X158955176Y-96718854D02*
X158955176Y-95717807D01*
X159193521Y-95717807D01*
X159336528Y-95765476D01*
X159431865Y-95860814D01*
X159479534Y-95956152D01*
X159527203Y-96146827D01*
X159527203Y-96289834D01*
X159479534Y-96480510D01*
X159431865Y-96575847D01*
X159336528Y-96671185D01*
X159193521Y-96718854D01*
X158955176Y-96718854D01*
%TO.C,D2*%
X98956904Y-69922380D02*
X98956904Y-68922380D01*
X99195000Y-68922380D01*
X99337857Y-68970000D01*
X99433095Y-69065238D01*
X99480714Y-69160476D01*
X99528333Y-69350952D01*
X99528333Y-69493809D01*
X99480714Y-69684285D01*
X99433095Y-69779523D01*
X99337857Y-69874761D01*
X99195000Y-69922380D01*
X98956904Y-69922380D01*
X99909285Y-69017619D02*
X99956904Y-68970000D01*
X100052142Y-68922380D01*
X100290238Y-68922380D01*
X100385476Y-68970000D01*
X100433095Y-69017619D01*
X100480714Y-69112857D01*
X100480714Y-69208095D01*
X100433095Y-69350952D01*
X99861666Y-69922380D01*
X100480714Y-69922380D01*
%TO.C,R3*%
X113117333Y-72842380D02*
X112784000Y-72366190D01*
X112545904Y-72842380D02*
X112545904Y-71842380D01*
X112926857Y-71842380D01*
X113022095Y-71890000D01*
X113069714Y-71937619D01*
X113117333Y-72032857D01*
X113117333Y-72175714D01*
X113069714Y-72270952D01*
X113022095Y-72318571D01*
X112926857Y-72366190D01*
X112545904Y-72366190D01*
X113450666Y-71842380D02*
X114069714Y-71842380D01*
X113736380Y-72223333D01*
X113879238Y-72223333D01*
X113974476Y-72270952D01*
X114022095Y-72318571D01*
X114069714Y-72413809D01*
X114069714Y-72651904D01*
X114022095Y-72747142D01*
X113974476Y-72794761D01*
X113879238Y-72842380D01*
X113593523Y-72842380D01*
X113498285Y-72794761D01*
X113450666Y-72747142D01*
%TO.C,J7*%
X127476666Y-55570380D02*
X127476666Y-54570380D01*
X127476666Y-55046571D02*
X128048095Y-55046571D01*
X128048095Y-55570380D02*
X128048095Y-54570380D01*
X129095714Y-55475142D02*
X129048095Y-55522761D01*
X128905238Y-55570380D01*
X128810000Y-55570380D01*
X128667142Y-55522761D01*
X128571904Y-55427523D01*
X128524285Y-55332285D01*
X128476666Y-55141809D01*
X128476666Y-54998952D01*
X128524285Y-54808476D01*
X128571904Y-54713238D01*
X128667142Y-54618000D01*
X128810000Y-54570380D01*
X128905238Y-54570380D01*
X129048095Y-54618000D01*
X129095714Y-54665619D01*
X129524285Y-55189428D02*
X130286190Y-55189428D01*
X130714761Y-55522761D02*
X130857619Y-55570380D01*
X131095714Y-55570380D01*
X131190952Y-55522761D01*
X131238571Y-55475142D01*
X131286190Y-55379904D01*
X131286190Y-55284666D01*
X131238571Y-55189428D01*
X131190952Y-55141809D01*
X131095714Y-55094190D01*
X130905238Y-55046571D01*
X130810000Y-54998952D01*
X130762380Y-54951333D01*
X130714761Y-54856095D01*
X130714761Y-54760857D01*
X130762380Y-54665619D01*
X130810000Y-54618000D01*
X130905238Y-54570380D01*
X131143333Y-54570380D01*
X131286190Y-54618000D01*
X132286190Y-55570380D02*
X131952857Y-55094190D01*
X131714761Y-55570380D02*
X131714761Y-54570380D01*
X132095714Y-54570380D01*
X132190952Y-54618000D01*
X132238571Y-54665619D01*
X132286190Y-54760857D01*
X132286190Y-54903714D01*
X132238571Y-54998952D01*
X132190952Y-55046571D01*
X132095714Y-55094190D01*
X131714761Y-55094190D01*
X132905238Y-54570380D02*
X133000476Y-54570380D01*
X133095714Y-54618000D01*
X133143333Y-54665619D01*
X133190952Y-54760857D01*
X133238571Y-54951333D01*
X133238571Y-55189428D01*
X133190952Y-55379904D01*
X133143333Y-55475142D01*
X133095714Y-55522761D01*
X133000476Y-55570380D01*
X132905238Y-55570380D01*
X132810000Y-55522761D01*
X132762380Y-55475142D01*
X132714761Y-55379904D01*
X132667142Y-55189428D01*
X132667142Y-54951333D01*
X132714761Y-54760857D01*
X132762380Y-54665619D01*
X132810000Y-54618000D01*
X132905238Y-54570380D01*
X134095714Y-54903714D02*
X134095714Y-55570380D01*
X133857619Y-54522761D02*
X133619523Y-55237047D01*
X134238571Y-55237047D01*
%TO.C,D4*%
X151661904Y-104592380D02*
X151661904Y-103592380D01*
X151900000Y-103592380D01*
X152042857Y-103640000D01*
X152138095Y-103735238D01*
X152185714Y-103830476D01*
X152233333Y-104020952D01*
X152233333Y-104163809D01*
X152185714Y-104354285D01*
X152138095Y-104449523D01*
X152042857Y-104544761D01*
X151900000Y-104592380D01*
X151661904Y-104592380D01*
X153090476Y-103925714D02*
X153090476Y-104592380D01*
X152852380Y-103544761D02*
X152614285Y-104259047D01*
X153233333Y-104259047D01*
X159472380Y-102584095D02*
X159472380Y-101965047D01*
X159853333Y-102298380D01*
X159853333Y-102155523D01*
X159900952Y-102060285D01*
X159948571Y-102012666D01*
X160043809Y-101965047D01*
X160281904Y-101965047D01*
X160377142Y-102012666D01*
X160424761Y-102060285D01*
X160472380Y-102155523D01*
X160472380Y-102441238D01*
X160424761Y-102536476D01*
X160377142Y-102584095D01*
X159472380Y-101679333D02*
X160472380Y-101346000D01*
X159472380Y-101012666D01*
X159472380Y-100774571D02*
X159472380Y-100155523D01*
X159853333Y-100488857D01*
X159853333Y-100346000D01*
X159900952Y-100250761D01*
X159948571Y-100203142D01*
X160043809Y-100155523D01*
X160281904Y-100155523D01*
X160377142Y-100203142D01*
X160424761Y-100250761D01*
X160472380Y-100346000D01*
X160472380Y-100631714D01*
X160424761Y-100726952D01*
X160377142Y-100774571D01*
X163520380Y-102568190D02*
X162520380Y-102568190D01*
X162520380Y-101901523D02*
X162520380Y-101711047D01*
X162568000Y-101615809D01*
X162663238Y-101520571D01*
X162853714Y-101472952D01*
X163187047Y-101472952D01*
X163377523Y-101520571D01*
X163472761Y-101615809D01*
X163520380Y-101711047D01*
X163520380Y-101901523D01*
X163472761Y-101996761D01*
X163377523Y-102092000D01*
X163187047Y-102139619D01*
X162853714Y-102139619D01*
X162663238Y-102092000D01*
X162568000Y-101996761D01*
X162520380Y-101901523D01*
X162615619Y-101092000D02*
X162568000Y-101044380D01*
X162520380Y-100949142D01*
X162520380Y-100711047D01*
X162568000Y-100615809D01*
X162615619Y-100568190D01*
X162710857Y-100520571D01*
X162806095Y-100520571D01*
X162948952Y-100568190D01*
X163520380Y-101139619D01*
X163520380Y-100520571D01*
X162520380Y-100187238D02*
X162520380Y-99520571D01*
X163520380Y-99949142D01*
X156980000Y-102107904D02*
X156932380Y-102203142D01*
X156932380Y-102346000D01*
X156980000Y-102488857D01*
X157075238Y-102584095D01*
X157170476Y-102631714D01*
X157360952Y-102679333D01*
X157503809Y-102679333D01*
X157694285Y-102631714D01*
X157789523Y-102584095D01*
X157884761Y-102488857D01*
X157932380Y-102346000D01*
X157932380Y-102250761D01*
X157884761Y-102107904D01*
X157837142Y-102060285D01*
X157503809Y-102060285D01*
X157503809Y-102250761D01*
X157932380Y-101631714D02*
X156932380Y-101631714D01*
X157932380Y-101060285D01*
X156932380Y-101060285D01*
X157932380Y-100584095D02*
X156932380Y-100584095D01*
X156932380Y-100346000D01*
X156980000Y-100203142D01*
X157075238Y-100107904D01*
X157170476Y-100060285D01*
X157360952Y-100012666D01*
X157503809Y-100012666D01*
X157694285Y-100060285D01*
X157789523Y-100107904D01*
X157884761Y-100203142D01*
X157932380Y-100346000D01*
X157932380Y-100584095D01*
%TO.C,D5*%
X151661904Y-107132380D02*
X151661904Y-106132380D01*
X151900000Y-106132380D01*
X152042857Y-106180000D01*
X152138095Y-106275238D01*
X152185714Y-106370476D01*
X152233333Y-106560952D01*
X152233333Y-106703809D01*
X152185714Y-106894285D01*
X152138095Y-106989523D01*
X152042857Y-107084761D01*
X151900000Y-107132380D01*
X151661904Y-107132380D01*
X153138095Y-106132380D02*
X152661904Y-106132380D01*
X152614285Y-106608571D01*
X152661904Y-106560952D01*
X152757142Y-106513333D01*
X152995238Y-106513333D01*
X153090476Y-106560952D01*
X153138095Y-106608571D01*
X153185714Y-106703809D01*
X153185714Y-106941904D01*
X153138095Y-107037142D01*
X153090476Y-107084761D01*
X152995238Y-107132380D01*
X152757142Y-107132380D01*
X152661904Y-107084761D01*
X152614285Y-107037142D01*
%TO.C,R4*%
X113117333Y-70302380D02*
X112784000Y-69826190D01*
X112545904Y-70302380D02*
X112545904Y-69302380D01*
X112926857Y-69302380D01*
X113022095Y-69350000D01*
X113069714Y-69397619D01*
X113117333Y-69492857D01*
X113117333Y-69635714D01*
X113069714Y-69730952D01*
X113022095Y-69778571D01*
X112926857Y-69826190D01*
X112545904Y-69826190D01*
X113974476Y-69635714D02*
X113974476Y-70302380D01*
X113736380Y-69254761D02*
X113498285Y-69969047D01*
X114117333Y-69969047D01*
%TO.C,J1*%
X103776666Y-100847380D02*
X103776666Y-101561666D01*
X103729047Y-101704523D01*
X103633809Y-101799761D01*
X103490952Y-101847380D01*
X103395714Y-101847380D01*
X104776666Y-101847380D02*
X104205238Y-101847380D01*
X104490952Y-101847380D02*
X104490952Y-100847380D01*
X104395714Y-100990238D01*
X104300476Y-101085476D01*
X104205238Y-101133095D01*
X99663809Y-113434761D02*
X99806666Y-113482380D01*
X100044761Y-113482380D01*
X100140000Y-113434761D01*
X100187619Y-113387142D01*
X100235238Y-113291904D01*
X100235238Y-113196666D01*
X100187619Y-113101428D01*
X100140000Y-113053809D01*
X100044761Y-113006190D01*
X99854285Y-112958571D01*
X99759047Y-112910952D01*
X99711428Y-112863333D01*
X99663809Y-112768095D01*
X99663809Y-112672857D01*
X99711428Y-112577619D01*
X99759047Y-112530000D01*
X99854285Y-112482380D01*
X100092380Y-112482380D01*
X100235238Y-112530000D01*
X100616190Y-113196666D02*
X101092380Y-113196666D01*
X100520952Y-113482380D02*
X100854285Y-112482380D01*
X101187619Y-113482380D01*
X101997142Y-113482380D02*
X101520952Y-113482380D01*
X101520952Y-112482380D01*
X102330476Y-113482380D02*
X102330476Y-112482380D01*
X102806666Y-113482380D02*
X102806666Y-112482380D01*
X103044761Y-112482380D01*
X103187619Y-112530000D01*
X103282857Y-112625238D01*
X103330476Y-112720476D01*
X103378095Y-112910952D01*
X103378095Y-113053809D01*
X103330476Y-113244285D01*
X103282857Y-113339523D01*
X103187619Y-113434761D01*
X103044761Y-113482380D01*
X102806666Y-113482380D01*
X103759047Y-113196666D02*
X104235238Y-113196666D01*
X103663809Y-113482380D02*
X103997142Y-112482380D01*
X104330476Y-113482380D01*
X105997142Y-113482380D02*
X105663809Y-113006190D01*
X105425714Y-113482380D02*
X105425714Y-112482380D01*
X105806666Y-112482380D01*
X105901904Y-112530000D01*
X105949523Y-112577619D01*
X105997142Y-112672857D01*
X105997142Y-112815714D01*
X105949523Y-112910952D01*
X105901904Y-112958571D01*
X105806666Y-113006190D01*
X105425714Y-113006190D01*
X106425714Y-112958571D02*
X106759047Y-112958571D01*
X106901904Y-113482380D02*
X106425714Y-113482380D01*
X106425714Y-112482380D01*
X106901904Y-112482380D01*
X107806666Y-113482380D02*
X107330476Y-113482380D01*
X107330476Y-112482380D01*
X108140000Y-112958571D02*
X108473333Y-112958571D01*
X108616190Y-113482380D02*
X108140000Y-113482380D01*
X108140000Y-112482380D01*
X108616190Y-112482380D01*
%TO.C,J6*%
X157900952Y-108148380D02*
X157900952Y-107148380D01*
X158139047Y-107148380D01*
X158281904Y-107196000D01*
X158377142Y-107291238D01*
X158424761Y-107386476D01*
X158472380Y-107576952D01*
X158472380Y-107719809D01*
X158424761Y-107910285D01*
X158377142Y-108005523D01*
X158281904Y-108100761D01*
X158139047Y-108148380D01*
X157900952Y-108148380D01*
X158900952Y-108148380D02*
X158900952Y-107148380D01*
X158900952Y-107624571D02*
X159472380Y-107624571D01*
X159472380Y-108148380D02*
X159472380Y-107148380D01*
X159805714Y-107148380D02*
X160377142Y-107148380D01*
X160091428Y-108148380D02*
X160091428Y-107148380D01*
X161234285Y-108148380D02*
X160662857Y-108148380D01*
X160948571Y-108148380D02*
X160948571Y-107148380D01*
X160853333Y-107291238D01*
X160758095Y-107386476D01*
X160662857Y-107434095D01*
X162186666Y-108148380D02*
X161615238Y-108148380D01*
X161900952Y-108148380D02*
X161900952Y-107148380D01*
X161805714Y-107291238D01*
X161710476Y-107386476D01*
X161615238Y-107434095D01*
D13*
%TO.C,J8*%
X123130000Y-59690000D02*
X125790000Y-59690000D01*
X123130000Y-62290000D02*
X125790000Y-62290000D01*
X123130000Y-59690000D02*
X123130000Y-62290000D01*
X123130000Y-57090000D02*
X124460000Y-57090000D01*
X123130000Y-58420000D02*
X123130000Y-57090000D01*
X125790000Y-59690000D02*
X125790000Y-62290000D01*
%TO.C,J2*%
X94996000Y-56642000D02*
X102616000Y-56642000D01*
X102616000Y-56642000D02*
X102616000Y-46482000D01*
X102616000Y-46482000D02*
X94996000Y-46482000D01*
X96266000Y-56642000D02*
X96266000Y-46482000D01*
X94996000Y-46482000D02*
X94996000Y-56642000D01*
%TO.C,Q1*%
X131140000Y-98682400D02*
X131140000Y-102282400D01*
X131151522Y-102320878D02*
G75*
G03*
X135590000Y-100482400I1838478J1838478D01*
G01*
X135590001Y-100482400D02*
G75*
G03*
X131151522Y-98643922I-2600001J0D01*
G01*
%TO.C,U2*%
X123205000Y-99120000D02*
X128345000Y-99120000D01*
X123205000Y-99120000D02*
X123205000Y-96460000D01*
X120605000Y-99120000D02*
X120605000Y-97790000D01*
X121935000Y-99120000D02*
X120605000Y-99120000D01*
X128345000Y-99120000D02*
X128345000Y-96460000D01*
X123205000Y-96460000D02*
X128345000Y-96460000D01*
%TO.C,U3*%
X110644000Y-44151000D02*
X110644000Y-64591000D01*
X115944000Y-64591000D02*
X115944000Y-44151000D01*
X115944000Y-44151000D02*
X114294000Y-44151000D01*
X110644000Y-64591000D02*
X115944000Y-64591000D01*
X112294000Y-44151000D02*
X110644000Y-44151000D01*
X112294000Y-44151000D02*
G75*
G03*
X114294000Y-44151000I1000000J0D01*
G01*
%TO.C,R5*%
X145452064Y-103405000D02*
X144997936Y-103405000D01*
X145452064Y-104875000D02*
X144997936Y-104875000D01*
%TO.C,D6*%
X150352000Y-108260000D02*
X147667000Y-108260000D01*
X147667000Y-108260000D02*
X147667000Y-110180000D01*
X147667000Y-110180000D02*
X150352000Y-110180000D01*
%TO.C,REF\u002A\u002A*%
G36*
X174739032Y-94765161D02*
G01*
X174756543Y-94769896D01*
X174769614Y-94780959D01*
X174778953Y-94800944D01*
X174785267Y-94832446D01*
X174789262Y-94878060D01*
X174791646Y-94940379D01*
X174793126Y-95021999D01*
X174793454Y-95047015D01*
X174796507Y-95289092D01*
X174861418Y-95292478D01*
X174926329Y-95295863D01*
X174926329Y-95127716D01*
X174926571Y-95062026D01*
X174927596Y-95015120D01*
X174929851Y-94983209D01*
X174933782Y-94962501D01*
X174939838Y-94949208D01*
X174948464Y-94939537D01*
X174948533Y-94939475D01*
X174982152Y-94921936D01*
X175018488Y-94922570D01*
X175049463Y-94940978D01*
X175052647Y-94944621D01*
X175060852Y-94957551D01*
X175066561Y-94975268D01*
X175070202Y-95001722D01*
X175072207Y-95040860D01*
X175073004Y-95096630D01*
X175073085Y-95132298D01*
X175073085Y-95294737D01*
X175231129Y-95294737D01*
X175231129Y-95048131D01*
X175231271Y-94966712D01*
X175231854Y-94904882D01*
X175233108Y-94859655D01*
X175235267Y-94828044D01*
X175238563Y-94807061D01*
X175243229Y-94793719D01*
X175249497Y-94785031D01*
X175251773Y-94782842D01*
X175283320Y-94766678D01*
X175319208Y-94765495D01*
X175350325Y-94778756D01*
X175360311Y-94789249D01*
X175365809Y-94800163D01*
X175370062Y-94817075D01*
X175373220Y-94842659D01*
X175375432Y-94879591D01*
X175376846Y-94930546D01*
X175377612Y-94998198D01*
X175377878Y-95085223D01*
X175377885Y-95104898D01*
X175377827Y-95193381D01*
X175377507Y-95262065D01*
X175376707Y-95313728D01*
X175375207Y-95351147D01*
X175372789Y-95377102D01*
X175369234Y-95394370D01*
X175364322Y-95405730D01*
X175357835Y-95413960D01*
X175353178Y-95418475D01*
X175344929Y-95425271D01*
X175334709Y-95430580D01*
X175319840Y-95434586D01*
X175297642Y-95437471D01*
X175265433Y-95439418D01*
X175220536Y-95440611D01*
X175160268Y-95441231D01*
X175081951Y-95441463D01*
X175016034Y-95441492D01*
X174923668Y-95441421D01*
X174851157Y-95441084D01*
X174795777Y-95440294D01*
X174754805Y-95438866D01*
X174725518Y-95436613D01*
X174705193Y-95433349D01*
X174691106Y-95428888D01*
X174680535Y-95423044D01*
X174673851Y-95418095D01*
X174644107Y-95394698D01*
X174644107Y-95104518D01*
X174644300Y-95007949D01*
X174645214Y-94931591D01*
X174647351Y-94873075D01*
X174651215Y-94830037D01*
X174657307Y-94800109D01*
X174666130Y-94780924D01*
X174678186Y-94770116D01*
X174693979Y-94765319D01*
X174714010Y-94764165D01*
X174716375Y-94764159D01*
X174739032Y-94765161D01*
G37*
D14*
X174739032Y-94765161D02*
X174756543Y-94769896D01*
X174769614Y-94780959D01*
X174778953Y-94800944D01*
X174785267Y-94832446D01*
X174789262Y-94878060D01*
X174791646Y-94940379D01*
X174793126Y-95021999D01*
X174793454Y-95047015D01*
X174796507Y-95289092D01*
X174861418Y-95292478D01*
X174926329Y-95295863D01*
X174926329Y-95127716D01*
X174926571Y-95062026D01*
X174927596Y-95015120D01*
X174929851Y-94983209D01*
X174933782Y-94962501D01*
X174939838Y-94949208D01*
X174948464Y-94939537D01*
X174948533Y-94939475D01*
X174982152Y-94921936D01*
X175018488Y-94922570D01*
X175049463Y-94940978D01*
X175052647Y-94944621D01*
X175060852Y-94957551D01*
X175066561Y-94975268D01*
X175070202Y-95001722D01*
X175072207Y-95040860D01*
X175073004Y-95096630D01*
X175073085Y-95132298D01*
X175073085Y-95294737D01*
X175231129Y-95294737D01*
X175231129Y-95048131D01*
X175231271Y-94966712D01*
X175231854Y-94904882D01*
X175233108Y-94859655D01*
X175235267Y-94828044D01*
X175238563Y-94807061D01*
X175243229Y-94793719D01*
X175249497Y-94785031D01*
X175251773Y-94782842D01*
X175283320Y-94766678D01*
X175319208Y-94765495D01*
X175350325Y-94778756D01*
X175360311Y-94789249D01*
X175365809Y-94800163D01*
X175370062Y-94817075D01*
X175373220Y-94842659D01*
X175375432Y-94879591D01*
X175376846Y-94930546D01*
X175377612Y-94998198D01*
X175377878Y-95085223D01*
X175377885Y-95104898D01*
X175377827Y-95193381D01*
X175377507Y-95262065D01*
X175376707Y-95313728D01*
X175375207Y-95351147D01*
X175372789Y-95377102D01*
X175369234Y-95394370D01*
X175364322Y-95405730D01*
X175357835Y-95413960D01*
X175353178Y-95418475D01*
X175344929Y-95425271D01*
X175334709Y-95430580D01*
X175319840Y-95434586D01*
X175297642Y-95437471D01*
X175265433Y-95439418D01*
X175220536Y-95440611D01*
X175160268Y-95441231D01*
X175081951Y-95441463D01*
X175016034Y-95441492D01*
X174923668Y-95441421D01*
X174851157Y-95441084D01*
X174795777Y-95440294D01*
X174754805Y-95438866D01*
X174725518Y-95436613D01*
X174705193Y-95433349D01*
X174691106Y-95428888D01*
X174680535Y-95423044D01*
X174673851Y-95418095D01*
X174644107Y-95394698D01*
X174644107Y-95104518D01*
X174644300Y-95007949D01*
X174645214Y-94931591D01*
X174647351Y-94873075D01*
X174651215Y-94830037D01*
X174657307Y-94800109D01*
X174666130Y-94780924D01*
X174678186Y-94770116D01*
X174693979Y-94765319D01*
X174714010Y-94764165D01*
X174716375Y-94764159D01*
X174739032Y-94765161D01*
G36*
X174717401Y-91429296D02*
G01*
X174735935Y-91433331D01*
X174762297Y-91442146D01*
X174798792Y-91456623D01*
X174847727Y-91477647D01*
X174911405Y-91506104D01*
X174992133Y-91542877D01*
X175036256Y-91563117D01*
X175115025Y-91599667D01*
X175187463Y-91633977D01*
X175250920Y-91664740D01*
X175302748Y-91690644D01*
X175340299Y-91710382D01*
X175360924Y-91722642D01*
X175363773Y-91725068D01*
X175376342Y-91756109D01*
X175374659Y-91791171D01*
X175359372Y-91819292D01*
X175358129Y-91820438D01*
X175341194Y-91831624D01*
X175308210Y-91850388D01*
X175263420Y-91874417D01*
X175211072Y-91901395D01*
X175191782Y-91911091D01*
X175045190Y-91984278D01*
X175204433Y-92064052D01*
X175259455Y-92092525D01*
X175307172Y-92118942D01*
X175343933Y-92141144D01*
X175366084Y-92156973D01*
X175370781Y-92162338D01*
X175377142Y-92204035D01*
X175363773Y-92238443D01*
X175349486Y-92248564D01*
X175317732Y-92266078D01*
X175271637Y-92289557D01*
X175214325Y-92317572D01*
X175148920Y-92348693D01*
X175078547Y-92381493D01*
X175006331Y-92414542D01*
X174935395Y-92446411D01*
X174868865Y-92475673D01*
X174809866Y-92500897D01*
X174761521Y-92520656D01*
X174726955Y-92533520D01*
X174709293Y-92538061D01*
X174708653Y-92538015D01*
X174686428Y-92526966D01*
X174663793Y-92504882D01*
X174662808Y-92503582D01*
X174647465Y-92476439D01*
X174647614Y-92451334D01*
X174650506Y-92441924D01*
X174656758Y-92430458D01*
X174669054Y-92418282D01*
X174689948Y-92403935D01*
X174721989Y-92385956D01*
X174767728Y-92362885D01*
X174829717Y-92333262D01*
X174886938Y-92306547D01*
X174953266Y-92275812D01*
X175012914Y-92248271D01*
X175062765Y-92225354D01*
X175099704Y-92208494D01*
X175120613Y-92199119D01*
X175123885Y-92197752D01*
X175118537Y-92191603D01*
X175096149Y-92177470D01*
X175059986Y-92157235D01*
X175013317Y-92132777D01*
X174994062Y-92123044D01*
X174929044Y-92090075D01*
X174881694Y-92064649D01*
X174849259Y-92044680D01*
X174828986Y-92028082D01*
X174818122Y-92012768D01*
X174813915Y-91996652D01*
X174813440Y-91986149D01*
X174815082Y-91967622D01*
X174821871Y-91951388D01*
X174836606Y-91935257D01*
X174862084Y-91917041D01*
X174901101Y-91894553D01*
X174956454Y-91865603D01*
X174987943Y-91849630D01*
X175038127Y-91823722D01*
X175079744Y-91801125D01*
X175109282Y-91783834D01*
X175123229Y-91773842D01*
X175123810Y-91772483D01*
X175112833Y-91766031D01*
X175084330Y-91751584D01*
X175041284Y-91730589D01*
X174986678Y-91704495D01*
X174923494Y-91674746D01*
X174892111Y-91660112D01*
X174811118Y-91622042D01*
X174748796Y-91591387D01*
X174703111Y-91566555D01*
X174672029Y-91545955D01*
X174653518Y-91527994D01*
X174645544Y-91511082D01*
X174646074Y-91493627D01*
X174653075Y-91474037D01*
X174653417Y-91473282D01*
X174673718Y-91446679D01*
X174694601Y-91432022D01*
X174704392Y-91429154D01*
X174717401Y-91429296D01*
G37*
X174717401Y-91429296D02*
X174735935Y-91433331D01*
X174762297Y-91442146D01*
X174798792Y-91456623D01*
X174847727Y-91477647D01*
X174911405Y-91506104D01*
X174992133Y-91542877D01*
X175036256Y-91563117D01*
X175115025Y-91599667D01*
X175187463Y-91633977D01*
X175250920Y-91664740D01*
X175302748Y-91690644D01*
X175340299Y-91710382D01*
X175360924Y-91722642D01*
X175363773Y-91725068D01*
X175376342Y-91756109D01*
X175374659Y-91791171D01*
X175359372Y-91819292D01*
X175358129Y-91820438D01*
X175341194Y-91831624D01*
X175308210Y-91850388D01*
X175263420Y-91874417D01*
X175211072Y-91901395D01*
X175191782Y-91911091D01*
X175045190Y-91984278D01*
X175204433Y-92064052D01*
X175259455Y-92092525D01*
X175307172Y-92118942D01*
X175343933Y-92141144D01*
X175366084Y-92156973D01*
X175370781Y-92162338D01*
X175377142Y-92204035D01*
X175363773Y-92238443D01*
X175349486Y-92248564D01*
X175317732Y-92266078D01*
X175271637Y-92289557D01*
X175214325Y-92317572D01*
X175148920Y-92348693D01*
X175078547Y-92381493D01*
X175006331Y-92414542D01*
X174935395Y-92446411D01*
X174868865Y-92475673D01*
X174809866Y-92500897D01*
X174761521Y-92520656D01*
X174726955Y-92533520D01*
X174709293Y-92538061D01*
X174708653Y-92538015D01*
X174686428Y-92526966D01*
X174663793Y-92504882D01*
X174662808Y-92503582D01*
X174647465Y-92476439D01*
X174647614Y-92451334D01*
X174650506Y-92441924D01*
X174656758Y-92430458D01*
X174669054Y-92418282D01*
X174689948Y-92403935D01*
X174721989Y-92385956D01*
X174767728Y-92362885D01*
X174829717Y-92333262D01*
X174886938Y-92306547D01*
X174953266Y-92275812D01*
X175012914Y-92248271D01*
X175062765Y-92225354D01*
X175099704Y-92208494D01*
X175120613Y-92199119D01*
X175123885Y-92197752D01*
X175118537Y-92191603D01*
X175096149Y-92177470D01*
X175059986Y-92157235D01*
X175013317Y-92132777D01*
X174994062Y-92123044D01*
X174929044Y-92090075D01*
X174881694Y-92064649D01*
X174849259Y-92044680D01*
X174828986Y-92028082D01*
X174818122Y-92012768D01*
X174813915Y-91996652D01*
X174813440Y-91986149D01*
X174815082Y-91967622D01*
X174821871Y-91951388D01*
X174836606Y-91935257D01*
X174862084Y-91917041D01*
X174901101Y-91894553D01*
X174956454Y-91865603D01*
X174987943Y-91849630D01*
X175038127Y-91823722D01*
X175079744Y-91801125D01*
X175109282Y-91783834D01*
X175123229Y-91773842D01*
X175123810Y-91772483D01*
X175112833Y-91766031D01*
X175084330Y-91751584D01*
X175041284Y-91730589D01*
X174986678Y-91704495D01*
X174923494Y-91674746D01*
X174892111Y-91660112D01*
X174811118Y-91622042D01*
X174748796Y-91591387D01*
X174703111Y-91566555D01*
X174672029Y-91545955D01*
X174653518Y-91527994D01*
X174645544Y-91511082D01*
X174646074Y-91493627D01*
X174653075Y-91474037D01*
X174653417Y-91473282D01*
X174673718Y-91446679D01*
X174694601Y-91432022D01*
X174704392Y-91429154D01*
X174717401Y-91429296D01*
G36*
X175333707Y-99705255D02*
G01*
X175355307Y-99719981D01*
X175362106Y-99727838D01*
X175367386Y-99737980D01*
X175371338Y-99753136D01*
X175374153Y-99776033D01*
X175376022Y-99809401D01*
X175377138Y-99855967D01*
X175377691Y-99918459D01*
X175377873Y-99999606D01*
X175377885Y-100041714D01*
X175377805Y-100131890D01*
X175377438Y-100202216D01*
X175376592Y-100255421D01*
X175375076Y-100294232D01*
X175372699Y-100321379D01*
X175369269Y-100339590D01*
X175364594Y-100351592D01*
X175358484Y-100360114D01*
X175355307Y-100363448D01*
X175347710Y-100370047D01*
X175337910Y-100375219D01*
X175323279Y-100379138D01*
X175301192Y-100381976D01*
X175269022Y-100383907D01*
X175224143Y-100385104D01*
X175163929Y-100385740D01*
X175085753Y-100385989D01*
X175012963Y-100386026D01*
X174919747Y-100385992D01*
X174846471Y-100385757D01*
X174790498Y-100385122D01*
X174749191Y-100383886D01*
X174719912Y-100381848D01*
X174700024Y-100378809D01*
X174686890Y-100374569D01*
X174677872Y-100368927D01*
X174670333Y-100361683D01*
X174668652Y-100359898D01*
X174661212Y-100351237D01*
X174655449Y-100341174D01*
X174651152Y-100326917D01*
X174648104Y-100305675D01*
X174646091Y-100274656D01*
X174644900Y-100231069D01*
X174644315Y-100172123D01*
X174644123Y-100095026D01*
X174644107Y-100040293D01*
X174644186Y-99951086D01*
X174644558Y-99881678D01*
X174645425Y-99829289D01*
X174646986Y-99791139D01*
X174649443Y-99764451D01*
X174652997Y-99746445D01*
X174657850Y-99734341D01*
X174664201Y-99725361D01*
X174667124Y-99722110D01*
X174698182Y-99702335D01*
X174733868Y-99698774D01*
X174765550Y-99711783D01*
X174771953Y-99717798D01*
X174778161Y-99727527D01*
X174782950Y-99743193D01*
X174786554Y-99767700D01*
X174789204Y-99803953D01*
X174791135Y-99854857D01*
X174792579Y-99923318D01*
X174793458Y-99985909D01*
X174796507Y-100233626D01*
X174861418Y-100237011D01*
X174926329Y-100240397D01*
X174926329Y-100072250D01*
X174926959Y-99999251D01*
X174929593Y-99945809D01*
X174935349Y-99908920D01*
X174945344Y-99885580D01*
X174960696Y-99872786D01*
X174982522Y-99867534D01*
X175002778Y-99866737D01*
X175027632Y-99869215D01*
X175045946Y-99878569D01*
X175058677Y-99897675D01*
X175066781Y-99929410D01*
X175071216Y-99976651D01*
X175072939Y-100042275D01*
X175073085Y-100078093D01*
X175073085Y-100239270D01*
X175231129Y-100239270D01*
X175231129Y-99990914D01*
X175231242Y-99909505D01*
X175231752Y-99847634D01*
X175232910Y-99802260D01*
X175234970Y-99770346D01*
X175238186Y-99748851D01*
X175242812Y-99734735D01*
X175249099Y-99724960D01*
X175253707Y-99719981D01*
X175280600Y-99702902D01*
X175304507Y-99697403D01*
X175333707Y-99705255D01*
G37*
X175333707Y-99705255D02*
X175355307Y-99719981D01*
X175362106Y-99727838D01*
X175367386Y-99737980D01*
X175371338Y-99753136D01*
X175374153Y-99776033D01*
X175376022Y-99809401D01*
X175377138Y-99855967D01*
X175377691Y-99918459D01*
X175377873Y-99999606D01*
X175377885Y-100041714D01*
X175377805Y-100131890D01*
X175377438Y-100202216D01*
X175376592Y-100255421D01*
X175375076Y-100294232D01*
X175372699Y-100321379D01*
X175369269Y-100339590D01*
X175364594Y-100351592D01*
X175358484Y-100360114D01*
X175355307Y-100363448D01*
X175347710Y-100370047D01*
X175337910Y-100375219D01*
X175323279Y-100379138D01*
X175301192Y-100381976D01*
X175269022Y-100383907D01*
X175224143Y-100385104D01*
X175163929Y-100385740D01*
X175085753Y-100385989D01*
X175012963Y-100386026D01*
X174919747Y-100385992D01*
X174846471Y-100385757D01*
X174790498Y-100385122D01*
X174749191Y-100383886D01*
X174719912Y-100381848D01*
X174700024Y-100378809D01*
X174686890Y-100374569D01*
X174677872Y-100368927D01*
X174670333Y-100361683D01*
X174668652Y-100359898D01*
X174661212Y-100351237D01*
X174655449Y-100341174D01*
X174651152Y-100326917D01*
X174648104Y-100305675D01*
X174646091Y-100274656D01*
X174644900Y-100231069D01*
X174644315Y-100172123D01*
X174644123Y-100095026D01*
X174644107Y-100040293D01*
X174644186Y-99951086D01*
X174644558Y-99881678D01*
X174645425Y-99829289D01*
X174646986Y-99791139D01*
X174649443Y-99764451D01*
X174652997Y-99746445D01*
X174657850Y-99734341D01*
X174664201Y-99725361D01*
X174667124Y-99722110D01*
X174698182Y-99702335D01*
X174733868Y-99698774D01*
X174765550Y-99711783D01*
X174771953Y-99717798D01*
X174778161Y-99727527D01*
X174782950Y-99743193D01*
X174786554Y-99767700D01*
X174789204Y-99803953D01*
X174791135Y-99854857D01*
X174792579Y-99923318D01*
X174793458Y-99985909D01*
X174796507Y-100233626D01*
X174861418Y-100237011D01*
X174926329Y-100240397D01*
X174926329Y-100072250D01*
X174926959Y-99999251D01*
X174929593Y-99945809D01*
X174935349Y-99908920D01*
X174945344Y-99885580D01*
X174960696Y-99872786D01*
X174982522Y-99867534D01*
X175002778Y-99866737D01*
X175027632Y-99869215D01*
X175045946Y-99878569D01*
X175058677Y-99897675D01*
X175066781Y-99929410D01*
X175071216Y-99976651D01*
X175072939Y-100042275D01*
X175073085Y-100078093D01*
X175073085Y-100239270D01*
X175231129Y-100239270D01*
X175231129Y-99990914D01*
X175231242Y-99909505D01*
X175231752Y-99847634D01*
X175232910Y-99802260D01*
X175234970Y-99770346D01*
X175238186Y-99748851D01*
X175242812Y-99734735D01*
X175249099Y-99724960D01*
X175253707Y-99719981D01*
X175280600Y-99702902D01*
X175304507Y-99697403D01*
X175333707Y-99705255D01*
G36*
X171654901Y-90580353D02*
G01*
X171451040Y-90557080D01*
X171266361Y-90521496D01*
X171097896Y-90472987D01*
X170942674Y-90410940D01*
X170896656Y-90388799D01*
X170746587Y-90299615D01*
X170613225Y-90191841D01*
X170498725Y-90068010D01*
X170405237Y-89930658D01*
X170334916Y-89782317D01*
X170305908Y-89693396D01*
X170288688Y-89606067D01*
X170278442Y-89500989D01*
X170275166Y-89386971D01*
X170278857Y-89272823D01*
X170289508Y-89167352D01*
X170305083Y-89088419D01*
X170989643Y-89088419D01*
X171000655Y-89188776D01*
X171032029Y-89279613D01*
X171083588Y-89356993D01*
X171108336Y-89381961D01*
X171189425Y-89442144D01*
X171287582Y-89490855D01*
X171404491Y-89528501D01*
X171541833Y-89555488D01*
X171701292Y-89572225D01*
X171884548Y-89579117D01*
X171924100Y-89579350D01*
X172098070Y-89574556D01*
X172247743Y-89559432D01*
X172374445Y-89533515D01*
X172479506Y-89496337D01*
X172564254Y-89447435D01*
X172630017Y-89386342D01*
X172676507Y-89315823D01*
X172693862Y-89279129D01*
X172704267Y-89247304D01*
X172709027Y-89211823D01*
X172709449Y-89164159D01*
X172707596Y-89112811D01*
X172698689Y-89011831D01*
X172681246Y-88931965D01*
X172672509Y-88906865D01*
X172646705Y-88849552D01*
X172614301Y-88789103D01*
X172598081Y-88762703D01*
X172553053Y-88694054D01*
X171125830Y-88694054D01*
X171080566Y-88769568D01*
X171029420Y-88874879D01*
X170999172Y-88982475D01*
X170989643Y-89088419D01*
X170305083Y-89088419D01*
X170306218Y-89082666D01*
X170338988Y-88981872D01*
X170381127Y-88884178D01*
X170428367Y-88798704D01*
X170460429Y-88753211D01*
X170484270Y-88721831D01*
X170498787Y-88699858D01*
X170500848Y-88694859D01*
X170487566Y-88693310D01*
X170449511Y-88691865D01*
X170389367Y-88690557D01*
X170309821Y-88689417D01*
X170213559Y-88688479D01*
X170103267Y-88687774D01*
X169981629Y-88687333D01*
X169857733Y-88687189D01*
X169699044Y-88687270D01*
X169565256Y-88687665D01*
X169453808Y-88688605D01*
X169362143Y-88690320D01*
X169287701Y-88693043D01*
X169227923Y-88697003D01*
X169180250Y-88702431D01*
X169142122Y-88709559D01*
X169110982Y-88718616D01*
X169084269Y-88729833D01*
X169059425Y-88743442D01*
X169033891Y-88759672D01*
X169030729Y-88761760D01*
X168997658Y-88782694D01*
X168974917Y-88795333D01*
X168970120Y-88797027D01*
X168968607Y-88783784D01*
X168967376Y-88745998D01*
X168966447Y-88686584D01*
X168965840Y-88608458D01*
X168965575Y-88514535D01*
X168965673Y-88407730D01*
X168966152Y-88290959D01*
X168966393Y-88251271D01*
X168969983Y-87705514D01*
X171063767Y-87698649D01*
X171347690Y-87697742D01*
X171605488Y-87696938D01*
X171838494Y-87696185D01*
X172048042Y-87695431D01*
X172235466Y-87694625D01*
X172402098Y-87693715D01*
X172549273Y-87692649D01*
X172678325Y-87691376D01*
X172790587Y-87689844D01*
X172887392Y-87688002D01*
X172970074Y-87685797D01*
X173039967Y-87683178D01*
X173098405Y-87680094D01*
X173146720Y-87676492D01*
X173186248Y-87672322D01*
X173218321Y-87667531D01*
X173244272Y-87662069D01*
X173265437Y-87655882D01*
X173283147Y-87648920D01*
X173298737Y-87641131D01*
X173313541Y-87632463D01*
X173328892Y-87622865D01*
X173346124Y-87612285D01*
X173349794Y-87610116D01*
X173411879Y-87573732D01*
X173408282Y-88099569D01*
X173404686Y-88625406D01*
X173289179Y-88632271D01*
X173233747Y-88636008D01*
X173201699Y-88639903D01*
X173188983Y-88645189D01*
X173191544Y-88653097D01*
X173198872Y-88659730D01*
X173225562Y-88688626D01*
X173259869Y-88735721D01*
X173297694Y-88794380D01*
X173334938Y-88857969D01*
X173367501Y-88919851D01*
X173388925Y-88967366D01*
X173424131Y-89078684D01*
X173449070Y-89206404D01*
X173462789Y-89341099D01*
X173464334Y-89473337D01*
X173452754Y-89593692D01*
X173452422Y-89595674D01*
X173411098Y-89760359D01*
X173345260Y-89914521D01*
X173256322Y-90056672D01*
X173145700Y-90185325D01*
X173014809Y-90298993D01*
X172865064Y-90396190D01*
X172697881Y-90475428D01*
X172574038Y-90518570D01*
X172470429Y-90547021D01*
X172370100Y-90568120D01*
X172266957Y-90582512D01*
X172154905Y-90590842D01*
X172027849Y-90593755D01*
X171924100Y-90592465D01*
X171880915Y-90591927D01*
X171654901Y-90580353D01*
G37*
X171654901Y-90580353D02*
X171451040Y-90557080D01*
X171266361Y-90521496D01*
X171097896Y-90472987D01*
X170942674Y-90410940D01*
X170896656Y-90388799D01*
X170746587Y-90299615D01*
X170613225Y-90191841D01*
X170498725Y-90068010D01*
X170405237Y-89930658D01*
X170334916Y-89782317D01*
X170305908Y-89693396D01*
X170288688Y-89606067D01*
X170278442Y-89500989D01*
X170275166Y-89386971D01*
X170278857Y-89272823D01*
X170289508Y-89167352D01*
X170305083Y-89088419D01*
X170989643Y-89088419D01*
X171000655Y-89188776D01*
X171032029Y-89279613D01*
X171083588Y-89356993D01*
X171108336Y-89381961D01*
X171189425Y-89442144D01*
X171287582Y-89490855D01*
X171404491Y-89528501D01*
X171541833Y-89555488D01*
X171701292Y-89572225D01*
X171884548Y-89579117D01*
X171924100Y-89579350D01*
X172098070Y-89574556D01*
X172247743Y-89559432D01*
X172374445Y-89533515D01*
X172479506Y-89496337D01*
X172564254Y-89447435D01*
X172630017Y-89386342D01*
X172676507Y-89315823D01*
X172693862Y-89279129D01*
X172704267Y-89247304D01*
X172709027Y-89211823D01*
X172709449Y-89164159D01*
X172707596Y-89112811D01*
X172698689Y-89011831D01*
X172681246Y-88931965D01*
X172672509Y-88906865D01*
X172646705Y-88849552D01*
X172614301Y-88789103D01*
X172598081Y-88762703D01*
X172553053Y-88694054D01*
X171125830Y-88694054D01*
X171080566Y-88769568D01*
X171029420Y-88874879D01*
X170999172Y-88982475D01*
X170989643Y-89088419D01*
X170305083Y-89088419D01*
X170306218Y-89082666D01*
X170338988Y-88981872D01*
X170381127Y-88884178D01*
X170428367Y-88798704D01*
X170460429Y-88753211D01*
X170484270Y-88721831D01*
X170498787Y-88699858D01*
X170500848Y-88694859D01*
X170487566Y-88693310D01*
X170449511Y-88691865D01*
X170389367Y-88690557D01*
X170309821Y-88689417D01*
X170213559Y-88688479D01*
X170103267Y-88687774D01*
X169981629Y-88687333D01*
X169857733Y-88687189D01*
X169699044Y-88687270D01*
X169565256Y-88687665D01*
X169453808Y-88688605D01*
X169362143Y-88690320D01*
X169287701Y-88693043D01*
X169227923Y-88697003D01*
X169180250Y-88702431D01*
X169142122Y-88709559D01*
X169110982Y-88718616D01*
X169084269Y-88729833D01*
X169059425Y-88743442D01*
X169033891Y-88759672D01*
X169030729Y-88761760D01*
X168997658Y-88782694D01*
X168974917Y-88795333D01*
X168970120Y-88797027D01*
X168968607Y-88783784D01*
X168967376Y-88745998D01*
X168966447Y-88686584D01*
X168965840Y-88608458D01*
X168965575Y-88514535D01*
X168965673Y-88407730D01*
X168966152Y-88290959D01*
X168966393Y-88251271D01*
X168969983Y-87705514D01*
X171063767Y-87698649D01*
X171347690Y-87697742D01*
X171605488Y-87696938D01*
X171838494Y-87696185D01*
X172048042Y-87695431D01*
X172235466Y-87694625D01*
X172402098Y-87693715D01*
X172549273Y-87692649D01*
X172678325Y-87691376D01*
X172790587Y-87689844D01*
X172887392Y-87688002D01*
X172970074Y-87685797D01*
X173039967Y-87683178D01*
X173098405Y-87680094D01*
X173146720Y-87676492D01*
X173186248Y-87672322D01*
X173218321Y-87667531D01*
X173244272Y-87662069D01*
X173265437Y-87655882D01*
X173283147Y-87648920D01*
X173298737Y-87641131D01*
X173313541Y-87632463D01*
X173328892Y-87622865D01*
X173346124Y-87612285D01*
X173349794Y-87610116D01*
X173411879Y-87573732D01*
X173408282Y-88099569D01*
X173404686Y-88625406D01*
X173289179Y-88632271D01*
X173233747Y-88636008D01*
X173201699Y-88639903D01*
X173188983Y-88645189D01*
X173191544Y-88653097D01*
X173198872Y-88659730D01*
X173225562Y-88688626D01*
X173259869Y-88735721D01*
X173297694Y-88794380D01*
X173334938Y-88857969D01*
X173367501Y-88919851D01*
X173388925Y-88967366D01*
X173424131Y-89078684D01*
X173449070Y-89206404D01*
X173462789Y-89341099D01*
X173464334Y-89473337D01*
X173452754Y-89593692D01*
X173452422Y-89595674D01*
X173411098Y-89760359D01*
X173345260Y-89914521D01*
X173256322Y-90056672D01*
X173145700Y-90185325D01*
X173014809Y-90298993D01*
X172865064Y-90396190D01*
X172697881Y-90475428D01*
X172574038Y-90518570D01*
X172470429Y-90547021D01*
X172370100Y-90568120D01*
X172266957Y-90582512D01*
X172154905Y-90590842D01*
X172027849Y-90593755D01*
X171924100Y-90592465D01*
X171880915Y-90591927D01*
X171654901Y-90580353D01*
G36*
X174720095Y-101509290D02*
G01*
X174686818Y-101501122D01*
X174664799Y-101487848D01*
X174651779Y-101468266D01*
X174645497Y-101441175D01*
X174643693Y-101405374D01*
X174644106Y-101359663D01*
X174644507Y-101320181D01*
X174645188Y-101291959D01*
X174790848Y-101291959D01*
X174790862Y-101368159D01*
X175231129Y-101368159D01*
X175231044Y-101275026D01*
X175229436Y-101218985D01*
X175225296Y-101160291D01*
X175219504Y-101111320D01*
X175219266Y-101109830D01*
X175200130Y-101030684D01*
X175170327Y-100969294D01*
X175127918Y-100922597D01*
X175082001Y-100892927D01*
X175031066Y-100874645D01*
X174983240Y-100876063D01*
X174931973Y-100897280D01*
X174878939Y-100938781D01*
X174839640Y-100996290D01*
X174813371Y-101071042D01*
X174804075Y-101121000D01*
X174797547Y-101177708D01*
X174792822Y-101237811D01*
X174790857Y-101288931D01*
X174790848Y-101291959D01*
X174645188Y-101291959D01*
X174647299Y-101204492D01*
X174655590Y-101107603D01*
X174670272Y-101026211D01*
X174692233Y-100957015D01*
X174722362Y-100896712D01*
X174761550Y-100842000D01*
X174778572Y-100822459D01*
X174818403Y-100790042D01*
X174872453Y-100760812D01*
X174932363Y-100738283D01*
X174989779Y-100725971D01*
X175010996Y-100724692D01*
X175069809Y-100732709D01*
X175134053Y-100754191D01*
X175194861Y-100785291D01*
X175243370Y-100822158D01*
X175249222Y-100828146D01*
X175290361Y-100878871D01*
X175322475Y-100934417D01*
X175346405Y-100997988D01*
X175362993Y-101072786D01*
X175373081Y-101162014D01*
X175377509Y-101268874D01*
X175377885Y-101317820D01*
X175377585Y-101380054D01*
X175376332Y-101423820D01*
X175373594Y-101453223D01*
X175368841Y-101472371D01*
X175361541Y-101485369D01*
X175355307Y-101492337D01*
X175347734Y-101498918D01*
X175337964Y-101504080D01*
X175323380Y-101507995D01*
X175301366Y-101510835D01*
X175269304Y-101512772D01*
X175224576Y-101513976D01*
X175164566Y-101514620D01*
X175086657Y-101514875D01*
X175010996Y-101514914D01*
X174910081Y-101515162D01*
X174829467Y-101515109D01*
X174790862Y-101514149D01*
X174766891Y-101513552D01*
X174720095Y-101509290D01*
G37*
X174720095Y-101509290D02*
X174686818Y-101501122D01*
X174664799Y-101487848D01*
X174651779Y-101468266D01*
X174645497Y-101441175D01*
X174643693Y-101405374D01*
X174644106Y-101359663D01*
X174644507Y-101320181D01*
X174645188Y-101291959D01*
X174790848Y-101291959D01*
X174790862Y-101368159D01*
X175231129Y-101368159D01*
X175231044Y-101275026D01*
X175229436Y-101218985D01*
X175225296Y-101160291D01*
X175219504Y-101111320D01*
X175219266Y-101109830D01*
X175200130Y-101030684D01*
X175170327Y-100969294D01*
X175127918Y-100922597D01*
X175082001Y-100892927D01*
X175031066Y-100874645D01*
X174983240Y-100876063D01*
X174931973Y-100897280D01*
X174878939Y-100938781D01*
X174839640Y-100996290D01*
X174813371Y-101071042D01*
X174804075Y-101121000D01*
X174797547Y-101177708D01*
X174792822Y-101237811D01*
X174790857Y-101288931D01*
X174790848Y-101291959D01*
X174645188Y-101291959D01*
X174647299Y-101204492D01*
X174655590Y-101107603D01*
X174670272Y-101026211D01*
X174692233Y-100957015D01*
X174722362Y-100896712D01*
X174761550Y-100842000D01*
X174778572Y-100822459D01*
X174818403Y-100790042D01*
X174872453Y-100760812D01*
X174932363Y-100738283D01*
X174989779Y-100725971D01*
X175010996Y-100724692D01*
X175069809Y-100732709D01*
X175134053Y-100754191D01*
X175194861Y-100785291D01*
X175243370Y-100822158D01*
X175249222Y-100828146D01*
X175290361Y-100878871D01*
X175322475Y-100934417D01*
X175346405Y-100997988D01*
X175362993Y-101072786D01*
X175373081Y-101162014D01*
X175377509Y-101268874D01*
X175377885Y-101317820D01*
X175377585Y-101380054D01*
X175376332Y-101423820D01*
X175373594Y-101453223D01*
X175368841Y-101472371D01*
X175361541Y-101485369D01*
X175355307Y-101492337D01*
X175347734Y-101498918D01*
X175337964Y-101504080D01*
X175323380Y-101507995D01*
X175301366Y-101510835D01*
X175269304Y-101512772D01*
X175224576Y-101513976D01*
X175164566Y-101514620D01*
X175086657Y-101514875D01*
X175010996Y-101514914D01*
X174910081Y-101515162D01*
X174829467Y-101515109D01*
X174790862Y-101514149D01*
X174766891Y-101513552D01*
X174720095Y-101509290D01*
G36*
X175102870Y-90999399D02*
G01*
X175176972Y-90999763D01*
X175233744Y-91000568D01*
X175275808Y-91001979D01*
X175305788Y-91004159D01*
X175326307Y-91007271D01*
X175339989Y-91011478D01*
X175349456Y-91016944D01*
X175354122Y-91020820D01*
X175374615Y-91052258D01*
X175373779Y-91088059D01*
X175356304Y-91119419D01*
X175334724Y-91146070D01*
X174687267Y-91146070D01*
X174665687Y-91119419D01*
X174649989Y-91093698D01*
X174644107Y-91072692D01*
X174650917Y-91049678D01*
X174665687Y-91025965D01*
X174687267Y-90999314D01*
X175008813Y-90999314D01*
X175102870Y-90999399D01*
G37*
X175102870Y-90999399D02*
X175176972Y-90999763D01*
X175233744Y-91000568D01*
X175275808Y-91001979D01*
X175305788Y-91004159D01*
X175326307Y-91007271D01*
X175339989Y-91011478D01*
X175349456Y-91016944D01*
X175354122Y-91020820D01*
X175374615Y-91052258D01*
X175373779Y-91088059D01*
X175356304Y-91119419D01*
X175334724Y-91146070D01*
X174687267Y-91146070D01*
X174665687Y-91119419D01*
X174649989Y-91093698D01*
X174644107Y-91072692D01*
X174650917Y-91049678D01*
X174665687Y-91025965D01*
X174687267Y-90999314D01*
X175008813Y-90999314D01*
X175102870Y-90999399D01*
G36*
X175210061Y-94424624D02*
G01*
X175149351Y-94425242D01*
X175070566Y-94425467D01*
X175008960Y-94425492D01*
X174699525Y-94425492D01*
X174671816Y-94397783D01*
X174660584Y-94385486D01*
X174652893Y-94372189D01*
X174648080Y-94353620D01*
X174645486Y-94325506D01*
X174644450Y-94283575D01*
X174644412Y-94267448D01*
X174790862Y-94267448D01*
X175231129Y-94267448D01*
X175231129Y-94173566D01*
X175229523Y-94118628D01*
X175225295Y-94062232D01*
X175219332Y-94015947D01*
X175218830Y-94013153D01*
X175196776Y-93930944D01*
X175163640Y-93867178D01*
X175117887Y-93819840D01*
X175057979Y-93786910D01*
X175042101Y-93781184D01*
X175017373Y-93775571D01*
X174992942Y-93778001D01*
X174960440Y-93789825D01*
X174944474Y-93796952D01*
X174902046Y-93820292D01*
X174872280Y-93848412D01*
X174851551Y-93879352D01*
X174824577Y-93941326D01*
X174805038Y-94020641D01*
X174793786Y-94113039D01*
X174791310Y-94179959D01*
X174790862Y-94267448D01*
X174644412Y-94267448D01*
X174644310Y-94223555D01*
X174644315Y-94219983D01*
X174648676Y-94091004D01*
X174661901Y-93981301D01*
X174684781Y-93889066D01*
X174718110Y-93812490D01*
X174762678Y-93749765D01*
X174819276Y-93699080D01*
X174888698Y-93658629D01*
X174890391Y-93657833D01*
X174952523Y-93633691D01*
X175007549Y-93625089D01*
X175062927Y-93632061D01*
X175126113Y-93654638D01*
X175135729Y-93658920D01*
X175192006Y-93688120D01*
X175235491Y-93720936D01*
X175272457Y-93763290D01*
X175309175Y-93821102D01*
X175311092Y-93824461D01*
X175335267Y-93874788D01*
X175353322Y-93931671D01*
X175365879Y-93998765D01*
X175373562Y-94079727D01*
X175376993Y-94178210D01*
X175377291Y-94213006D01*
X175377885Y-94378698D01*
X175348140Y-94402095D01*
X175338359Y-94409035D01*
X175326937Y-94414450D01*
X175311135Y-94418527D01*
X175288215Y-94421455D01*
X175255436Y-94423425D01*
X175231129Y-94424067D01*
X175210061Y-94424624D01*
G37*
X175210061Y-94424624D02*
X175149351Y-94425242D01*
X175070566Y-94425467D01*
X175008960Y-94425492D01*
X174699525Y-94425492D01*
X174671816Y-94397783D01*
X174660584Y-94385486D01*
X174652893Y-94372189D01*
X174648080Y-94353620D01*
X174645486Y-94325506D01*
X174644450Y-94283575D01*
X174644412Y-94267448D01*
X174790862Y-94267448D01*
X175231129Y-94267448D01*
X175231129Y-94173566D01*
X175229523Y-94118628D01*
X175225295Y-94062232D01*
X175219332Y-94015947D01*
X175218830Y-94013153D01*
X175196776Y-93930944D01*
X175163640Y-93867178D01*
X175117887Y-93819840D01*
X175057979Y-93786910D01*
X175042101Y-93781184D01*
X175017373Y-93775571D01*
X174992942Y-93778001D01*
X174960440Y-93789825D01*
X174944474Y-93796952D01*
X174902046Y-93820292D01*
X174872280Y-93848412D01*
X174851551Y-93879352D01*
X174824577Y-93941326D01*
X174805038Y-94020641D01*
X174793786Y-94113039D01*
X174791310Y-94179959D01*
X174790862Y-94267448D01*
X174644412Y-94267448D01*
X174644310Y-94223555D01*
X174644315Y-94219983D01*
X174648676Y-94091004D01*
X174661901Y-93981301D01*
X174684781Y-93889066D01*
X174718110Y-93812490D01*
X174762678Y-93749765D01*
X174819276Y-93699080D01*
X174888698Y-93658629D01*
X174890391Y-93657833D01*
X174952523Y-93633691D01*
X175007549Y-93625089D01*
X175062927Y-93632061D01*
X175126113Y-93654638D01*
X175135729Y-93658920D01*
X175192006Y-93688120D01*
X175235491Y-93720936D01*
X175272457Y-93763290D01*
X175309175Y-93821102D01*
X175311092Y-93824461D01*
X175335267Y-93874788D01*
X175353322Y-93931671D01*
X175365879Y-93998765D01*
X175373562Y-94079727D01*
X175376993Y-94178210D01*
X175377291Y-94213006D01*
X175377885Y-94378698D01*
X175348140Y-94402095D01*
X175338359Y-94409035D01*
X175326937Y-94414450D01*
X175311135Y-94418527D01*
X175288215Y-94421455D01*
X175255436Y-94423425D01*
X175231129Y-94424067D01*
X175210061Y-94424624D01*
G36*
X175100839Y-88950454D02*
G01*
X175172880Y-88950797D01*
X175227820Y-88951600D01*
X175268400Y-88953051D01*
X175297357Y-88955340D01*
X175317431Y-88958656D01*
X175331361Y-88963187D01*
X175341885Y-88969123D01*
X175348140Y-88973778D01*
X175372713Y-89004509D01*
X175375381Y-89039796D01*
X175360311Y-89072047D01*
X175351414Y-89082704D01*
X175339597Y-89089828D01*
X175320566Y-89094125D01*
X175290032Y-89096301D01*
X175243702Y-89097064D01*
X175207911Y-89097137D01*
X175073085Y-89097137D01*
X175073085Y-89593848D01*
X175195740Y-89593848D01*
X175251827Y-89594361D01*
X175290373Y-89596416D01*
X175316401Y-89600784D01*
X175334937Y-89608236D01*
X175348140Y-89617245D01*
X175372644Y-89648148D01*
X175375546Y-89683096D01*
X175358129Y-89716554D01*
X175348999Y-89725688D01*
X175336895Y-89732140D01*
X175318041Y-89736395D01*
X175288660Y-89738940D01*
X175244977Y-89740263D01*
X175183215Y-89740849D01*
X175169040Y-89740917D01*
X175052671Y-89741401D01*
X174956767Y-89741651D01*
X174879217Y-89741569D01*
X174817909Y-89741061D01*
X174770730Y-89740030D01*
X174735570Y-89738379D01*
X174710316Y-89736013D01*
X174692857Y-89732835D01*
X174681081Y-89728748D01*
X174672875Y-89723658D01*
X174666685Y-89718026D01*
X174646884Y-89686164D01*
X174649573Y-89652935D01*
X174671816Y-89621557D01*
X174686166Y-89608859D01*
X174702018Y-89600766D01*
X174724594Y-89596250D01*
X174759118Y-89594286D01*
X174810816Y-89593848D01*
X174926329Y-89593848D01*
X174926329Y-89097137D01*
X174807796Y-89097137D01*
X174753188Y-89096630D01*
X174716315Y-89094594D01*
X174692347Y-89090257D01*
X174676455Y-89082845D01*
X174666685Y-89074559D01*
X174646884Y-89042698D01*
X174649573Y-89009469D01*
X174671816Y-88978090D01*
X174699525Y-88950381D01*
X175008960Y-88950381D01*
X175100839Y-88950454D01*
G37*
X175100839Y-88950454D02*
X175172880Y-88950797D01*
X175227820Y-88951600D01*
X175268400Y-88953051D01*
X175297357Y-88955340D01*
X175317431Y-88958656D01*
X175331361Y-88963187D01*
X175341885Y-88969123D01*
X175348140Y-88973778D01*
X175372713Y-89004509D01*
X175375381Y-89039796D01*
X175360311Y-89072047D01*
X175351414Y-89082704D01*
X175339597Y-89089828D01*
X175320566Y-89094125D01*
X175290032Y-89096301D01*
X175243702Y-89097064D01*
X175207911Y-89097137D01*
X175073085Y-89097137D01*
X175073085Y-89593848D01*
X175195740Y-89593848D01*
X175251827Y-89594361D01*
X175290373Y-89596416D01*
X175316401Y-89600784D01*
X175334937Y-89608236D01*
X175348140Y-89617245D01*
X175372644Y-89648148D01*
X175375546Y-89683096D01*
X175358129Y-89716554D01*
X175348999Y-89725688D01*
X175336895Y-89732140D01*
X175318041Y-89736395D01*
X175288660Y-89738940D01*
X175244977Y-89740263D01*
X175183215Y-89740849D01*
X175169040Y-89740917D01*
X175052671Y-89741401D01*
X174956767Y-89741651D01*
X174879217Y-89741569D01*
X174817909Y-89741061D01*
X174770730Y-89740030D01*
X174735570Y-89738379D01*
X174710316Y-89736013D01*
X174692857Y-89732835D01*
X174681081Y-89728748D01*
X174672875Y-89723658D01*
X174666685Y-89718026D01*
X174646884Y-89686164D01*
X174649573Y-89652935D01*
X174671816Y-89621557D01*
X174686166Y-89608859D01*
X174702018Y-89600766D01*
X174724594Y-89596250D01*
X174759118Y-89594286D01*
X174810816Y-89593848D01*
X174926329Y-89593848D01*
X174926329Y-89097137D01*
X174807796Y-89097137D01*
X174753188Y-89096630D01*
X174716315Y-89094594D01*
X174692347Y-89090257D01*
X174676455Y-89082845D01*
X174666685Y-89074559D01*
X174646884Y-89042698D01*
X174649573Y-89009469D01*
X174671816Y-88978090D01*
X174699525Y-88950381D01*
X175008960Y-88950381D01*
X175100839Y-88950454D01*
G36*
X173215487Y-93972473D02*
G01*
X173265567Y-94074478D01*
X173305058Y-94157111D01*
X173335921Y-94225422D01*
X173360116Y-94284463D01*
X173379606Y-94339286D01*
X173396351Y-94394940D01*
X173412313Y-94456477D01*
X173426330Y-94515460D01*
X173437177Y-94567885D01*
X173445374Y-94622712D01*
X173451376Y-94685428D01*
X173455638Y-94761523D01*
X173458615Y-94856484D01*
X173459900Y-94920487D01*
X173460778Y-95011808D01*
X173460335Y-95099373D01*
X173458700Y-95177388D01*
X173455997Y-95240058D01*
X173452353Y-95281587D01*
X173451990Y-95284048D01*
X173405335Y-95499697D01*
X173334577Y-95702207D01*
X173239762Y-95891505D01*
X173120937Y-96067521D01*
X172978148Y-96230184D01*
X172811442Y-96379422D01*
X172663281Y-96487504D01*
X172469350Y-96602566D01*
X172264547Y-96695577D01*
X172047231Y-96766987D01*
X171815760Y-96817244D01*
X171568491Y-96846799D01*
X171317407Y-96856111D01*
X171074518Y-96848452D01*
X170850418Y-96824387D01*
X170641325Y-96783148D01*
X170443461Y-96723973D01*
X170253044Y-96646096D01*
X170233316Y-96636797D01*
X170048907Y-96534352D01*
X169873424Y-96408528D01*
X169710498Y-96262888D01*
X169563762Y-96100999D01*
X169436849Y-95926424D01*
X169343753Y-95763756D01*
X169270839Y-95599427D01*
X169218022Y-95434749D01*
X169183863Y-95263348D01*
X169166926Y-95078847D01*
X169164428Y-94968541D01*
X169169347Y-94810038D01*
X169185555Y-94661986D01*
X169214566Y-94518548D01*
X169257893Y-94373890D01*
X169317049Y-94222176D01*
X169393548Y-94057572D01*
X169408365Y-94027929D01*
X169441879Y-93959902D01*
X169472056Y-93895744D01*
X169496014Y-93841785D01*
X169510872Y-93804360D01*
X169512743Y-93798611D01*
X169529250Y-93743514D01*
X169888049Y-93990149D01*
X169975741Y-94050448D01*
X170055860Y-94105578D01*
X170125684Y-94153664D01*
X170182495Y-94192832D01*
X170223571Y-94221206D01*
X170246194Y-94236913D01*
X170249776Y-94239464D01*
X170242286Y-94249829D01*
X170219766Y-94275340D01*
X170186309Y-94311437D01*
X170167398Y-94331358D01*
X170077626Y-94444227D01*
X170009409Y-94570986D01*
X169972043Y-94680217D01*
X169960308Y-94745786D01*
X169953156Y-94827884D01*
X169950722Y-94916856D01*
X169953136Y-95003044D01*
X169960531Y-95076795D01*
X169966195Y-95106224D01*
X170011830Y-95238867D01*
X170081511Y-95358394D01*
X170175108Y-95464717D01*
X170292497Y-95557747D01*
X170433548Y-95637395D01*
X170598134Y-95703574D01*
X170786128Y-95756194D01*
X170947065Y-95787467D01*
X171018111Y-95795626D01*
X171109894Y-95801185D01*
X171215816Y-95804198D01*
X171329282Y-95804719D01*
X171443697Y-95802800D01*
X171552465Y-95798497D01*
X171648991Y-95791863D01*
X171726679Y-95782951D01*
X171738665Y-95781021D01*
X171931740Y-95738501D01*
X172102621Y-95680567D01*
X172252072Y-95606867D01*
X172380859Y-95517049D01*
X172450487Y-95453293D01*
X172545021Y-95338714D01*
X172615094Y-95213058D01*
X172660325Y-95078443D01*
X172680332Y-94936989D01*
X172674733Y-94790817D01*
X172643148Y-94642045D01*
X172612242Y-94554089D01*
X172550354Y-94432371D01*
X172461577Y-94306920D01*
X172401542Y-94236647D01*
X172366795Y-94197189D01*
X172341302Y-94166188D01*
X172329018Y-94148542D01*
X172328643Y-94146352D01*
X172341195Y-94138476D01*
X172374364Y-94118068D01*
X172425306Y-94086868D01*
X172491179Y-94046614D01*
X172569137Y-93999043D01*
X172656338Y-93945896D01*
X172704915Y-93916313D01*
X173076063Y-93690352D01*
X173215487Y-93972473D01*
G37*
X173215487Y-93972473D02*
X173265567Y-94074478D01*
X173305058Y-94157111D01*
X173335921Y-94225422D01*
X173360116Y-94284463D01*
X173379606Y-94339286D01*
X173396351Y-94394940D01*
X173412313Y-94456477D01*
X173426330Y-94515460D01*
X173437177Y-94567885D01*
X173445374Y-94622712D01*
X173451376Y-94685428D01*
X173455638Y-94761523D01*
X173458615Y-94856484D01*
X173459900Y-94920487D01*
X173460778Y-95011808D01*
X173460335Y-95099373D01*
X173458700Y-95177388D01*
X173455997Y-95240058D01*
X173452353Y-95281587D01*
X173451990Y-95284048D01*
X173405335Y-95499697D01*
X173334577Y-95702207D01*
X173239762Y-95891505D01*
X173120937Y-96067521D01*
X172978148Y-96230184D01*
X172811442Y-96379422D01*
X172663281Y-96487504D01*
X172469350Y-96602566D01*
X172264547Y-96695577D01*
X172047231Y-96766987D01*
X171815760Y-96817244D01*
X171568491Y-96846799D01*
X171317407Y-96856111D01*
X171074518Y-96848452D01*
X170850418Y-96824387D01*
X170641325Y-96783148D01*
X170443461Y-96723973D01*
X170253044Y-96646096D01*
X170233316Y-96636797D01*
X170048907Y-96534352D01*
X169873424Y-96408528D01*
X169710498Y-96262888D01*
X169563762Y-96100999D01*
X169436849Y-95926424D01*
X169343753Y-95763756D01*
X169270839Y-95599427D01*
X169218022Y-95434749D01*
X169183863Y-95263348D01*
X169166926Y-95078847D01*
X169164428Y-94968541D01*
X169169347Y-94810038D01*
X169185555Y-94661986D01*
X169214566Y-94518548D01*
X169257893Y-94373890D01*
X169317049Y-94222176D01*
X169393548Y-94057572D01*
X169408365Y-94027929D01*
X169441879Y-93959902D01*
X169472056Y-93895744D01*
X169496014Y-93841785D01*
X169510872Y-93804360D01*
X169512743Y-93798611D01*
X169529250Y-93743514D01*
X169888049Y-93990149D01*
X169975741Y-94050448D01*
X170055860Y-94105578D01*
X170125684Y-94153664D01*
X170182495Y-94192832D01*
X170223571Y-94221206D01*
X170246194Y-94236913D01*
X170249776Y-94239464D01*
X170242286Y-94249829D01*
X170219766Y-94275340D01*
X170186309Y-94311437D01*
X170167398Y-94331358D01*
X170077626Y-94444227D01*
X170009409Y-94570986D01*
X169972043Y-94680217D01*
X169960308Y-94745786D01*
X169953156Y-94827884D01*
X169950722Y-94916856D01*
X169953136Y-95003044D01*
X169960531Y-95076795D01*
X169966195Y-95106224D01*
X170011830Y-95238867D01*
X170081511Y-95358394D01*
X170175108Y-95464717D01*
X170292497Y-95557747D01*
X170433548Y-95637395D01*
X170598134Y-95703574D01*
X170786128Y-95756194D01*
X170947065Y-95787467D01*
X171018111Y-95795626D01*
X171109894Y-95801185D01*
X171215816Y-95804198D01*
X171329282Y-95804719D01*
X171443697Y-95802800D01*
X171552465Y-95798497D01*
X171648991Y-95791863D01*
X171726679Y-95782951D01*
X171738665Y-95781021D01*
X171931740Y-95738501D01*
X172102621Y-95680567D01*
X172252072Y-95606867D01*
X172380859Y-95517049D01*
X172450487Y-95453293D01*
X172545021Y-95338714D01*
X172615094Y-95213058D01*
X172660325Y-95078443D01*
X172680332Y-94936989D01*
X172674733Y-94790817D01*
X172643148Y-94642045D01*
X172612242Y-94554089D01*
X172550354Y-94432371D01*
X172461577Y-94306920D01*
X172401542Y-94236647D01*
X172366795Y-94197189D01*
X172341302Y-94166188D01*
X172329018Y-94148542D01*
X172328643Y-94146352D01*
X172341195Y-94138476D01*
X172374364Y-94118068D01*
X172425306Y-94086868D01*
X172491179Y-94046614D01*
X172569137Y-93999043D01*
X172656338Y-93945896D01*
X172704915Y-93916313D01*
X173076063Y-93690352D01*
X173215487Y-93972473D01*
G36*
X175223201Y-95826405D02*
G01*
X175264382Y-95827324D01*
X175293843Y-95829179D01*
X175314295Y-95832131D01*
X175328453Y-95836342D01*
X175339031Y-95841974D01*
X175347514Y-95848219D01*
X175363247Y-95861731D01*
X175373676Y-95875175D01*
X175377679Y-95890416D01*
X175374134Y-95909318D01*
X175361919Y-95933747D01*
X175339911Y-95965565D01*
X175306989Y-96006640D01*
X175262031Y-96058834D01*
X175203915Y-96124014D01*
X175137139Y-96197848D01*
X174896498Y-96463137D01*
X175115629Y-96468781D01*
X175191168Y-96470823D01*
X175247394Y-96472794D01*
X175287564Y-96475131D01*
X175314936Y-96478273D01*
X175332768Y-96482656D01*
X175344319Y-96488716D01*
X175352847Y-96496892D01*
X175356322Y-96501076D01*
X175375412Y-96538057D01*
X175372533Y-96573000D01*
X175348140Y-96603428D01*
X175338326Y-96610389D01*
X175326866Y-96615815D01*
X175311008Y-96619895D01*
X175288003Y-96622821D01*
X175255102Y-96624784D01*
X175209556Y-96625975D01*
X175148613Y-96626584D01*
X175069526Y-96626803D01*
X175010996Y-96626826D01*
X174919447Y-96626752D01*
X174847727Y-96626405D01*
X174793085Y-96625593D01*
X174752772Y-96624125D01*
X174724038Y-96621811D01*
X174704133Y-96618459D01*
X174690308Y-96613880D01*
X174679812Y-96607881D01*
X174673851Y-96603428D01*
X174659731Y-96592142D01*
X174649069Y-96581593D01*
X174642932Y-96570185D01*
X174642383Y-96556322D01*
X174648488Y-96538406D01*
X174662313Y-96514840D01*
X174684921Y-96484027D01*
X174717378Y-96444370D01*
X174760748Y-96394272D01*
X174816098Y-96332135D01*
X174884491Y-96256364D01*
X174963124Y-96169626D01*
X175126918Y-95989003D01*
X174907069Y-95983359D01*
X174831391Y-95981321D01*
X174775034Y-95979355D01*
X174734746Y-95977026D01*
X174707275Y-95973898D01*
X174689369Y-95969537D01*
X174677777Y-95963508D01*
X174669248Y-95955376D01*
X174665663Y-95951064D01*
X174646710Y-95916533D01*
X174649481Y-95883675D01*
X174665673Y-95857610D01*
X174687239Y-95830959D01*
X175002191Y-95827644D01*
X175094819Y-95826727D01*
X175167584Y-95826260D01*
X175223201Y-95826405D01*
G37*
X175223201Y-95826405D02*
X175264382Y-95827324D01*
X175293843Y-95829179D01*
X175314295Y-95832131D01*
X175328453Y-95836342D01*
X175339031Y-95841974D01*
X175347514Y-95848219D01*
X175363247Y-95861731D01*
X175373676Y-95875175D01*
X175377679Y-95890416D01*
X175374134Y-95909318D01*
X175361919Y-95933747D01*
X175339911Y-95965565D01*
X175306989Y-96006640D01*
X175262031Y-96058834D01*
X175203915Y-96124014D01*
X175137139Y-96197848D01*
X174896498Y-96463137D01*
X175115629Y-96468781D01*
X175191168Y-96470823D01*
X175247394Y-96472794D01*
X175287564Y-96475131D01*
X175314936Y-96478273D01*
X175332768Y-96482656D01*
X175344319Y-96488716D01*
X175352847Y-96496892D01*
X175356322Y-96501076D01*
X175375412Y-96538057D01*
X175372533Y-96573000D01*
X175348140Y-96603428D01*
X175338326Y-96610389D01*
X175326866Y-96615815D01*
X175311008Y-96619895D01*
X175288003Y-96622821D01*
X175255102Y-96624784D01*
X175209556Y-96625975D01*
X175148613Y-96626584D01*
X175069526Y-96626803D01*
X175010996Y-96626826D01*
X174919447Y-96626752D01*
X174847727Y-96626405D01*
X174793085Y-96625593D01*
X174752772Y-96624125D01*
X174724038Y-96621811D01*
X174704133Y-96618459D01*
X174690308Y-96613880D01*
X174679812Y-96607881D01*
X174673851Y-96603428D01*
X174659731Y-96592142D01*
X174649069Y-96581593D01*
X174642932Y-96570185D01*
X174642383Y-96556322D01*
X174648488Y-96538406D01*
X174662313Y-96514840D01*
X174684921Y-96484027D01*
X174717378Y-96444370D01*
X174760748Y-96394272D01*
X174816098Y-96332135D01*
X174884491Y-96256364D01*
X174963124Y-96169626D01*
X175126918Y-95989003D01*
X174907069Y-95983359D01*
X174831391Y-95981321D01*
X174775034Y-95979355D01*
X174734746Y-95977026D01*
X174707275Y-95973898D01*
X174689369Y-95969537D01*
X174677777Y-95963508D01*
X174669248Y-95955376D01*
X174665663Y-95951064D01*
X174646710Y-95916533D01*
X174649481Y-95883675D01*
X174665673Y-95857610D01*
X174687239Y-95830959D01*
X175002191Y-95827644D01*
X175094819Y-95826727D01*
X175167584Y-95826260D01*
X175223201Y-95826405D01*
G36*
X175214575Y-96966901D02*
G01*
X175261826Y-96971140D01*
X175287052Y-96978228D01*
X175289028Y-96979603D01*
X175320548Y-97018520D01*
X175345510Y-97075578D01*
X175363380Y-97147161D01*
X175373626Y-97229650D01*
X175375713Y-97319431D01*
X175369108Y-97412884D01*
X175360996Y-97467848D01*
X175336594Y-97554058D01*
X175296702Y-97634184D01*
X175244927Y-97701269D01*
X175234579Y-97711465D01*
X175191075Y-97744594D01*
X175137158Y-97774486D01*
X175080632Y-97797649D01*
X175029299Y-97810590D01*
X175009584Y-97812150D01*
X174968459Y-97805510D01*
X174917292Y-97787860D01*
X174863434Y-97762589D01*
X174814235Y-97733081D01*
X174781374Y-97707011D01*
X174732492Y-97646057D01*
X174693585Y-97567261D01*
X174665534Y-97473449D01*
X174649219Y-97367442D01*
X174645232Y-97270292D01*
X174649639Y-97188373D01*
X174661135Y-97119857D01*
X174679007Y-97067235D01*
X174702539Y-97033000D01*
X174715964Y-97023671D01*
X174747188Y-97014185D01*
X174775435Y-97020569D01*
X174802222Y-97040722D01*
X174814753Y-97072037D01*
X174813736Y-97117475D01*
X174806946Y-97152618D01*
X174794011Y-97230711D01*
X174792782Y-97310518D01*
X174803281Y-97399847D01*
X174807730Y-97424521D01*
X174831148Y-97507583D01*
X174865985Y-97572565D01*
X174911644Y-97618753D01*
X174967534Y-97645437D01*
X174996428Y-97650955D01*
X175055052Y-97647343D01*
X175106919Y-97624021D01*
X175151018Y-97583116D01*
X175186339Y-97526751D01*
X175211869Y-97457052D01*
X175226599Y-97376144D01*
X175229518Y-97286152D01*
X175219615Y-97189202D01*
X175218681Y-97183728D01*
X175211499Y-97145167D01*
X175204561Y-97123786D01*
X175194267Y-97114519D01*
X175177016Y-97112298D01*
X175167881Y-97112248D01*
X175129529Y-97112248D01*
X175129529Y-97180723D01*
X175125387Y-97241192D01*
X175112187Y-97282457D01*
X175088770Y-97306467D01*
X175053976Y-97315169D01*
X175049434Y-97315275D01*
X175019694Y-97310184D01*
X174998459Y-97292725D01*
X174984406Y-97260231D01*
X174976213Y-97210035D01*
X174973201Y-97161415D01*
X174971473Y-97090748D01*
X174974110Y-97039490D01*
X174983840Y-97004531D01*
X175003393Y-96982762D01*
X175035496Y-96971072D01*
X175082878Y-96966352D01*
X175145111Y-96965492D01*
X175214575Y-96966901D01*
G37*
X175214575Y-96966901D02*
X175261826Y-96971140D01*
X175287052Y-96978228D01*
X175289028Y-96979603D01*
X175320548Y-97018520D01*
X175345510Y-97075578D01*
X175363380Y-97147161D01*
X175373626Y-97229650D01*
X175375713Y-97319431D01*
X175369108Y-97412884D01*
X175360996Y-97467848D01*
X175336594Y-97554058D01*
X175296702Y-97634184D01*
X175244927Y-97701269D01*
X175234579Y-97711465D01*
X175191075Y-97744594D01*
X175137158Y-97774486D01*
X175080632Y-97797649D01*
X175029299Y-97810590D01*
X175009584Y-97812150D01*
X174968459Y-97805510D01*
X174917292Y-97787860D01*
X174863434Y-97762589D01*
X174814235Y-97733081D01*
X174781374Y-97707011D01*
X174732492Y-97646057D01*
X174693585Y-97567261D01*
X174665534Y-97473449D01*
X174649219Y-97367442D01*
X174645232Y-97270292D01*
X174649639Y-97188373D01*
X174661135Y-97119857D01*
X174679007Y-97067235D01*
X174702539Y-97033000D01*
X174715964Y-97023671D01*
X174747188Y-97014185D01*
X174775435Y-97020569D01*
X174802222Y-97040722D01*
X174814753Y-97072037D01*
X174813736Y-97117475D01*
X174806946Y-97152618D01*
X174794011Y-97230711D01*
X174792782Y-97310518D01*
X174803281Y-97399847D01*
X174807730Y-97424521D01*
X174831148Y-97507583D01*
X174865985Y-97572565D01*
X174911644Y-97618753D01*
X174967534Y-97645437D01*
X174996428Y-97650955D01*
X175055052Y-97647343D01*
X175106919Y-97624021D01*
X175151018Y-97583116D01*
X175186339Y-97526751D01*
X175211869Y-97457052D01*
X175226599Y-97376144D01*
X175229518Y-97286152D01*
X175219615Y-97189202D01*
X175218681Y-97183728D01*
X175211499Y-97145167D01*
X175204561Y-97123786D01*
X175194267Y-97114519D01*
X175177016Y-97112298D01*
X175167881Y-97112248D01*
X175129529Y-97112248D01*
X175129529Y-97180723D01*
X175125387Y-97241192D01*
X175112187Y-97282457D01*
X175088770Y-97306467D01*
X175053976Y-97315169D01*
X175049434Y-97315275D01*
X175019694Y-97310184D01*
X174998459Y-97292725D01*
X174984406Y-97260231D01*
X174976213Y-97210035D01*
X174973201Y-97161415D01*
X174971473Y-97090748D01*
X174974110Y-97039490D01*
X174983840Y-97004531D01*
X175003393Y-96982762D01*
X175035496Y-96971072D01*
X175082878Y-96966352D01*
X175145111Y-96965492D01*
X175214575Y-96966901D01*
G36*
X168659319Y-97546214D02*
G01*
X168751562Y-97562969D01*
X168864280Y-97608763D01*
X168962055Y-97675168D01*
X169042963Y-97758809D01*
X169105080Y-97856312D01*
X169146482Y-97964300D01*
X169165245Y-98079399D01*
X169159446Y-98198234D01*
X169147054Y-98256811D01*
X169102645Y-98370972D01*
X169034881Y-98472365D01*
X168945849Y-98558545D01*
X168837639Y-98627066D01*
X168825821Y-98632864D01*
X168781476Y-98652904D01*
X168744128Y-98665487D01*
X168704728Y-98672319D01*
X168654229Y-98675105D01*
X168599281Y-98675568D01*
X168533263Y-98674803D01*
X168485537Y-98671352D01*
X168446951Y-98663477D01*
X168408354Y-98649443D01*
X168370274Y-98632120D01*
X168262176Y-98567505D01*
X168174651Y-98487934D01*
X168107689Y-98396560D01*
X168061284Y-98296536D01*
X168035429Y-98191012D01*
X168030116Y-98083142D01*
X168045338Y-97976079D01*
X168081086Y-97872973D01*
X168137355Y-97776978D01*
X168214136Y-97691247D01*
X168311421Y-97618930D01*
X168372740Y-97586445D01*
X168458508Y-97558332D01*
X168557525Y-97544705D01*
X168659319Y-97546214D01*
G37*
X168659319Y-97546214D02*
X168751562Y-97562969D01*
X168864280Y-97608763D01*
X168962055Y-97675168D01*
X169042963Y-97758809D01*
X169105080Y-97856312D01*
X169146482Y-97964300D01*
X169165245Y-98079399D01*
X169159446Y-98198234D01*
X169147054Y-98256811D01*
X169102645Y-98370972D01*
X169034881Y-98472365D01*
X168945849Y-98558545D01*
X168837639Y-98627066D01*
X168825821Y-98632864D01*
X168781476Y-98652904D01*
X168744128Y-98665487D01*
X168704728Y-98672319D01*
X168654229Y-98675105D01*
X168599281Y-98675568D01*
X168533263Y-98674803D01*
X168485537Y-98671352D01*
X168446951Y-98663477D01*
X168408354Y-98649443D01*
X168370274Y-98632120D01*
X168262176Y-98567505D01*
X168174651Y-98487934D01*
X168107689Y-98396560D01*
X168061284Y-98296536D01*
X168035429Y-98191012D01*
X168030116Y-98083142D01*
X168045338Y-97976079D01*
X168081086Y-97872973D01*
X168137355Y-97776978D01*
X168214136Y-97691247D01*
X168311421Y-97618930D01*
X168372740Y-97586445D01*
X168458508Y-97558332D01*
X168557525Y-97544705D01*
X168659319Y-97546214D01*
G36*
X175202752Y-98627868D02*
G01*
X175232299Y-98639494D01*
X175258526Y-98659615D01*
X175298616Y-98700508D01*
X175329189Y-98746109D01*
X175351243Y-98799805D01*
X175365775Y-98864984D01*
X175373781Y-98945036D01*
X175376258Y-99043349D01*
X175376217Y-99059581D01*
X175374858Y-99125141D01*
X175371770Y-99190158D01*
X175367396Y-99247544D01*
X175362180Y-99290214D01*
X175361581Y-99293664D01*
X175351531Y-99336088D01*
X175338836Y-99372072D01*
X175327230Y-99392442D01*
X175296612Y-99411399D01*
X175260958Y-99412719D01*
X175229184Y-99396377D01*
X175225591Y-99392721D01*
X175214916Y-99377607D01*
X175210316Y-99358707D01*
X175211099Y-99329454D01*
X175215167Y-99293943D01*
X175218802Y-99254262D01*
X175221868Y-99198637D01*
X175224093Y-99133698D01*
X175225204Y-99066077D01*
X175225277Y-99048292D01*
X175225004Y-98980420D01*
X175223686Y-98930746D01*
X175220867Y-98894902D01*
X175216090Y-98868516D01*
X175208897Y-98847218D01*
X175202907Y-98834418D01*
X175186273Y-98806292D01*
X175171208Y-98788360D01*
X175166937Y-98785739D01*
X175149303Y-98791268D01*
X175132232Y-98817552D01*
X175116498Y-98862770D01*
X175102878Y-98925100D01*
X175099844Y-98943463D01*
X175084778Y-99039382D01*
X175072186Y-99115933D01*
X175061151Y-99176072D01*
X175050760Y-99222752D01*
X175040096Y-99258929D01*
X175028245Y-99287557D01*
X175014291Y-99311590D01*
X174997321Y-99333984D01*
X174976418Y-99357694D01*
X174969089Y-99365672D01*
X174941739Y-99393645D01*
X174920069Y-99408452D01*
X174895272Y-99414244D01*
X174864023Y-99415181D01*
X174802745Y-99404867D01*
X174750680Y-99374044D01*
X174707998Y-99322887D01*
X174674865Y-99251575D01*
X174660004Y-99200692D01*
X174650406Y-99145392D01*
X174644976Y-99079145D01*
X174643407Y-99005998D01*
X174645391Y-98929995D01*
X174650621Y-98855180D01*
X174658790Y-98785598D01*
X174669590Y-98725294D01*
X174682713Y-98678312D01*
X174697853Y-98648698D01*
X174702309Y-98644152D01*
X174736890Y-98628346D01*
X174772391Y-98633139D01*
X174802765Y-98657656D01*
X174803636Y-98658826D01*
X174812994Y-98673246D01*
X174817916Y-98688300D01*
X174818513Y-98709297D01*
X174814901Y-98741549D01*
X174807194Y-98790365D01*
X174806545Y-98794292D01*
X174797609Y-98867031D01*
X174793201Y-98945509D01*
X174793159Y-99024219D01*
X174797319Y-99097653D01*
X174805519Y-99160303D01*
X174817597Y-99206662D01*
X174818811Y-99209708D01*
X174837655Y-99243340D01*
X174856725Y-99255156D01*
X174875479Y-99245906D01*
X174893377Y-99216339D01*
X174909877Y-99167203D01*
X174924436Y-99099249D01*
X174931446Y-99053937D01*
X174944929Y-98959748D01*
X174957254Y-98884836D01*
X174969489Y-98826009D01*
X174982701Y-98780077D01*
X174997957Y-98743847D01*
X175016325Y-98714130D01*
X175038871Y-98687734D01*
X175061011Y-98666522D01*
X175091859Y-98641357D01*
X175118385Y-98628973D01*
X175151066Y-98625100D01*
X175163035Y-98624959D01*
X175202752Y-98627868D01*
G37*
X175202752Y-98627868D02*
X175232299Y-98639494D01*
X175258526Y-98659615D01*
X175298616Y-98700508D01*
X175329189Y-98746109D01*
X175351243Y-98799805D01*
X175365775Y-98864984D01*
X175373781Y-98945036D01*
X175376258Y-99043349D01*
X175376217Y-99059581D01*
X175374858Y-99125141D01*
X175371770Y-99190158D01*
X175367396Y-99247544D01*
X175362180Y-99290214D01*
X175361581Y-99293664D01*
X175351531Y-99336088D01*
X175338836Y-99372072D01*
X175327230Y-99392442D01*
X175296612Y-99411399D01*
X175260958Y-99412719D01*
X175229184Y-99396377D01*
X175225591Y-99392721D01*
X175214916Y-99377607D01*
X175210316Y-99358707D01*
X175211099Y-99329454D01*
X175215167Y-99293943D01*
X175218802Y-99254262D01*
X175221868Y-99198637D01*
X175224093Y-99133698D01*
X175225204Y-99066077D01*
X175225277Y-99048292D01*
X175225004Y-98980420D01*
X175223686Y-98930746D01*
X175220867Y-98894902D01*
X175216090Y-98868516D01*
X175208897Y-98847218D01*
X175202907Y-98834418D01*
X175186273Y-98806292D01*
X175171208Y-98788360D01*
X175166937Y-98785739D01*
X175149303Y-98791268D01*
X175132232Y-98817552D01*
X175116498Y-98862770D01*
X175102878Y-98925100D01*
X175099844Y-98943463D01*
X175084778Y-99039382D01*
X175072186Y-99115933D01*
X175061151Y-99176072D01*
X175050760Y-99222752D01*
X175040096Y-99258929D01*
X175028245Y-99287557D01*
X175014291Y-99311590D01*
X174997321Y-99333984D01*
X174976418Y-99357694D01*
X174969089Y-99365672D01*
X174941739Y-99393645D01*
X174920069Y-99408452D01*
X174895272Y-99414244D01*
X174864023Y-99415181D01*
X174802745Y-99404867D01*
X174750680Y-99374044D01*
X174707998Y-99322887D01*
X174674865Y-99251575D01*
X174660004Y-99200692D01*
X174650406Y-99145392D01*
X174644976Y-99079145D01*
X174643407Y-99005998D01*
X174645391Y-98929995D01*
X174650621Y-98855180D01*
X174658790Y-98785598D01*
X174669590Y-98725294D01*
X174682713Y-98678312D01*
X174697853Y-98648698D01*
X174702309Y-98644152D01*
X174736890Y-98628346D01*
X174772391Y-98633139D01*
X174802765Y-98657656D01*
X174803636Y-98658826D01*
X174812994Y-98673246D01*
X174817916Y-98688300D01*
X174818513Y-98709297D01*
X174814901Y-98741549D01*
X174807194Y-98790365D01*
X174806545Y-98794292D01*
X174797609Y-98867031D01*
X174793201Y-98945509D01*
X174793159Y-99024219D01*
X174797319Y-99097653D01*
X174805519Y-99160303D01*
X174817597Y-99206662D01*
X174818811Y-99209708D01*
X174837655Y-99243340D01*
X174856725Y-99255156D01*
X174875479Y-99245906D01*
X174893377Y-99216339D01*
X174909877Y-99167203D01*
X174924436Y-99099249D01*
X174931446Y-99053937D01*
X174944929Y-98959748D01*
X174957254Y-98884836D01*
X174969489Y-98826009D01*
X174982701Y-98780077D01*
X174997957Y-98743847D01*
X175016325Y-98714130D01*
X175038871Y-98687734D01*
X175061011Y-98666522D01*
X175091859Y-98641357D01*
X175118385Y-98628973D01*
X175151066Y-98625100D01*
X175163035Y-98624959D01*
X175202752Y-98627868D01*
G36*
X175104842Y-98139606D02*
G01*
X175178729Y-98139930D01*
X175235272Y-98140678D01*
X175277089Y-98142024D01*
X175306797Y-98144138D01*
X175327013Y-98147192D01*
X175340354Y-98151358D01*
X175349438Y-98156808D01*
X175355307Y-98162114D01*
X175374987Y-98195118D01*
X175373221Y-98230283D01*
X175351757Y-98261747D01*
X175343377Y-98268976D01*
X175333654Y-98274626D01*
X175319901Y-98278891D01*
X175299429Y-98281965D01*
X175269552Y-98284044D01*
X175227581Y-98285322D01*
X175170829Y-98285993D01*
X175096607Y-98286251D01*
X175012577Y-98286292D01*
X174699525Y-98286292D01*
X174671816Y-98258583D01*
X174648503Y-98224429D01*
X174647663Y-98191298D01*
X174666685Y-98162114D01*
X174674258Y-98155534D01*
X174684027Y-98150371D01*
X174698611Y-98146456D01*
X174720625Y-98143616D01*
X174752688Y-98141679D01*
X174797415Y-98140475D01*
X174857425Y-98139831D01*
X174935334Y-98139576D01*
X175010996Y-98139537D01*
X175104842Y-98139606D01*
G37*
X175104842Y-98139606D02*
X175178729Y-98139930D01*
X175235272Y-98140678D01*
X175277089Y-98142024D01*
X175306797Y-98144138D01*
X175327013Y-98147192D01*
X175340354Y-98151358D01*
X175349438Y-98156808D01*
X175355307Y-98162114D01*
X175374987Y-98195118D01*
X175373221Y-98230283D01*
X175351757Y-98261747D01*
X175343377Y-98268976D01*
X175333654Y-98274626D01*
X175319901Y-98278891D01*
X175299429Y-98281965D01*
X175269552Y-98284044D01*
X175227581Y-98285322D01*
X175170829Y-98285993D01*
X175096607Y-98286251D01*
X175012577Y-98286292D01*
X174699525Y-98286292D01*
X174671816Y-98258583D01*
X174648503Y-98224429D01*
X174647663Y-98191298D01*
X174666685Y-98162114D01*
X174674258Y-98155534D01*
X174684027Y-98150371D01*
X174698611Y-98146456D01*
X174720625Y-98143616D01*
X174752688Y-98141679D01*
X174797415Y-98140475D01*
X174857425Y-98139831D01*
X174935334Y-98139576D01*
X175010996Y-98139537D01*
X175104842Y-98139606D01*
G36*
X174760866Y-89989581D02*
G01*
X174773129Y-89999944D01*
X174781490Y-90011096D01*
X174786697Y-90027257D01*
X174789497Y-90052650D01*
X174790636Y-90091494D01*
X174790861Y-90148012D01*
X174790862Y-90159112D01*
X174790862Y-90305048D01*
X175061796Y-90305048D01*
X175147194Y-90305144D01*
X175212904Y-90305581D01*
X175261814Y-90306580D01*
X175296813Y-90308364D01*
X175320789Y-90311155D01*
X175336633Y-90315175D01*
X175347231Y-90320647D01*
X175355307Y-90327626D01*
X175375152Y-90360558D01*
X175373588Y-90394938D01*
X175350946Y-90426116D01*
X175348140Y-90428406D01*
X175337532Y-90435863D01*
X175325121Y-90441545D01*
X175307890Y-90445691D01*
X175282824Y-90448542D01*
X175246907Y-90450338D01*
X175197123Y-90451320D01*
X175130457Y-90451728D01*
X175054629Y-90451803D01*
X174790862Y-90451803D01*
X174790862Y-90591165D01*
X174790458Y-90650970D01*
X174788880Y-90692374D01*
X174785587Y-90719544D01*
X174780032Y-90736646D01*
X174771671Y-90747849D01*
X174770218Y-90749209D01*
X174736979Y-90765567D01*
X174699402Y-90764120D01*
X174666685Y-90745314D01*
X174660338Y-90738042D01*
X174655306Y-90728665D01*
X174651436Y-90714683D01*
X174648577Y-90693596D01*
X174646575Y-90662903D01*
X174645279Y-90620103D01*
X174644538Y-90562697D01*
X174644198Y-90488182D01*
X174644108Y-90394059D01*
X174644107Y-90374032D01*
X174644203Y-90275227D01*
X174644582Y-90196520D01*
X174645373Y-90135429D01*
X174646710Y-90089475D01*
X174648723Y-90056178D01*
X174651546Y-90033056D01*
X174655309Y-90017630D01*
X174660145Y-90007421D01*
X174663862Y-90002479D01*
X174696398Y-89976835D01*
X174730178Y-89973733D01*
X174760866Y-89989581D01*
G37*
X174760866Y-89989581D02*
X174773129Y-89999944D01*
X174781490Y-90011096D01*
X174786697Y-90027257D01*
X174789497Y-90052650D01*
X174790636Y-90091494D01*
X174790861Y-90148012D01*
X174790862Y-90159112D01*
X174790862Y-90305048D01*
X175061796Y-90305048D01*
X175147194Y-90305144D01*
X175212904Y-90305581D01*
X175261814Y-90306580D01*
X175296813Y-90308364D01*
X175320789Y-90311155D01*
X175336633Y-90315175D01*
X175347231Y-90320647D01*
X175355307Y-90327626D01*
X175375152Y-90360558D01*
X175373588Y-90394938D01*
X175350946Y-90426116D01*
X175348140Y-90428406D01*
X175337532Y-90435863D01*
X175325121Y-90441545D01*
X175307890Y-90445691D01*
X175282824Y-90448542D01*
X175246907Y-90450338D01*
X175197123Y-90451320D01*
X175130457Y-90451728D01*
X175054629Y-90451803D01*
X174790862Y-90451803D01*
X174790862Y-90591165D01*
X174790458Y-90650970D01*
X174788880Y-90692374D01*
X174785587Y-90719544D01*
X174780032Y-90736646D01*
X174771671Y-90747849D01*
X174770218Y-90749209D01*
X174736979Y-90765567D01*
X174699402Y-90764120D01*
X174666685Y-90745314D01*
X174660338Y-90738042D01*
X174655306Y-90728665D01*
X174651436Y-90714683D01*
X174648577Y-90693596D01*
X174646575Y-90662903D01*
X174645279Y-90620103D01*
X174644538Y-90562697D01*
X174644198Y-90488182D01*
X174644108Y-90394059D01*
X174644107Y-90374032D01*
X174644203Y-90275227D01*
X174644582Y-90196520D01*
X174645373Y-90135429D01*
X174646710Y-90089475D01*
X174648723Y-90056178D01*
X174651546Y-90033056D01*
X174655309Y-90017630D01*
X174660145Y-90007421D01*
X174663862Y-90002479D01*
X174696398Y-89976835D01*
X174730178Y-89973733D01*
X174760866Y-89989581D01*
G36*
X172253384Y-93686468D02*
G01*
X172213953Y-93679223D01*
X172067549Y-93632961D01*
X171932843Y-93562616D01*
X171811128Y-93469516D01*
X171703695Y-93354988D01*
X171611836Y-93220360D01*
X171536844Y-93066960D01*
X171491306Y-92936541D01*
X171467381Y-92849377D01*
X171448791Y-92766004D01*
X171434932Y-92681024D01*
X171425199Y-92589035D01*
X171418989Y-92484638D01*
X171415699Y-92362432D01*
X171414772Y-92251945D01*
X171414522Y-92160811D01*
X172045830Y-92160811D01*
X172047305Y-92253195D01*
X172051690Y-92324568D01*
X172059586Y-92381281D01*
X172071118Y-92428128D01*
X172115063Y-92544331D01*
X172169091Y-92635457D01*
X172234067Y-92702295D01*
X172310853Y-92745635D01*
X172400315Y-92766266D01*
X172443773Y-92768352D01*
X172526032Y-92760652D01*
X172594394Y-92735011D01*
X172657818Y-92687622D01*
X172676415Y-92669421D01*
X172726694Y-92604718D01*
X172758904Y-92529934D01*
X172774496Y-92440338D01*
X172775644Y-92345988D01*
X172768064Y-92256499D01*
X172753237Y-92187982D01*
X172742101Y-92158225D01*
X172711752Y-92104592D01*
X172669069Y-92047765D01*
X172621165Y-91995918D01*
X172575149Y-91957222D01*
X172558269Y-91946946D01*
X172534630Y-91938958D01*
X172497016Y-91933279D01*
X172441833Y-91929644D01*
X172365488Y-91927789D01*
X172292829Y-91927406D01*
X172208118Y-91927665D01*
X172146866Y-91928713D01*
X172105075Y-91930955D01*
X172078747Y-91934794D01*
X172063883Y-91940635D01*
X172056487Y-91948882D01*
X172055309Y-91951433D01*
X172051681Y-91973600D01*
X172048714Y-92017320D01*
X172046675Y-92076689D01*
X172045831Y-92145804D01*
X172045830Y-92160811D01*
X171414522Y-92160811D01*
X171413875Y-91924323D01*
X171315395Y-91930599D01*
X171208543Y-91948421D01*
X171116700Y-91986333D01*
X171042158Y-92042720D01*
X170987212Y-92115969D01*
X170960400Y-92180465D01*
X170943502Y-92272877D01*
X170941075Y-92382889D01*
X170952226Y-92505344D01*
X170976058Y-92635086D01*
X171011678Y-92766958D01*
X171058191Y-92895802D01*
X171100731Y-92989434D01*
X171122576Y-93034483D01*
X171137832Y-93068844D01*
X171143785Y-93086319D01*
X171143594Y-93087267D01*
X171130260Y-93093297D01*
X171094916Y-93108355D01*
X171040949Y-93131023D01*
X170971744Y-93159885D01*
X170890688Y-93193523D01*
X170807966Y-93227716D01*
X170476651Y-93364414D01*
X170460681Y-93267180D01*
X170452668Y-93225036D01*
X170439209Y-93161681D01*
X170421527Y-93082543D01*
X170400844Y-92993049D01*
X170378380Y-92898627D01*
X170369251Y-92861027D01*
X170331522Y-92698363D01*
X170303236Y-92555950D01*
X170283820Y-92428473D01*
X170272702Y-92310616D01*
X170269312Y-92197062D01*
X170273077Y-92082495D01*
X170278226Y-92014469D01*
X170304121Y-91819837D01*
X170345423Y-91647471D01*
X170402701Y-91496530D01*
X170476522Y-91366175D01*
X170567456Y-91255566D01*
X170676070Y-91163865D01*
X170802933Y-91090230D01*
X170940200Y-91036461D01*
X170983985Y-91022813D01*
X171024989Y-91010927D01*
X171065417Y-91000666D01*
X171107478Y-90991887D01*
X171153379Y-90984452D01*
X171205328Y-90978220D01*
X171265533Y-90973050D01*
X171336200Y-90968804D01*
X171419537Y-90965340D01*
X171517753Y-90962519D01*
X171633053Y-90960200D01*
X171767647Y-90958243D01*
X171923741Y-90956509D01*
X172103543Y-90954857D01*
X172244524Y-90953676D01*
X173212470Y-90945730D01*
X173305618Y-90894244D01*
X173350493Y-90869863D01*
X173385349Y-90851720D01*
X173403902Y-90843065D01*
X173405159Y-90842757D01*
X173406597Y-90855986D01*
X173407922Y-90893674D01*
X173409097Y-90952817D01*
X173410085Y-91030414D01*
X173410847Y-91123464D01*
X173411348Y-91228965D01*
X173411549Y-91343916D01*
X173411551Y-91357622D01*
X173411551Y-91872487D01*
X173294848Y-91872487D01*
X173242108Y-91873365D01*
X173201774Y-91875708D01*
X173180148Y-91879079D01*
X173178146Y-91880569D01*
X173186531Y-91894196D01*
X173208540Y-91922243D01*
X173239449Y-91958697D01*
X173240164Y-91959515D01*
X173289691Y-92026038D01*
X173339423Y-92110052D01*
X173384474Y-92202063D01*
X173419958Y-92292579D01*
X173432084Y-92332433D01*
X173447485Y-92411745D01*
X173457313Y-92509065D01*
X173461428Y-92615484D01*
X173459689Y-92722093D01*
X173451956Y-92819983D01*
X173440829Y-92888487D01*
X173391496Y-93056480D01*
X173321190Y-93207719D01*
X173230781Y-93341218D01*
X173121143Y-93455994D01*
X172993147Y-93551063D01*
X172847666Y-93625440D01*
X172759389Y-93657526D01*
X172673587Y-93677635D01*
X172570584Y-93690962D01*
X172459882Y-93697128D01*
X172443773Y-93696926D01*
X172350981Y-93695756D01*
X172253384Y-93686468D01*
G37*
X172253384Y-93686468D02*
X172213953Y-93679223D01*
X172067549Y-93632961D01*
X171932843Y-93562616D01*
X171811128Y-93469516D01*
X171703695Y-93354988D01*
X171611836Y-93220360D01*
X171536844Y-93066960D01*
X171491306Y-92936541D01*
X171467381Y-92849377D01*
X171448791Y-92766004D01*
X171434932Y-92681024D01*
X171425199Y-92589035D01*
X171418989Y-92484638D01*
X171415699Y-92362432D01*
X171414772Y-92251945D01*
X171414522Y-92160811D01*
X172045830Y-92160811D01*
X172047305Y-92253195D01*
X172051690Y-92324568D01*
X172059586Y-92381281D01*
X172071118Y-92428128D01*
X172115063Y-92544331D01*
X172169091Y-92635457D01*
X172234067Y-92702295D01*
X172310853Y-92745635D01*
X172400315Y-92766266D01*
X172443773Y-92768352D01*
X172526032Y-92760652D01*
X172594394Y-92735011D01*
X172657818Y-92687622D01*
X172676415Y-92669421D01*
X172726694Y-92604718D01*
X172758904Y-92529934D01*
X172774496Y-92440338D01*
X172775644Y-92345988D01*
X172768064Y-92256499D01*
X172753237Y-92187982D01*
X172742101Y-92158225D01*
X172711752Y-92104592D01*
X172669069Y-92047765D01*
X172621165Y-91995918D01*
X172575149Y-91957222D01*
X172558269Y-91946946D01*
X172534630Y-91938958D01*
X172497016Y-91933279D01*
X172441833Y-91929644D01*
X172365488Y-91927789D01*
X172292829Y-91927406D01*
X172208118Y-91927665D01*
X172146866Y-91928713D01*
X172105075Y-91930955D01*
X172078747Y-91934794D01*
X172063883Y-91940635D01*
X172056487Y-91948882D01*
X172055309Y-91951433D01*
X172051681Y-91973600D01*
X172048714Y-92017320D01*
X172046675Y-92076689D01*
X172045831Y-92145804D01*
X172045830Y-92160811D01*
X171414522Y-92160811D01*
X171413875Y-91924323D01*
X171315395Y-91930599D01*
X171208543Y-91948421D01*
X171116700Y-91986333D01*
X171042158Y-92042720D01*
X170987212Y-92115969D01*
X170960400Y-92180465D01*
X170943502Y-92272877D01*
X170941075Y-92382889D01*
X170952226Y-92505344D01*
X170976058Y-92635086D01*
X171011678Y-92766958D01*
X171058191Y-92895802D01*
X171100731Y-92989434D01*
X171122576Y-93034483D01*
X171137832Y-93068844D01*
X171143785Y-93086319D01*
X171143594Y-93087267D01*
X171130260Y-93093297D01*
X171094916Y-93108355D01*
X171040949Y-93131023D01*
X170971744Y-93159885D01*
X170890688Y-93193523D01*
X170807966Y-93227716D01*
X170476651Y-93364414D01*
X170460681Y-93267180D01*
X170452668Y-93225036D01*
X170439209Y-93161681D01*
X170421527Y-93082543D01*
X170400844Y-92993049D01*
X170378380Y-92898627D01*
X170369251Y-92861027D01*
X170331522Y-92698363D01*
X170303236Y-92555950D01*
X170283820Y-92428473D01*
X170272702Y-92310616D01*
X170269312Y-92197062D01*
X170273077Y-92082495D01*
X170278226Y-92014469D01*
X170304121Y-91819837D01*
X170345423Y-91647471D01*
X170402701Y-91496530D01*
X170476522Y-91366175D01*
X170567456Y-91255566D01*
X170676070Y-91163865D01*
X170802933Y-91090230D01*
X170940200Y-91036461D01*
X170983985Y-91022813D01*
X171024989Y-91010927D01*
X171065417Y-91000666D01*
X171107478Y-90991887D01*
X171153379Y-90984452D01*
X171205328Y-90978220D01*
X171265533Y-90973050D01*
X171336200Y-90968804D01*
X171419537Y-90965340D01*
X171517753Y-90962519D01*
X171633053Y-90960200D01*
X171767647Y-90958243D01*
X171923741Y-90956509D01*
X172103543Y-90954857D01*
X172244524Y-90953676D01*
X173212470Y-90945730D01*
X173305618Y-90894244D01*
X173350493Y-90869863D01*
X173385349Y-90851720D01*
X173403902Y-90843065D01*
X173405159Y-90842757D01*
X173406597Y-90855986D01*
X173407922Y-90893674D01*
X173409097Y-90952817D01*
X173410085Y-91030414D01*
X173410847Y-91123464D01*
X173411348Y-91228965D01*
X173411549Y-91343916D01*
X173411551Y-91357622D01*
X173411551Y-91872487D01*
X173294848Y-91872487D01*
X173242108Y-91873365D01*
X173201774Y-91875708D01*
X173180148Y-91879079D01*
X173178146Y-91880569D01*
X173186531Y-91894196D01*
X173208540Y-91922243D01*
X173239449Y-91958697D01*
X173240164Y-91959515D01*
X173289691Y-92026038D01*
X173339423Y-92110052D01*
X173384474Y-92202063D01*
X173419958Y-92292579D01*
X173432084Y-92332433D01*
X173447485Y-92411745D01*
X173457313Y-92509065D01*
X173461428Y-92615484D01*
X173459689Y-92722093D01*
X173451956Y-92819983D01*
X173440829Y-92888487D01*
X173391496Y-93056480D01*
X173321190Y-93207719D01*
X173230781Y-93341218D01*
X173121143Y-93455994D01*
X172993147Y-93551063D01*
X172847666Y-93625440D01*
X172759389Y-93657526D01*
X172673587Y-93677635D01*
X172570584Y-93690962D01*
X172459882Y-93697128D01*
X172443773Y-93696926D01*
X172350981Y-93695756D01*
X172253384Y-93686468D01*
G36*
X173316327Y-102909054D02*
G01*
X173176938Y-102909893D01*
X173019387Y-102910498D01*
X172842539Y-102910905D01*
X172645258Y-102911150D01*
X172426408Y-102911267D01*
X172184855Y-102911295D01*
X171919463Y-102911267D01*
X171629097Y-102911220D01*
X171312621Y-102911190D01*
X171249794Y-102911189D01*
X170929985Y-102911172D01*
X170636509Y-102911112D01*
X170368238Y-102911002D01*
X170124046Y-102910833D01*
X169902805Y-102910597D01*
X169703388Y-102910284D01*
X169524668Y-102909885D01*
X169365519Y-102909393D01*
X169224814Y-102908797D01*
X169101424Y-102908090D01*
X168994224Y-102907263D01*
X168902086Y-102906307D01*
X168823883Y-102905213D01*
X168758489Y-102903973D01*
X168704776Y-102902578D01*
X168661617Y-102901018D01*
X168627885Y-102899286D01*
X168602453Y-102897372D01*
X168584195Y-102895268D01*
X168571982Y-102892966D01*
X168564689Y-102890455D01*
X168564507Y-102890363D01*
X168553366Y-102885192D01*
X168543279Y-102880885D01*
X168534194Y-102876121D01*
X168526060Y-102869578D01*
X168518824Y-102859935D01*
X168512434Y-102845871D01*
X168506837Y-102826063D01*
X168501981Y-102799191D01*
X168497814Y-102763933D01*
X168494284Y-102718968D01*
X168491339Y-102662974D01*
X168488925Y-102594629D01*
X168486992Y-102512614D01*
X168485486Y-102415605D01*
X168484356Y-102302282D01*
X168483550Y-102171323D01*
X168483014Y-102021407D01*
X168482765Y-101887914D01*
X169223983Y-101887914D01*
X169224117Y-102043969D01*
X169224551Y-102174467D01*
X169225337Y-102281310D01*
X169226524Y-102366398D01*
X169228165Y-102431635D01*
X169230309Y-102478921D01*
X169233007Y-102510157D01*
X169236310Y-102527246D01*
X169240269Y-102532088D01*
X169241146Y-102531753D01*
X169262079Y-102517885D01*
X169295260Y-102494732D01*
X169312041Y-102482754D01*
X169328788Y-102470369D01*
X169343763Y-102459237D01*
X169358442Y-102449288D01*
X169374297Y-102440451D01*
X169392803Y-102432657D01*
X169415433Y-102425835D01*
X169443661Y-102419916D01*
X169478961Y-102414829D01*
X169522806Y-102410504D01*
X169576670Y-102406871D01*
X169642028Y-102403860D01*
X169720352Y-102401401D01*
X169813116Y-102399423D01*
X169921795Y-102397858D01*
X170047861Y-102396634D01*
X170192790Y-102395681D01*
X170358054Y-102394930D01*
X170545127Y-102394311D01*
X170755483Y-102393752D01*
X170990596Y-102393185D01*
X171206589Y-102392655D01*
X171447383Y-102392155D01*
X171677122Y-102391895D01*
X171894341Y-102391868D01*
X172097570Y-102392067D01*
X172285344Y-102392486D01*
X172456193Y-102393118D01*
X172608651Y-102393956D01*
X172741251Y-102394992D01*
X172852524Y-102396220D01*
X172941004Y-102397633D01*
X173005223Y-102399225D01*
X173043713Y-102400987D01*
X173047781Y-102401321D01*
X173141096Y-102413466D01*
X173216038Y-102432427D01*
X173281442Y-102461302D01*
X173346141Y-102503190D01*
X173353200Y-102508429D01*
X173397821Y-102541884D01*
X173397821Y-101246734D01*
X173360065Y-101271655D01*
X173321265Y-101296447D01*
X173284317Y-101317440D01*
X173246636Y-101334935D01*
X173205636Y-101349230D01*
X173158731Y-101360623D01*
X173103335Y-101369413D01*
X173036864Y-101375898D01*
X172956731Y-101380377D01*
X172860350Y-101383150D01*
X172745137Y-101384513D01*
X172608505Y-101384767D01*
X172447868Y-101384209D01*
X172388230Y-101383893D01*
X171748889Y-101380325D01*
X172300297Y-100975298D01*
X172456724Y-100860554D01*
X172592936Y-100761143D01*
X172710738Y-100675990D01*
X172811932Y-100604022D01*
X172898325Y-100544166D01*
X172971722Y-100495348D01*
X173033925Y-100456495D01*
X173086741Y-100426534D01*
X173131973Y-100404391D01*
X173171426Y-100388993D01*
X173206906Y-100379266D01*
X173240216Y-100374137D01*
X173273161Y-100372532D01*
X173307545Y-100373379D01*
X173311867Y-100373595D01*
X173397879Y-100378054D01*
X173397821Y-98958692D01*
X173291370Y-99064265D01*
X173262254Y-99092913D01*
X173233924Y-99120090D01*
X173204816Y-99146989D01*
X173173368Y-99174803D01*
X173138017Y-99204725D01*
X173097202Y-99237946D01*
X173049359Y-99275661D01*
X172992927Y-99319060D01*
X172926342Y-99369338D01*
X172848043Y-99427688D01*
X172756467Y-99495300D01*
X172650052Y-99573369D01*
X172527235Y-99663088D01*
X172386453Y-99765648D01*
X172226145Y-99882242D01*
X172094646Y-99977809D01*
X171929444Y-100097749D01*
X171785000Y-100202380D01*
X171659942Y-100292648D01*
X171552900Y-100369503D01*
X171462502Y-100433891D01*
X171387377Y-100486761D01*
X171326152Y-100529060D01*
X171277458Y-100561736D01*
X171239922Y-100585738D01*
X171212173Y-100602013D01*
X171192840Y-100611508D01*
X171180551Y-100615173D01*
X171174090Y-100614071D01*
X171156896Y-100600724D01*
X171120503Y-100571866D01*
X171067072Y-100529240D01*
X170998767Y-100474585D01*
X170917751Y-100409644D01*
X170826188Y-100336158D01*
X170726240Y-100255868D01*
X170620072Y-100170515D01*
X170509845Y-100081840D01*
X170397724Y-99991586D01*
X170336092Y-99941944D01*
X170285872Y-99901493D01*
X170176452Y-99813302D01*
X170071626Y-99728754D01*
X169973559Y-99649592D01*
X169884414Y-99577556D01*
X169806353Y-99514387D01*
X169741540Y-99461827D01*
X169692138Y-99421617D01*
X169663335Y-99398000D01*
X169555626Y-99306290D01*
X169458428Y-99218060D01*
X169374924Y-99136403D01*
X169308296Y-99064410D01*
X169267447Y-99013319D01*
X169223983Y-98952907D01*
X169223983Y-100342298D01*
X169305514Y-100341908D01*
X169365454Y-100345791D01*
X169421025Y-100360390D01*
X169473703Y-100382988D01*
X169503463Y-100397678D01*
X169532951Y-100413472D01*
X169564124Y-100431814D01*
X169598941Y-100454145D01*
X169639358Y-100481909D01*
X169687334Y-100516549D01*
X169744826Y-100559507D01*
X169813791Y-100612227D01*
X169896187Y-100676151D01*
X169993972Y-100752721D01*
X170109103Y-100843381D01*
X170243538Y-100949574D01*
X170258707Y-100961568D01*
X170788260Y-101380325D01*
X170201770Y-101384378D01*
X170026099Y-101385195D01*
X169877380Y-101385021D01*
X169755123Y-101383849D01*
X169658837Y-101381669D01*
X169588031Y-101378474D01*
X169542217Y-101374256D01*
X169533527Y-101372838D01*
X169441983Y-101350591D01*
X169359456Y-101321443D01*
X169293101Y-101288182D01*
X169264958Y-101268200D01*
X169223983Y-101233722D01*
X169223983Y-101887914D01*
X168482765Y-101887914D01*
X168482697Y-101851213D01*
X168482547Y-101659418D01*
X168482511Y-101444702D01*
X168482537Y-101205743D01*
X168482573Y-100941220D01*
X168482578Y-100818088D01*
X168482578Y-98847189D01*
X168598758Y-98847189D01*
X168740139Y-98834789D01*
X168870532Y-98797364D01*
X168990710Y-98734577D01*
X169022254Y-98709373D01*
X170336092Y-98709373D01*
X170428767Y-98658146D01*
X170521443Y-98606919D01*
X173212470Y-98606919D01*
X173305146Y-98658146D01*
X173397821Y-98709373D01*
X173397821Y-98103396D01*
X173397779Y-97958734D01*
X173397589Y-97839244D01*
X173397156Y-97742642D01*
X173396384Y-97666642D01*
X173395178Y-97608957D01*
X173393442Y-97567301D01*
X173391080Y-97539389D01*
X173387998Y-97522935D01*
X173384099Y-97515652D01*
X173379288Y-97515255D01*
X173373470Y-97519458D01*
X173373422Y-97519501D01*
X173348380Y-97536813D01*
X173307663Y-97559736D01*
X173267016Y-97579981D01*
X173185010Y-97618379D01*
X170336092Y-97626211D01*
X170336092Y-98709373D01*
X169022254Y-98709373D01*
X169101450Y-98646094D01*
X169131359Y-98616157D01*
X169216196Y-98508466D01*
X169278069Y-98389725D01*
X169317007Y-98263460D01*
X169333038Y-98133197D01*
X169326190Y-98002465D01*
X169296491Y-97874788D01*
X169243968Y-97753695D01*
X169168651Y-97642712D01*
X169123211Y-97592868D01*
X169011800Y-97499983D01*
X168889283Y-97431873D01*
X168757063Y-97389129D01*
X168616540Y-97372347D01*
X168602715Y-97372124D01*
X168482582Y-97371244D01*
X168482580Y-97318443D01*
X168488937Y-97271604D01*
X168504404Y-97228817D01*
X168506002Y-97225989D01*
X168511016Y-97216325D01*
X168514921Y-97207451D01*
X168518855Y-97199335D01*
X168523954Y-97191943D01*
X168531356Y-97185245D01*
X168542199Y-97179208D01*
X168557620Y-97173801D01*
X168578757Y-97168990D01*
X168606747Y-97164745D01*
X168642727Y-97161032D01*
X168687835Y-97157821D01*
X168743208Y-97155078D01*
X168809985Y-97152772D01*
X168889301Y-97150871D01*
X168982295Y-97149342D01*
X169090105Y-97148154D01*
X169213867Y-97147274D01*
X169354719Y-97146670D01*
X169513798Y-97146311D01*
X169692243Y-97146165D01*
X169891190Y-97146198D01*
X170111777Y-97146380D01*
X170355141Y-97146677D01*
X170622420Y-97147059D01*
X170914751Y-97147492D01*
X171233272Y-97147945D01*
X171272078Y-97147998D01*
X171592630Y-97148404D01*
X171886860Y-97148749D01*
X172155904Y-97149069D01*
X172400900Y-97149400D01*
X172622985Y-97149779D01*
X172823295Y-97150243D01*
X173002967Y-97150828D01*
X173163138Y-97151570D01*
X173304946Y-97152506D01*
X173429527Y-97153673D01*
X173538018Y-97155107D01*
X173631555Y-97156844D01*
X173711277Y-97158922D01*
X173778320Y-97161376D01*
X173833821Y-97164244D01*
X173878916Y-97167561D01*
X173914743Y-97171364D01*
X173942439Y-97175690D01*
X173963141Y-97180575D01*
X173977985Y-97186055D01*
X173988108Y-97192168D01*
X173994648Y-97198950D01*
X173998741Y-97206437D01*
X174001524Y-97214666D01*
X174004135Y-97223673D01*
X174007710Y-97233495D01*
X174008798Y-97235894D01*
X174011244Y-97243435D01*
X174013490Y-97256056D01*
X174015546Y-97274859D01*
X174017420Y-97300947D01*
X174019119Y-97335422D01*
X174020651Y-97379385D01*
X174022025Y-97433939D01*
X174023248Y-97500185D01*
X174024329Y-97579226D01*
X174025275Y-97672163D01*
X174026095Y-97780099D01*
X174026795Y-97904136D01*
X174027386Y-98045376D01*
X174027873Y-98204921D01*
X174028267Y-98383872D01*
X174028573Y-98583332D01*
X174028801Y-98804404D01*
X174028958Y-99048188D01*
X174029053Y-99315787D01*
X174029093Y-99608303D01*
X174029086Y-99926839D01*
X174029076Y-100030021D01*
X174029024Y-100355623D01*
X174028939Y-100654881D01*
X174028811Y-100928909D01*
X174028633Y-101178824D01*
X174028396Y-101405740D01*
X174028090Y-101610773D01*
X174027708Y-101795038D01*
X174027240Y-101959650D01*
X174026678Y-102105725D01*
X174026013Y-102234376D01*
X174025236Y-102346721D01*
X174024339Y-102443874D01*
X174023313Y-102526950D01*
X174022149Y-102597064D01*
X174020839Y-102655332D01*
X174019373Y-102702869D01*
X174017744Y-102740790D01*
X174015941Y-102770210D01*
X174013958Y-102792245D01*
X174011784Y-102808010D01*
X174009411Y-102818620D01*
X174007239Y-102824404D01*
X174002904Y-102834684D01*
X173999707Y-102844122D01*
X173996513Y-102852755D01*
X173992186Y-102860619D01*
X173985592Y-102867748D01*
X173975595Y-102874179D01*
X173961060Y-102879947D01*
X173940851Y-102885089D01*
X173913833Y-102889640D01*
X173878871Y-102893635D01*
X173834829Y-102897111D01*
X173780572Y-102900102D01*
X173714965Y-102902646D01*
X173636872Y-102904777D01*
X173545158Y-102906532D01*
X173438688Y-102907945D01*
X173397821Y-102908315D01*
X173316327Y-102909054D01*
G37*
X173316327Y-102909054D02*
X173176938Y-102909893D01*
X173019387Y-102910498D01*
X172842539Y-102910905D01*
X172645258Y-102911150D01*
X172426408Y-102911267D01*
X172184855Y-102911295D01*
X171919463Y-102911267D01*
X171629097Y-102911220D01*
X171312621Y-102911190D01*
X171249794Y-102911189D01*
X170929985Y-102911172D01*
X170636509Y-102911112D01*
X170368238Y-102911002D01*
X170124046Y-102910833D01*
X169902805Y-102910597D01*
X169703388Y-102910284D01*
X169524668Y-102909885D01*
X169365519Y-102909393D01*
X169224814Y-102908797D01*
X169101424Y-102908090D01*
X168994224Y-102907263D01*
X168902086Y-102906307D01*
X168823883Y-102905213D01*
X168758489Y-102903973D01*
X168704776Y-102902578D01*
X168661617Y-102901018D01*
X168627885Y-102899286D01*
X168602453Y-102897372D01*
X168584195Y-102895268D01*
X168571982Y-102892966D01*
X168564689Y-102890455D01*
X168564507Y-102890363D01*
X168553366Y-102885192D01*
X168543279Y-102880885D01*
X168534194Y-102876121D01*
X168526060Y-102869578D01*
X168518824Y-102859935D01*
X168512434Y-102845871D01*
X168506837Y-102826063D01*
X168501981Y-102799191D01*
X168497814Y-102763933D01*
X168494284Y-102718968D01*
X168491339Y-102662974D01*
X168488925Y-102594629D01*
X168486992Y-102512614D01*
X168485486Y-102415605D01*
X168484356Y-102302282D01*
X168483550Y-102171323D01*
X168483014Y-102021407D01*
X168482765Y-101887914D01*
X169223983Y-101887914D01*
X169224117Y-102043969D01*
X169224551Y-102174467D01*
X169225337Y-102281310D01*
X169226524Y-102366398D01*
X169228165Y-102431635D01*
X169230309Y-102478921D01*
X169233007Y-102510157D01*
X169236310Y-102527246D01*
X169240269Y-102532088D01*
X169241146Y-102531753D01*
X169262079Y-102517885D01*
X169295260Y-102494732D01*
X169312041Y-102482754D01*
X169328788Y-102470369D01*
X169343763Y-102459237D01*
X169358442Y-102449288D01*
X169374297Y-102440451D01*
X169392803Y-102432657D01*
X169415433Y-102425835D01*
X169443661Y-102419916D01*
X169478961Y-102414829D01*
X169522806Y-102410504D01*
X169576670Y-102406871D01*
X169642028Y-102403860D01*
X169720352Y-102401401D01*
X169813116Y-102399423D01*
X169921795Y-102397858D01*
X170047861Y-102396634D01*
X170192790Y-102395681D01*
X170358054Y-102394930D01*
X170545127Y-102394311D01*
X170755483Y-102393752D01*
X170990596Y-102393185D01*
X171206589Y-102392655D01*
X171447383Y-102392155D01*
X171677122Y-102391895D01*
X171894341Y-102391868D01*
X172097570Y-102392067D01*
X172285344Y-102392486D01*
X172456193Y-102393118D01*
X172608651Y-102393956D01*
X172741251Y-102394992D01*
X172852524Y-102396220D01*
X172941004Y-102397633D01*
X173005223Y-102399225D01*
X173043713Y-102400987D01*
X173047781Y-102401321D01*
X173141096Y-102413466D01*
X173216038Y-102432427D01*
X173281442Y-102461302D01*
X173346141Y-102503190D01*
X173353200Y-102508429D01*
X173397821Y-102541884D01*
X173397821Y-101246734D01*
X173360065Y-101271655D01*
X173321265Y-101296447D01*
X173284317Y-101317440D01*
X173246636Y-101334935D01*
X173205636Y-101349230D01*
X173158731Y-101360623D01*
X173103335Y-101369413D01*
X173036864Y-101375898D01*
X172956731Y-101380377D01*
X172860350Y-101383150D01*
X172745137Y-101384513D01*
X172608505Y-101384767D01*
X172447868Y-101384209D01*
X172388230Y-101383893D01*
X171748889Y-101380325D01*
X172300297Y-100975298D01*
X172456724Y-100860554D01*
X172592936Y-100761143D01*
X172710738Y-100675990D01*
X172811932Y-100604022D01*
X172898325Y-100544166D01*
X172971722Y-100495348D01*
X173033925Y-100456495D01*
X173086741Y-100426534D01*
X173131973Y-100404391D01*
X173171426Y-100388993D01*
X173206906Y-100379266D01*
X173240216Y-100374137D01*
X173273161Y-100372532D01*
X173307545Y-100373379D01*
X173311867Y-100373595D01*
X173397879Y-100378054D01*
X173397821Y-98958692D01*
X173291370Y-99064265D01*
X173262254Y-99092913D01*
X173233924Y-99120090D01*
X173204816Y-99146989D01*
X173173368Y-99174803D01*
X173138017Y-99204725D01*
X173097202Y-99237946D01*
X173049359Y-99275661D01*
X172992927Y-99319060D01*
X172926342Y-99369338D01*
X172848043Y-99427688D01*
X172756467Y-99495300D01*
X172650052Y-99573369D01*
X172527235Y-99663088D01*
X172386453Y-99765648D01*
X172226145Y-99882242D01*
X172094646Y-99977809D01*
X171929444Y-100097749D01*
X171785000Y-100202380D01*
X171659942Y-100292648D01*
X171552900Y-100369503D01*
X171462502Y-100433891D01*
X171387377Y-100486761D01*
X171326152Y-100529060D01*
X171277458Y-100561736D01*
X171239922Y-100585738D01*
X171212173Y-100602013D01*
X171192840Y-100611508D01*
X171180551Y-100615173D01*
X171174090Y-100614071D01*
X171156896Y-100600724D01*
X171120503Y-100571866D01*
X171067072Y-100529240D01*
X170998767Y-100474585D01*
X170917751Y-100409644D01*
X170826188Y-100336158D01*
X170726240Y-100255868D01*
X170620072Y-100170515D01*
X170509845Y-100081840D01*
X170397724Y-99991586D01*
X170336092Y-99941944D01*
X170285872Y-99901493D01*
X170176452Y-99813302D01*
X170071626Y-99728754D01*
X169973559Y-99649592D01*
X169884414Y-99577556D01*
X169806353Y-99514387D01*
X169741540Y-99461827D01*
X169692138Y-99421617D01*
X169663335Y-99398000D01*
X169555626Y-99306290D01*
X169458428Y-99218060D01*
X169374924Y-99136403D01*
X169308296Y-99064410D01*
X169267447Y-99013319D01*
X169223983Y-98952907D01*
X169223983Y-100342298D01*
X169305514Y-100341908D01*
X169365454Y-100345791D01*
X169421025Y-100360390D01*
X169473703Y-100382988D01*
X169503463Y-100397678D01*
X169532951Y-100413472D01*
X169564124Y-100431814D01*
X169598941Y-100454145D01*
X169639358Y-100481909D01*
X169687334Y-100516549D01*
X169744826Y-100559507D01*
X169813791Y-100612227D01*
X169896187Y-100676151D01*
X169993972Y-100752721D01*
X170109103Y-100843381D01*
X170243538Y-100949574D01*
X170258707Y-100961568D01*
X170788260Y-101380325D01*
X170201770Y-101384378D01*
X170026099Y-101385195D01*
X169877380Y-101385021D01*
X169755123Y-101383849D01*
X169658837Y-101381669D01*
X169588031Y-101378474D01*
X169542217Y-101374256D01*
X169533527Y-101372838D01*
X169441983Y-101350591D01*
X169359456Y-101321443D01*
X169293101Y-101288182D01*
X169264958Y-101268200D01*
X169223983Y-101233722D01*
X169223983Y-101887914D01*
X168482765Y-101887914D01*
X168482697Y-101851213D01*
X168482547Y-101659418D01*
X168482511Y-101444702D01*
X168482537Y-101205743D01*
X168482573Y-100941220D01*
X168482578Y-100818088D01*
X168482578Y-98847189D01*
X168598758Y-98847189D01*
X168740139Y-98834789D01*
X168870532Y-98797364D01*
X168990710Y-98734577D01*
X169022254Y-98709373D01*
X170336092Y-98709373D01*
X170428767Y-98658146D01*
X170521443Y-98606919D01*
X173212470Y-98606919D01*
X173305146Y-98658146D01*
X173397821Y-98709373D01*
X173397821Y-98103396D01*
X173397779Y-97958734D01*
X173397589Y-97839244D01*
X173397156Y-97742642D01*
X173396384Y-97666642D01*
X173395178Y-97608957D01*
X173393442Y-97567301D01*
X173391080Y-97539389D01*
X173387998Y-97522935D01*
X173384099Y-97515652D01*
X173379288Y-97515255D01*
X173373470Y-97519458D01*
X173373422Y-97519501D01*
X173348380Y-97536813D01*
X173307663Y-97559736D01*
X173267016Y-97579981D01*
X173185010Y-97618379D01*
X170336092Y-97626211D01*
X170336092Y-98709373D01*
X169022254Y-98709373D01*
X169101450Y-98646094D01*
X169131359Y-98616157D01*
X169216196Y-98508466D01*
X169278069Y-98389725D01*
X169317007Y-98263460D01*
X169333038Y-98133197D01*
X169326190Y-98002465D01*
X169296491Y-97874788D01*
X169243968Y-97753695D01*
X169168651Y-97642712D01*
X169123211Y-97592868D01*
X169011800Y-97499983D01*
X168889283Y-97431873D01*
X168757063Y-97389129D01*
X168616540Y-97372347D01*
X168602715Y-97372124D01*
X168482582Y-97371244D01*
X168482580Y-97318443D01*
X168488937Y-97271604D01*
X168504404Y-97228817D01*
X168506002Y-97225989D01*
X168511016Y-97216325D01*
X168514921Y-97207451D01*
X168518855Y-97199335D01*
X168523954Y-97191943D01*
X168531356Y-97185245D01*
X168542199Y-97179208D01*
X168557620Y-97173801D01*
X168578757Y-97168990D01*
X168606747Y-97164745D01*
X168642727Y-97161032D01*
X168687835Y-97157821D01*
X168743208Y-97155078D01*
X168809985Y-97152772D01*
X168889301Y-97150871D01*
X168982295Y-97149342D01*
X169090105Y-97148154D01*
X169213867Y-97147274D01*
X169354719Y-97146670D01*
X169513798Y-97146311D01*
X169692243Y-97146165D01*
X169891190Y-97146198D01*
X170111777Y-97146380D01*
X170355141Y-97146677D01*
X170622420Y-97147059D01*
X170914751Y-97147492D01*
X171233272Y-97147945D01*
X171272078Y-97147998D01*
X171592630Y-97148404D01*
X171886860Y-97148749D01*
X172155904Y-97149069D01*
X172400900Y-97149400D01*
X172622985Y-97149779D01*
X172823295Y-97150243D01*
X173002967Y-97150828D01*
X173163138Y-97151570D01*
X173304946Y-97152506D01*
X173429527Y-97153673D01*
X173538018Y-97155107D01*
X173631555Y-97156844D01*
X173711277Y-97158922D01*
X173778320Y-97161376D01*
X173833821Y-97164244D01*
X173878916Y-97167561D01*
X173914743Y-97171364D01*
X173942439Y-97175690D01*
X173963141Y-97180575D01*
X173977985Y-97186055D01*
X173988108Y-97192168D01*
X173994648Y-97198950D01*
X173998741Y-97206437D01*
X174001524Y-97214666D01*
X174004135Y-97223673D01*
X174007710Y-97233495D01*
X174008798Y-97235894D01*
X174011244Y-97243435D01*
X174013490Y-97256056D01*
X174015546Y-97274859D01*
X174017420Y-97300947D01*
X174019119Y-97335422D01*
X174020651Y-97379385D01*
X174022025Y-97433939D01*
X174023248Y-97500185D01*
X174024329Y-97579226D01*
X174025275Y-97672163D01*
X174026095Y-97780099D01*
X174026795Y-97904136D01*
X174027386Y-98045376D01*
X174027873Y-98204921D01*
X174028267Y-98383872D01*
X174028573Y-98583332D01*
X174028801Y-98804404D01*
X174028958Y-99048188D01*
X174029053Y-99315787D01*
X174029093Y-99608303D01*
X174029086Y-99926839D01*
X174029076Y-100030021D01*
X174029024Y-100355623D01*
X174028939Y-100654881D01*
X174028811Y-100928909D01*
X174028633Y-101178824D01*
X174028396Y-101405740D01*
X174028090Y-101610773D01*
X174027708Y-101795038D01*
X174027240Y-101959650D01*
X174026678Y-102105725D01*
X174026013Y-102234376D01*
X174025236Y-102346721D01*
X174024339Y-102443874D01*
X174023313Y-102526950D01*
X174022149Y-102597064D01*
X174020839Y-102655332D01*
X174019373Y-102702869D01*
X174017744Y-102740790D01*
X174015941Y-102770210D01*
X174013958Y-102792245D01*
X174011784Y-102808010D01*
X174009411Y-102818620D01*
X174007239Y-102824404D01*
X174002904Y-102834684D01*
X173999707Y-102844122D01*
X173996513Y-102852755D01*
X173992186Y-102860619D01*
X173985592Y-102867748D01*
X173975595Y-102874179D01*
X173961060Y-102879947D01*
X173940851Y-102885089D01*
X173913833Y-102889640D01*
X173878871Y-102893635D01*
X173834829Y-102897111D01*
X173780572Y-102900102D01*
X173714965Y-102902646D01*
X173636872Y-102904777D01*
X173545158Y-102906532D01*
X173438688Y-102907945D01*
X173397821Y-102908315D01*
X173316327Y-102909054D01*
D13*
%TO.C,Q2*%
X106680000Y-72680000D02*
X106030000Y-72680000D01*
X106680000Y-72680000D02*
X108355000Y-72680000D01*
X106680000Y-69560000D02*
X106030000Y-69560000D01*
X106680000Y-69560000D02*
X107330000Y-69560000D01*
D15*
%TO.C,U1*%
X165080000Y-43970000D02*
X165080000Y-98370000D01*
X137180000Y-43970000D02*
X165080000Y-43970000D01*
X137180000Y-98370000D02*
X137180000Y-43970000D01*
X165080000Y-98370000D02*
X137180000Y-98370000D01*
D13*
%TO.C,D2*%
X98010000Y-70160000D02*
X98010000Y-72080000D01*
X98010000Y-72080000D02*
X100695000Y-72080000D01*
X100695000Y-70160000D02*
X98010000Y-70160000D01*
%TO.C,R3*%
X110262936Y-71655000D02*
X110717064Y-71655000D01*
X110262936Y-73125000D02*
X110717064Y-73125000D01*
%TO.C,J7*%
X129480000Y-44460000D02*
X129480000Y-43130000D01*
X129480000Y-45730000D02*
X129480000Y-53410000D01*
X129480000Y-45730000D02*
X132140000Y-45730000D01*
X132140000Y-45730000D02*
X132140000Y-53410000D01*
X129480000Y-53410000D02*
X132140000Y-53410000D01*
X129480000Y-43130000D02*
X130810000Y-43130000D01*
%TO.C,D1*%
X119126000Y-111099600D02*
X123952000Y-111099600D01*
X119126000Y-108178600D02*
X119126000Y-111099600D01*
X122936000Y-108178600D02*
X119126000Y-108178600D01*
X131681000Y-108305600D02*
G75*
G03*
X131681000Y-108305600I-4300000J0D01*
G01*
%TO.C,R7*%
X145452064Y-108485000D02*
X144997936Y-108485000D01*
X145452064Y-109955000D02*
X144997936Y-109955000D01*
%TO.C,R6*%
X145452064Y-107415000D02*
X144997936Y-107415000D01*
X145452064Y-105945000D02*
X144997936Y-105945000D01*
%TO.C,J3*%
X102616000Y-57658000D02*
X94996000Y-57658000D01*
X94996000Y-67818000D02*
X102616000Y-67818000D01*
X96266000Y-67818000D02*
X96266000Y-57658000D01*
X102616000Y-67818000D02*
X102616000Y-57658000D01*
X94996000Y-57658000D02*
X94996000Y-67818000D01*
%TO.C,D4*%
X150352000Y-103180000D02*
X147667000Y-103180000D01*
X147667000Y-103180000D02*
X147667000Y-105100000D01*
X147667000Y-105100000D02*
X150352000Y-105100000D01*
%TO.C,D3*%
X115260000Y-109585000D02*
X115260000Y-106900000D01*
X113340000Y-106900000D02*
X113340000Y-109585000D01*
X115260000Y-106900000D02*
X113340000Y-106900000D01*
%TO.C,D5*%
X150352000Y-105720000D02*
X147667000Y-105720000D01*
X147667000Y-107640000D02*
X150352000Y-107640000D01*
X147667000Y-105720000D02*
X147667000Y-107640000D01*
%TO.C,K1*%
X104090000Y-81390000D02*
X100490000Y-81390000D01*
X110090000Y-84790000D02*
X105890000Y-84790000D01*
X104090000Y-88190000D02*
X104090000Y-89690000D01*
X102290000Y-82790000D02*
X105890000Y-82790000D01*
X104090000Y-88190000D02*
X100490000Y-88190000D01*
X102290000Y-86790000D02*
X102290000Y-82790000D01*
X111940000Y-77340000D02*
X111940000Y-97140000D01*
X105890000Y-82790000D02*
X105890000Y-86790000D01*
X111940000Y-97140000D02*
X96340000Y-97140000D01*
X100490000Y-88190000D02*
X100490000Y-81390000D01*
X110090000Y-84790000D02*
X110090000Y-82290000D01*
X99940000Y-92890000D02*
X102390000Y-92890000D01*
X102290000Y-86790000D02*
X105890000Y-82790000D01*
X111940000Y-77340000D02*
X105340000Y-77340000D01*
X102940000Y-77340000D02*
X96340000Y-77340000D01*
X105890000Y-86790000D02*
X102290000Y-86790000D01*
X104090000Y-89690000D02*
X106590000Y-94290000D01*
X96340000Y-97140000D02*
X96340000Y-77340000D01*
X102290000Y-84790000D02*
X98090000Y-84790000D01*
X104090000Y-81390000D02*
X104090000Y-80590000D01*
X108340000Y-92890000D02*
X105840000Y-92890000D01*
X98090000Y-82290000D02*
X98090000Y-84790000D01*
D15*
%TO.C,RV1*%
X129225000Y-80818000D02*
X119695000Y-80818000D01*
X119695000Y-90348000D02*
X129225000Y-90348000D01*
X129225000Y-90348000D02*
X129225000Y-80818000D01*
X119695000Y-80818000D02*
X119695000Y-90348000D01*
D16*
X119060000Y-85598000D02*
G75*
G03*
X119060000Y-85598000I-100000J0D01*
G01*
D13*
%TO.C,R4*%
X110262936Y-70585000D02*
X110717064Y-70585000D01*
X110262936Y-69115000D02*
X110717064Y-69115000D01*
%TO.C,J5*%
X120650000Y-71155000D02*
X130870000Y-71155000D01*
X120650000Y-68495000D02*
X130870000Y-68495000D01*
X118050000Y-69825000D02*
X118050000Y-68495000D01*
X118050000Y-68495000D02*
X119380000Y-68495000D01*
X120650000Y-71155000D02*
X120650000Y-68495000D01*
X130870000Y-71155000D02*
X130870000Y-68495000D01*
%TO.C,J1*%
X96520000Y-109855000D02*
X96520000Y-102235000D01*
X96520000Y-102235000D02*
X111760000Y-102235000D01*
X96520000Y-108585000D02*
X111760000Y-108585000D01*
X111760000Y-109855000D02*
X111760000Y-102235000D01*
X96520000Y-109855000D02*
X111760000Y-109855000D01*
%TO.C,R2*%
X113565000Y-105002064D02*
X113565000Y-104547936D01*
X115035000Y-105002064D02*
X115035000Y-104547936D01*
%TO.C,J6*%
X156150000Y-106105000D02*
X156150000Y-104775000D01*
X163890000Y-106105000D02*
X163890000Y-103445000D01*
X158750000Y-106105000D02*
X158750000Y-103445000D01*
X158750000Y-106105000D02*
X163890000Y-106105000D01*
X158750000Y-103445000D02*
X163890000Y-103445000D01*
X157480000Y-106105000D02*
X156150000Y-106105000D01*
%TO.C,J4*%
X120650000Y-72330000D02*
X130870000Y-72330000D01*
X120650000Y-74990000D02*
X130870000Y-74990000D01*
X118050000Y-73660000D02*
X118050000Y-72330000D01*
X118050000Y-72330000D02*
X119380000Y-72330000D01*
X130870000Y-74990000D02*
X130870000Y-72330000D01*
X120650000Y-74990000D02*
X120650000Y-72330000D01*
%TO.C,R1*%
X133656336Y-94740400D02*
X134110464Y-94740400D01*
X133656336Y-93270400D02*
X134110464Y-93270400D01*
%TD*%
M02*
