M48
; DRILL file {KiCad (6.0.4)} date Tue May 30 10:31:37 2023
; FORMAT={-:-/ absolute / metric / decimal}
; #@! TF.CreationDate,2023-05-30T10:31:37-05:00
; #@! TF.GenerationSoftware,Kicad,Pcbnew,(6.0.4)
; #@! TF.FileFunction,Plated,1,2,PTH
FMAT,2
METRIC
; #@! TA.AperFunction,Plated,PTH,ViaDrill
T1C0.400
; #@! TA.AperFunction,Plated,PTH,ComponentDrill
T2C0.500
; #@! TA.AperFunction,Plated,PTH,ComponentDrill
T3C0.700
; #@! TA.AperFunction,Plated,PTH,ComponentDrill
T4C0.750
; #@! TA.AperFunction,Plated,PTH,ComponentDrill
T5C0.760
; #@! TA.AperFunction,Plated,PTH,ComponentDrill
T6C0.800
; #@! TA.AperFunction,Plated,PTH,ComponentDrill
T7C1.000
; #@! TA.AperFunction,Plated,PTH,ComponentDrill
T8C1.040
; #@! TA.AperFunction,Plated,PTH,ComponentDrill
T9C1.300
; #@! TA.AperFunction,Plated,PTH,ComponentDrill
T10C1.520
; #@! TA.AperFunction,Plated,PTH,ComponentDrill
T11C3.200
%
G90
G05
T1
X109.474Y-68.326
X113.157Y-73.914
X116.205Y-107.315
X117.907Y-80.061
X119.888Y-89.916
X126.797Y-57.175
X129.54Y-60.96
X130.277Y-94.031
X130.81Y-62.23
X131.699Y-83.82
X132.08Y-69.85
X132.08Y-90.805
X132.715Y-76.835
X134.823Y-92.151
X135.128Y-50.8
X140.335Y-55.245
X140.919Y-88.138
X140.919Y-90.653
X140.945Y-95.86
X140.97Y-78.105
X140.97Y-83.185
X140.97Y-85.547
X141.605Y-73.025
X142.875Y-98.146
X143.51Y-80.645
X145.415Y-83.185
X145.415Y-88.062
X145.44Y-85.446
X145.44Y-90.678
X146.05Y-73.025
X152.4Y-82.55
X152.527Y-55.969
X153.543Y-56.769
X156.718Y-74.676
X157.988Y-63.5
X160.02Y-60.325
X163.779Y-41.707
X165.862Y-48.006
X165.862Y-49.657
T2
X88.811Y-42.926
X88.888Y-110.719
X89.514Y-41.229
X89.514Y-44.623
X89.591Y-109.022
X89.591Y-112.416
X91.211Y-40.526
X91.211Y-45.326
X91.288Y-108.319
X91.288Y-113.119
X92.908Y-41.229
X92.908Y-44.623
X92.985Y-109.022
X92.985Y-112.416
X93.611Y-42.926
X93.688Y-110.719
X171.387Y-42.799
X171.463Y-110.592
X172.09Y-41.102
X172.09Y-44.496
X172.166Y-108.895
X172.166Y-112.289
X173.787Y-40.399
X173.787Y-45.199
X173.863Y-108.192
X173.863Y-112.992
X175.484Y-41.102
X175.484Y-44.496
X175.56Y-108.895
X175.56Y-112.289
X176.187Y-42.799
X176.263Y-110.592
T3
X118.618Y-93.98
X126.238Y-93.98
T4
X104.14Y-71.12
X105.41Y-71.12
X106.68Y-71.12
X132.99Y-99.212
X132.99Y-100.482
X132.99Y-101.752
T5
X124.968Y-48.423
X127.508Y-48.423
X130.048Y-48.423
T6
X109.484Y-45.481
X109.484Y-48.021
X109.484Y-50.561
X109.484Y-53.101
X109.484Y-55.641
X109.484Y-58.181
X109.484Y-60.721
X109.484Y-63.261
X117.104Y-45.481
X117.104Y-48.021
X117.104Y-50.561
X117.104Y-53.101
X117.104Y-55.641
X117.104Y-58.181
X117.104Y-60.721
X117.104Y-63.261
T7
X98.09Y-80.69
X110.09Y-80.69
X119.38Y-69.825
X119.38Y-73.66
X120.411Y-98.044
X121.92Y-69.825
X121.92Y-73.66
X122.951Y-98.044
X124.46Y-58.42
X124.46Y-60.96
X124.46Y-69.825
X124.46Y-73.66
X125.491Y-98.044
X127.0Y-69.825
X127.0Y-73.66
X129.54Y-69.825
X129.54Y-73.66
X169.418Y-88.91
X169.418Y-91.45
X169.418Y-93.99
X173.609Y-59.436
X173.609Y-61.976
X173.609Y-64.516
X173.609Y-67.056
X175.311Y-88.9
X175.311Y-91.44
X175.311Y-93.98
T8
X138.43Y-51.36
X138.43Y-53.9
X138.43Y-56.44
X138.43Y-58.98
X138.43Y-61.52
X138.43Y-64.06
X138.43Y-66.6
X138.43Y-69.14
X138.43Y-71.68
X138.43Y-74.22
X138.43Y-76.76
X138.43Y-79.3
X138.43Y-81.84
X138.43Y-84.38
X138.43Y-86.92
X138.43Y-89.46
X138.43Y-92.0
X138.43Y-94.54
X138.43Y-97.08
X163.83Y-51.36
X163.83Y-53.9
X163.83Y-56.44
X163.83Y-58.98
X163.83Y-61.52
X163.83Y-64.06
X163.83Y-66.6
X163.83Y-69.14
X163.83Y-71.68
X163.83Y-74.22
X163.83Y-76.76
X163.83Y-79.3
X163.83Y-81.84
X163.83Y-84.38
X163.83Y-86.92
X163.83Y-89.46
X163.83Y-92.0
X163.83Y-94.54
X163.83Y-97.08
T9
X98.09Y-92.89
X104.14Y-78.74
X110.14Y-92.94
T10
X98.806Y-49.022
X98.806Y-54.102
X98.806Y-60.198
X98.806Y-65.278
X99.06Y-106.045
X104.14Y-106.045
X109.22Y-106.045
T11
X91.211Y-42.926
X91.288Y-110.719
X173.787Y-42.799
X173.863Y-110.592
T0
M30
