%TF.GenerationSoftware,KiCad,Pcbnew,(6.0.4)*%
%TF.CreationDate,2023-05-30T10:31:35-05:00*%
%TF.ProjectId,Modulo de Practicas uPy,4d6f6475-6c6f-4206-9465-205072616374,rev?*%
%TF.SameCoordinates,Original*%
%TF.FileFunction,AssemblyDrawing,Top*%
%FSLAX46Y46*%
G04 Gerber Fmt 4.6, Leading zero omitted, Abs format (unit mm)*
G04 Created by KiCad (PCBNEW (6.0.4)) date 2023-05-30 10:31:35*
%MOMM*%
%LPD*%
G01*
G04 APERTURE LIST*
%ADD10C,0.150000*%
%ADD11C,0.080000*%
%ADD12C,0.100000*%
%ADD13C,0.127000*%
%ADD14C,0.280000*%
%ADD15C,0.120000*%
%ADD16C,0.200000*%
G04 APERTURE END LIST*
D10*
%TO.C,IO18*%
X169870380Y-92926590D02*
X168870380Y-92926590D01*
X168870380Y-92259923D02*
X168870380Y-92069447D01*
X168918000Y-91974209D01*
X169013238Y-91878971D01*
X169203714Y-91831352D01*
X169537047Y-91831352D01*
X169727523Y-91878971D01*
X169822761Y-91974209D01*
X169870380Y-92069447D01*
X169870380Y-92259923D01*
X169822761Y-92355161D01*
X169727523Y-92450400D01*
X169537047Y-92498019D01*
X169203714Y-92498019D01*
X169013238Y-92450400D01*
X168918000Y-92355161D01*
X168870380Y-92259923D01*
X169870380Y-90878971D02*
X169870380Y-91450400D01*
X169870380Y-91164685D02*
X168870380Y-91164685D01*
X169013238Y-91259923D01*
X169108476Y-91355161D01*
X169156095Y-91450400D01*
X169298952Y-90307542D02*
X169251333Y-90402780D01*
X169203714Y-90450400D01*
X169108476Y-90498019D01*
X169060857Y-90498019D01*
X168965619Y-90450400D01*
X168918000Y-90402780D01*
X168870380Y-90307542D01*
X168870380Y-90117066D01*
X168918000Y-90021828D01*
X168965619Y-89974209D01*
X169060857Y-89926590D01*
X169108476Y-89926590D01*
X169203714Y-89974209D01*
X169251333Y-90021828D01*
X169298952Y-90117066D01*
X169298952Y-90307542D01*
X169346571Y-90402780D01*
X169394190Y-90450400D01*
X169489428Y-90498019D01*
X169679904Y-90498019D01*
X169775142Y-90450400D01*
X169822761Y-90402780D01*
X169870380Y-90307542D01*
X169870380Y-90117066D01*
X169822761Y-90021828D01*
X169775142Y-89974209D01*
X169679904Y-89926590D01*
X169489428Y-89926590D01*
X169394190Y-89974209D01*
X169346571Y-90021828D01*
X169298952Y-90117066D01*
%TO.C,Q2*%
X102695714Y-67877619D02*
X102743333Y-67830000D01*
X102838571Y-67782380D01*
X103076666Y-67782380D01*
X103171904Y-67830000D01*
X103219523Y-67877619D01*
X103267142Y-67972857D01*
X103267142Y-68068095D01*
X103219523Y-68210952D01*
X102648095Y-68782380D01*
X103267142Y-68782380D01*
X103695714Y-68782380D02*
X103695714Y-67782380D01*
X104267142Y-68782380D01*
X104267142Y-67782380D01*
X104648095Y-67782380D02*
X105314761Y-67782380D01*
X104886190Y-68782380D01*
X105886190Y-67782380D02*
X105981428Y-67782380D01*
X106076666Y-67830000D01*
X106124285Y-67877619D01*
X106171904Y-67972857D01*
X106219523Y-68163333D01*
X106219523Y-68401428D01*
X106171904Y-68591904D01*
X106124285Y-68687142D01*
X106076666Y-68734761D01*
X105981428Y-68782380D01*
X105886190Y-68782380D01*
X105790952Y-68734761D01*
X105743333Y-68687142D01*
X105695714Y-68591904D01*
X105648095Y-68401428D01*
X105648095Y-68163333D01*
X105695714Y-67972857D01*
X105743333Y-67877619D01*
X105790952Y-67830000D01*
X105886190Y-67782380D01*
X106838571Y-67782380D02*
X106933809Y-67782380D01*
X107029047Y-67830000D01*
X107076666Y-67877619D01*
X107124285Y-67972857D01*
X107171904Y-68163333D01*
X107171904Y-68401428D01*
X107124285Y-68591904D01*
X107076666Y-68687142D01*
X107029047Y-68734761D01*
X106933809Y-68782380D01*
X106838571Y-68782380D01*
X106743333Y-68734761D01*
X106695714Y-68687142D01*
X106648095Y-68591904D01*
X106600476Y-68401428D01*
X106600476Y-68163333D01*
X106648095Y-67972857D01*
X106695714Y-67877619D01*
X106743333Y-67830000D01*
X106838571Y-67782380D01*
X107552857Y-67877619D02*
X107600476Y-67830000D01*
X107695714Y-67782380D01*
X107933809Y-67782380D01*
X108029047Y-67830000D01*
X108076666Y-67877619D01*
X108124285Y-67972857D01*
X108124285Y-68068095D01*
X108076666Y-68210952D01*
X107505238Y-68782380D01*
X108124285Y-68782380D01*
X105314761Y-71667619D02*
X105219523Y-71620000D01*
X105124285Y-71524761D01*
X104981428Y-71381904D01*
X104886190Y-71334285D01*
X104790952Y-71334285D01*
X104838571Y-71572380D02*
X104743333Y-71524761D01*
X104648095Y-71429523D01*
X104600476Y-71239047D01*
X104600476Y-70905714D01*
X104648095Y-70715238D01*
X104743333Y-70620000D01*
X104838571Y-70572380D01*
X105029047Y-70572380D01*
X105124285Y-70620000D01*
X105219523Y-70715238D01*
X105267142Y-70905714D01*
X105267142Y-71239047D01*
X105219523Y-71429523D01*
X105124285Y-71524761D01*
X105029047Y-71572380D01*
X104838571Y-71572380D01*
X105648095Y-70667619D02*
X105695714Y-70620000D01*
X105790952Y-70572380D01*
X106029047Y-70572380D01*
X106124285Y-70620000D01*
X106171904Y-70667619D01*
X106219523Y-70762857D01*
X106219523Y-70858095D01*
X106171904Y-71000952D01*
X105600476Y-71572380D01*
X106219523Y-71572380D01*
%TO.C,REF\u002A\u002A*%
X89878066Y-43378380D02*
X89544733Y-42902190D01*
X89306638Y-43378380D02*
X89306638Y-42378380D01*
X89687590Y-42378380D01*
X89782828Y-42426000D01*
X89830447Y-42473619D01*
X89878066Y-42568857D01*
X89878066Y-42711714D01*
X89830447Y-42806952D01*
X89782828Y-42854571D01*
X89687590Y-42902190D01*
X89306638Y-42902190D01*
X90306638Y-42854571D02*
X90639971Y-42854571D01*
X90782828Y-43378380D02*
X90306638Y-43378380D01*
X90306638Y-42378380D01*
X90782828Y-42378380D01*
X91544733Y-42854571D02*
X91211400Y-42854571D01*
X91211400Y-43378380D02*
X91211400Y-42378380D01*
X91687590Y-42378380D01*
X92211400Y-42378380D02*
X92211400Y-42616476D01*
X91973304Y-42521238D02*
X92211400Y-42616476D01*
X92449495Y-42521238D01*
X92068542Y-42806952D02*
X92211400Y-42616476D01*
X92354257Y-42806952D01*
X92973304Y-42378380D02*
X92973304Y-42616476D01*
X92735209Y-42521238D02*
X92973304Y-42616476D01*
X93211400Y-42521238D01*
X92830447Y-42806952D02*
X92973304Y-42616476D01*
X93116161Y-42806952D01*
%TO.C,D2*%
X97695000Y-73222380D02*
X97218809Y-73222380D01*
X97218809Y-72222380D01*
X98504523Y-73222380D02*
X98028333Y-73222380D01*
X98028333Y-72222380D01*
X99266428Y-72555714D02*
X99266428Y-73222380D01*
X99028333Y-72174761D02*
X98790238Y-72889047D01*
X99409285Y-72889047D01*
X100314047Y-73222380D02*
X99742619Y-73222380D01*
X100028333Y-73222380D02*
X100028333Y-72222380D01*
X99933095Y-72365238D01*
X99837857Y-72460476D01*
X99742619Y-72508095D01*
X101171190Y-72555714D02*
X101171190Y-73222380D01*
X100933095Y-72174761D02*
X100695000Y-72889047D01*
X101314047Y-72889047D01*
X101837857Y-72650952D02*
X101742619Y-72603333D01*
X101695000Y-72555714D01*
X101647380Y-72460476D01*
X101647380Y-72412857D01*
X101695000Y-72317619D01*
X101742619Y-72270000D01*
X101837857Y-72222380D01*
X102028333Y-72222380D01*
X102123571Y-72270000D01*
X102171190Y-72317619D01*
X102218809Y-72412857D01*
X102218809Y-72460476D01*
X102171190Y-72555714D01*
X102123571Y-72603333D01*
X102028333Y-72650952D01*
X101837857Y-72650952D01*
X101742619Y-72698571D01*
X101695000Y-72746190D01*
X101647380Y-72841428D01*
X101647380Y-73031904D01*
X101695000Y-73127142D01*
X101742619Y-73174761D01*
X101837857Y-73222380D01*
X102028333Y-73222380D01*
X102123571Y-73174761D01*
X102171190Y-73127142D01*
X102218809Y-73031904D01*
X102218809Y-72841428D01*
X102171190Y-72746190D01*
X102123571Y-72698571D01*
X102028333Y-72650952D01*
D11*
X99325952Y-71346190D02*
X99325952Y-70846190D01*
X99445000Y-70846190D01*
X99516428Y-70870000D01*
X99564047Y-70917619D01*
X99587857Y-70965238D01*
X99611666Y-71060476D01*
X99611666Y-71131904D01*
X99587857Y-71227142D01*
X99564047Y-71274761D01*
X99516428Y-71322380D01*
X99445000Y-71346190D01*
X99325952Y-71346190D01*
X99802142Y-70893809D02*
X99825952Y-70870000D01*
X99873571Y-70846190D01*
X99992619Y-70846190D01*
X100040238Y-70870000D01*
X100064047Y-70893809D01*
X100087857Y-70941428D01*
X100087857Y-70989047D01*
X100064047Y-71060476D01*
X99778333Y-71346190D01*
X100087857Y-71346190D01*
D10*
%TO.C,REF\u002A\u002A*%
X89954266Y-111170980D02*
X89620933Y-110694790D01*
X89382838Y-111170980D02*
X89382838Y-110170980D01*
X89763790Y-110170980D01*
X89859028Y-110218600D01*
X89906647Y-110266219D01*
X89954266Y-110361457D01*
X89954266Y-110504314D01*
X89906647Y-110599552D01*
X89859028Y-110647171D01*
X89763790Y-110694790D01*
X89382838Y-110694790D01*
X90382838Y-110647171D02*
X90716171Y-110647171D01*
X90859028Y-111170980D02*
X90382838Y-111170980D01*
X90382838Y-110170980D01*
X90859028Y-110170980D01*
X91620933Y-110647171D02*
X91287600Y-110647171D01*
X91287600Y-111170980D02*
X91287600Y-110170980D01*
X91763790Y-110170980D01*
X92287600Y-110170980D02*
X92287600Y-110409076D01*
X92049504Y-110313838D02*
X92287600Y-110409076D01*
X92525695Y-110313838D01*
X92144742Y-110599552D02*
X92287600Y-110409076D01*
X92430457Y-110599552D01*
X93049504Y-110170980D02*
X93049504Y-110409076D01*
X92811409Y-110313838D02*
X93049504Y-110409076D01*
X93287600Y-110313838D01*
X92906647Y-110599552D02*
X93049504Y-110409076D01*
X93192361Y-110599552D01*
X172453466Y-43251380D02*
X172120133Y-42775190D01*
X171882038Y-43251380D02*
X171882038Y-42251380D01*
X172262990Y-42251380D01*
X172358228Y-42299000D01*
X172405847Y-42346619D01*
X172453466Y-42441857D01*
X172453466Y-42584714D01*
X172405847Y-42679952D01*
X172358228Y-42727571D01*
X172262990Y-42775190D01*
X171882038Y-42775190D01*
X172882038Y-42727571D02*
X173215371Y-42727571D01*
X173358228Y-43251380D02*
X172882038Y-43251380D01*
X172882038Y-42251380D01*
X173358228Y-42251380D01*
X174120133Y-42727571D02*
X173786800Y-42727571D01*
X173786800Y-43251380D02*
X173786800Y-42251380D01*
X174262990Y-42251380D01*
X174786800Y-42251380D02*
X174786800Y-42489476D01*
X174548704Y-42394238D02*
X174786800Y-42489476D01*
X175024895Y-42394238D01*
X174643942Y-42679952D02*
X174786800Y-42489476D01*
X174929657Y-42679952D01*
X175548704Y-42251380D02*
X175548704Y-42489476D01*
X175310609Y-42394238D02*
X175548704Y-42489476D01*
X175786800Y-42394238D01*
X175405847Y-42679952D02*
X175548704Y-42489476D01*
X175691561Y-42679952D01*
X172529666Y-111043980D02*
X172196333Y-110567790D01*
X171958238Y-111043980D02*
X171958238Y-110043980D01*
X172339190Y-110043980D01*
X172434428Y-110091600D01*
X172482047Y-110139219D01*
X172529666Y-110234457D01*
X172529666Y-110377314D01*
X172482047Y-110472552D01*
X172434428Y-110520171D01*
X172339190Y-110567790D01*
X171958238Y-110567790D01*
X172958238Y-110520171D02*
X173291571Y-110520171D01*
X173434428Y-111043980D02*
X172958238Y-111043980D01*
X172958238Y-110043980D01*
X173434428Y-110043980D01*
X174196333Y-110520171D02*
X173863000Y-110520171D01*
X173863000Y-111043980D02*
X173863000Y-110043980D01*
X174339190Y-110043980D01*
X174863000Y-110043980D02*
X174863000Y-110282076D01*
X174624904Y-110186838D02*
X174863000Y-110282076D01*
X175101095Y-110186838D01*
X174720142Y-110472552D02*
X174863000Y-110282076D01*
X175005857Y-110472552D01*
X175624904Y-110043980D02*
X175624904Y-110282076D01*
X175386809Y-110186838D02*
X175624904Y-110282076D01*
X175863000Y-110186838D01*
X175482047Y-110472552D02*
X175624904Y-110282076D01*
X175767761Y-110472552D01*
%TO.C,J1*%
X103806666Y-105497380D02*
X103806666Y-106211666D01*
X103759047Y-106354523D01*
X103663809Y-106449761D01*
X103520952Y-106497380D01*
X103425714Y-106497380D01*
X104806666Y-106497380D02*
X104235238Y-106497380D01*
X104520952Y-106497380D02*
X104520952Y-105497380D01*
X104425714Y-105640238D01*
X104330476Y-105735476D01*
X104235238Y-105783095D01*
D12*
%TO.C,J8*%
X125730000Y-62230000D02*
X123190000Y-62230000D01*
X125730000Y-57150000D02*
X125730000Y-62230000D01*
X123190000Y-57785000D02*
X123825000Y-57150000D01*
X123825000Y-57150000D02*
X125730000Y-57150000D01*
X123190000Y-62230000D02*
X123190000Y-57785000D01*
%TO.C,J2*%
X96256000Y-46612000D02*
X96256000Y-56512000D01*
X95056000Y-56562000D02*
X102556000Y-56562000D01*
X102556000Y-46562000D02*
X95056000Y-46562000D01*
X95056000Y-46562000D02*
X95056000Y-56562000D01*
X102556000Y-56562000D02*
X102556000Y-46562000D01*
%TO.C,Q1*%
X131240000Y-98712400D02*
X131240000Y-102212400D01*
X131236375Y-102236025D02*
G75*
G03*
X135470000Y-100482400I1753625J1753625D01*
G01*
X135470000Y-100482400D02*
G75*
G03*
X131236375Y-98728775I-2480000J0D01*
G01*
%TO.C,U2*%
X126761000Y-96774000D02*
X126761000Y-99314000D01*
X119141000Y-96774000D02*
X126761000Y-96774000D01*
X119776000Y-99314000D02*
X119141000Y-98679000D01*
X126761000Y-99314000D02*
X119776000Y-99314000D01*
X119141000Y-98679000D02*
X119141000Y-96774000D01*
%TO.C,IO18*%
X170688000Y-87640400D02*
X170688000Y-94625400D01*
X170053000Y-95260400D02*
X168148000Y-95260400D01*
X168148000Y-95260400D02*
X168148000Y-87640400D01*
X170688000Y-94625400D02*
X170053000Y-95260400D01*
X168148000Y-87640400D02*
X170688000Y-87640400D01*
%TO.C,R2*%
X120628000Y-94780000D02*
X124228000Y-94780000D01*
X124228000Y-93180000D02*
X120628000Y-93180000D01*
X118618000Y-93980000D02*
X120628000Y-93980000D01*
X124228000Y-94780000D02*
X124228000Y-93180000D01*
X120628000Y-93180000D02*
X120628000Y-94780000D01*
X126238000Y-93980000D02*
X124228000Y-93980000D01*
%TO.C,U3*%
X116469000Y-64531000D02*
X110119000Y-64531000D01*
X111119000Y-44211000D02*
X116469000Y-44211000D01*
X110119000Y-64531000D02*
X110119000Y-45211000D01*
X110119000Y-45211000D02*
X111119000Y-44211000D01*
X116469000Y-44211000D02*
X116469000Y-64531000D01*
%TO.C,R6*%
X121914900Y-86019800D02*
X119914900Y-86019800D01*
X121914900Y-84769800D02*
X121914900Y-86019800D01*
X119914900Y-84769800D02*
X121914900Y-84769800D01*
X119914900Y-86019800D02*
X119914900Y-84769800D01*
%TO.C,D6*%
X126005600Y-87665000D02*
X124305600Y-87665000D01*
X124005600Y-88865000D02*
X126005600Y-88865000D01*
X126005600Y-88865000D02*
X126005600Y-87665000D01*
X124305600Y-87665000D02*
X124005600Y-87965000D01*
X124005600Y-87965000D02*
X124005600Y-88865000D01*
%TO.C,Q2*%
X107180000Y-69370000D02*
X103680000Y-69370000D01*
X105410000Y-73600000D02*
G75*
G03*
X107163625Y-69366375I0J2480000D01*
G01*
X103656375Y-69366375D02*
G75*
G03*
X105410000Y-73600000I1753625J-1753625D01*
G01*
D13*
%TO.C,U1*%
X137180000Y-98370000D02*
X137180000Y-43970000D01*
X165080000Y-43970000D02*
X165080000Y-98370000D01*
X165080000Y-98370000D02*
X137180000Y-98370000D01*
X137180000Y-43970000D02*
X165080000Y-43970000D01*
D14*
X136670000Y-51220000D02*
G75*
G03*
X136670000Y-51220000I-140000J0D01*
G01*
X136670000Y-51220000D02*
G75*
G03*
X136670000Y-51220000I-140000J0D01*
G01*
D12*
%TO.C,D2*%
X98995000Y-70520000D02*
X98695000Y-70820000D01*
X98695000Y-71720000D02*
X100695000Y-71720000D01*
X100695000Y-70520000D02*
X98995000Y-70520000D01*
X100695000Y-71720000D02*
X100695000Y-70520000D01*
X98695000Y-70820000D02*
X98695000Y-71720000D01*
%TO.C,R4*%
X111490000Y-73015000D02*
X109490000Y-73015000D01*
X109490000Y-73015000D02*
X109490000Y-71765000D01*
X111490000Y-71765000D02*
X111490000Y-73015000D01*
X109490000Y-71765000D02*
X111490000Y-71765000D01*
%TO.C,J7*%
X174879000Y-68326000D02*
X172339000Y-68326000D01*
X172339000Y-68326000D02*
X172339000Y-58801000D01*
X172339000Y-58801000D02*
X172974000Y-58166000D01*
X172974000Y-58166000D02*
X174879000Y-58166000D01*
X174879000Y-58166000D02*
X174879000Y-68326000D01*
%TO.C,D1*%
X126111000Y-108305600D02*
X128651000Y-107035600D01*
X131699000Y-109321600D02*
X132715000Y-109321600D01*
X128651000Y-108305600D02*
X129921000Y-108305600D01*
X122047000Y-107289600D02*
X123063000Y-107289600D01*
X126111000Y-107035600D02*
X126111000Y-109575600D01*
X128651000Y-109575600D02*
X128651000Y-108305600D01*
X124841000Y-108305600D02*
X126111000Y-108305600D01*
X132207000Y-109829600D02*
X132207000Y-108813600D01*
X128651000Y-107035600D02*
X128651000Y-109575600D01*
X126111000Y-108305600D02*
X128651000Y-109575600D01*
X131406000Y-108305600D02*
G75*
G03*
X131406000Y-108305600I-4025000J0D01*
G01*
%TO.C,R8*%
X121878600Y-88890000D02*
X119878600Y-88890000D01*
X119878600Y-88890000D02*
X119878600Y-87640000D01*
X121878600Y-87640000D02*
X121878600Y-88890000D01*
X119878600Y-87640000D02*
X121878600Y-87640000D01*
%TO.C,R7*%
X121914900Y-83149600D02*
X119914900Y-83149600D01*
X119914900Y-81899600D02*
X121914900Y-81899600D01*
X121914900Y-81899600D02*
X121914900Y-83149600D01*
X119914900Y-83149600D02*
X119914900Y-81899600D01*
%TO.C,J3*%
X95056000Y-57738000D02*
X95056000Y-67738000D01*
X95056000Y-67738000D02*
X102556000Y-67738000D01*
X96256000Y-57788000D02*
X96256000Y-67688000D01*
X102556000Y-67738000D02*
X102556000Y-57738000D01*
X102556000Y-57738000D02*
X95056000Y-57738000D01*
%TO.C,D4*%
X126041900Y-85994800D02*
X126041900Y-84794800D01*
X126041900Y-84794800D02*
X124341900Y-84794800D01*
X124041900Y-85094800D02*
X124041900Y-85994800D01*
X124341900Y-84794800D02*
X124041900Y-85094800D01*
X124041900Y-85994800D02*
X126041900Y-85994800D01*
%TO.C,D3*%
X114900000Y-107885000D02*
X114600000Y-107585000D01*
X113700000Y-107585000D02*
X113700000Y-109585000D01*
X113700000Y-109585000D02*
X114900000Y-109585000D01*
X114600000Y-107585000D02*
X113700000Y-107585000D01*
X114900000Y-109585000D02*
X114900000Y-107885000D01*
%TO.C,D5*%
X124041900Y-83124600D02*
X126041900Y-83124600D01*
X124341900Y-81924600D02*
X124041900Y-82224600D01*
X126041900Y-81924600D02*
X124341900Y-81924600D01*
X126041900Y-83124600D02*
X126041900Y-81924600D01*
X124041900Y-82224600D02*
X124041900Y-83124600D01*
D15*
%TO.C,K1*%
X96440000Y-77440000D02*
X111840000Y-77440000D01*
X111840000Y-97040000D02*
X96440000Y-97040000D01*
X96440000Y-97040000D02*
X96440000Y-77440000D01*
X111840000Y-77440000D02*
X111840000Y-97040000D01*
D13*
%TO.C,RV1*%
X132273200Y-53202800D02*
X122743200Y-53202800D01*
X122743200Y-53202800D02*
X122743200Y-43672800D01*
X122743200Y-43672800D02*
X132273200Y-43672800D01*
X132273200Y-43672800D02*
X132273200Y-53202800D01*
D16*
X133108200Y-48422800D02*
G75*
G03*
X133108200Y-48422800I-100000J0D01*
G01*
D12*
%TO.C,R5*%
X111490000Y-70475000D02*
X109490000Y-70475000D01*
X109490000Y-69225000D02*
X111490000Y-69225000D01*
X109490000Y-70475000D02*
X109490000Y-69225000D01*
X111490000Y-69225000D02*
X111490000Y-70475000D01*
%TO.C,J5*%
X118110000Y-69190000D02*
X118745000Y-68555000D01*
X118745000Y-68555000D02*
X130810000Y-68555000D01*
X118110000Y-71095000D02*
X118110000Y-69190000D01*
X130810000Y-68555000D02*
X130810000Y-71095000D01*
X130810000Y-71095000D02*
X118110000Y-71095000D01*
%TO.C,J1*%
X96590000Y-102295000D02*
X111690000Y-102295000D01*
X111690000Y-102295000D02*
X111690000Y-109795000D01*
X111690000Y-109795000D02*
X96590000Y-109795000D01*
X96590000Y-108595000D02*
X111690000Y-108595000D01*
X96590000Y-109795000D02*
X96590000Y-102295000D01*
%TO.C,R3*%
X113675000Y-105775000D02*
X113675000Y-103775000D01*
X114925000Y-103775000D02*
X114925000Y-105775000D01*
X114925000Y-105775000D02*
X113675000Y-105775000D01*
X113675000Y-103775000D02*
X114925000Y-103775000D01*
%TO.C,J6*%
X176580800Y-95250000D02*
X174040800Y-95250000D01*
X174675800Y-87630000D02*
X176580800Y-87630000D01*
X174040800Y-88265000D02*
X174675800Y-87630000D01*
X176580800Y-87630000D02*
X176580800Y-95250000D01*
X174040800Y-95250000D02*
X174040800Y-88265000D01*
%TO.C,J4*%
X118110000Y-73025000D02*
X118745000Y-72390000D01*
X118110000Y-74930000D02*
X118110000Y-73025000D01*
X118745000Y-72390000D02*
X130810000Y-72390000D01*
X130810000Y-74930000D02*
X118110000Y-74930000D01*
X130810000Y-72390000D02*
X130810000Y-74930000D01*
%TO.C,R1*%
X134883400Y-93380400D02*
X134883400Y-94630400D01*
X134883400Y-94630400D02*
X132883400Y-94630400D01*
X132883400Y-94630400D02*
X132883400Y-93380400D01*
X132883400Y-93380400D02*
X134883400Y-93380400D01*
%TD*%
M02*
