%TF.GenerationSoftware,KiCad,Pcbnew,(6.0.4)*%
%TF.CreationDate,2023-05-30T10:31:34-05:00*%
%TF.ProjectId,Modulo de Practicas uPy,4d6f6475-6c6f-4206-9465-205072616374,rev?*%
%TF.SameCoordinates,Original*%
%TF.FileFunction,Other,User*%
%FSLAX46Y46*%
G04 Gerber Fmt 4.6, Leading zero omitted, Abs format (unit mm)*
G04 Created by KiCad (PCBNEW (6.0.4)) date 2023-05-30 10:31:34*
%MOMM*%
%LPD*%
G01*
G04 APERTURE LIST*
%ADD10C,0.050000*%
G04 APERTURE END LIST*
D10*
%TO.C,J8*%
X122660000Y-62770000D02*
X126260000Y-62770000D01*
X122660000Y-56620000D02*
X122660000Y-62770000D01*
X126260000Y-62770000D02*
X126260000Y-56620000D01*
X126260000Y-56620000D02*
X122660000Y-56620000D01*
%TO.C,J2*%
X94806000Y-56812000D02*
X102806000Y-56812000D01*
X102806000Y-46312000D02*
X102806000Y-56812000D01*
X94806000Y-56812000D02*
X94806000Y-46312000D01*
X102806000Y-46312000D02*
X94806000Y-46312000D01*
%TO.C,Q1*%
X130980000Y-103212400D02*
X130980000Y-97752400D01*
X135720000Y-97752400D02*
X130980000Y-97752400D01*
X130980000Y-103212400D02*
X135720000Y-103212400D01*
X135720000Y-97752400D02*
X135720000Y-103212400D01*
%TO.C,U2*%
X127261000Y-96244000D02*
X118611000Y-96244000D01*
X127261000Y-99844000D02*
X127261000Y-96244000D01*
X118611000Y-96244000D02*
X118611000Y-99844000D01*
X118611000Y-99844000D02*
X127261000Y-99844000D01*
%TO.C,IO18*%
X167618000Y-87140400D02*
X167618000Y-95790400D01*
X171218000Y-95790400D02*
X171218000Y-87140400D01*
X171218000Y-87140400D02*
X167618000Y-87140400D01*
X167618000Y-95790400D02*
X171218000Y-95790400D01*
%TO.C,R2*%
X117668000Y-92930000D02*
X117668000Y-95030000D01*
X127188000Y-95030000D02*
X127188000Y-92930000D01*
X127188000Y-92930000D02*
X117668000Y-92930000D01*
X117668000Y-95030000D02*
X127188000Y-95030000D01*
%TO.C,U3*%
X118184000Y-43931000D02*
X108384000Y-43931000D01*
X118184000Y-64781000D02*
X118184000Y-43931000D01*
X108384000Y-43931000D02*
X108384000Y-64781000D01*
X108384000Y-64781000D02*
X118184000Y-64781000D01*
%TO.C,R6*%
X122594900Y-86344800D02*
X119234900Y-86344800D01*
X119234900Y-84444800D02*
X122594900Y-84444800D01*
X122594900Y-84444800D02*
X122594900Y-86344800D01*
X119234900Y-86344800D02*
X119234900Y-84444800D01*
%TO.C,D6*%
X123325600Y-89215000D02*
X123325600Y-87315000D01*
X123325600Y-87315000D02*
X126685600Y-87315000D01*
X126685600Y-87315000D02*
X126685600Y-89215000D01*
X126685600Y-89215000D02*
X123325600Y-89215000D01*
%TO.C,Q2*%
X102680000Y-69110000D02*
X102680000Y-73850000D01*
X108140000Y-73850000D02*
X108140000Y-69110000D01*
X102680000Y-69110000D02*
X108140000Y-69110000D01*
X108140000Y-73850000D02*
X102680000Y-73850000D01*
%TO.C,REF\u002A\u002A*%
X94661400Y-42926000D02*
G75*
G03*
X94661400Y-42926000I-3450000J0D01*
G01*
%TO.C,U1*%
X136930000Y-98620000D02*
X136930000Y-43720000D01*
X165330000Y-43720000D02*
X165330000Y-98620000D01*
X136930000Y-43720000D02*
X165330000Y-43720000D01*
X165330000Y-98620000D02*
X136930000Y-98620000D01*
%TO.C,D2*%
X98015000Y-70170000D02*
X101375000Y-70170000D01*
X101375000Y-72070000D02*
X98015000Y-72070000D01*
X98015000Y-72070000D02*
X98015000Y-70170000D01*
X101375000Y-70170000D02*
X101375000Y-72070000D01*
%TO.C,R4*%
X112170000Y-71440000D02*
X112170000Y-73340000D01*
X108810000Y-71440000D02*
X112170000Y-71440000D01*
X108810000Y-73340000D02*
X108810000Y-71440000D01*
X112170000Y-73340000D02*
X108810000Y-73340000D01*
%TO.C,J7*%
X175409000Y-68836000D02*
X175409000Y-57636000D01*
X171809000Y-68836000D02*
X175409000Y-68836000D01*
X175409000Y-57636000D02*
X171809000Y-57636000D01*
X171809000Y-57636000D02*
X171809000Y-68836000D01*
%TO.C,D1*%
X135931000Y-108755600D02*
X131971000Y-108755600D01*
X135931000Y-105155600D02*
X135931000Y-108755600D01*
X118831000Y-107855600D02*
X118831000Y-111455600D01*
X118831000Y-111455600D02*
X124011000Y-111455600D01*
X130751000Y-105155600D02*
X135931000Y-105155600D01*
X122791000Y-107855600D02*
X118831000Y-107855600D01*
X130750303Y-105156251D02*
G75*
G03*
X122791000Y-107855600I-3369303J-3149349D01*
G01*
X124011697Y-111454949D02*
G75*
G03*
X131971000Y-108755600I3369303J3149349D01*
G01*
%TO.C,R8*%
X119198600Y-89215000D02*
X119198600Y-87315000D01*
X122558600Y-89215000D02*
X119198600Y-89215000D01*
X119198600Y-87315000D02*
X122558600Y-87315000D01*
X122558600Y-87315000D02*
X122558600Y-89215000D01*
%TO.C,R7*%
X122594900Y-83474600D02*
X119234900Y-83474600D01*
X122594900Y-81574600D02*
X122594900Y-83474600D01*
X119234900Y-81574600D02*
X122594900Y-81574600D01*
X119234900Y-83474600D02*
X119234900Y-81574600D01*
%TO.C,J3*%
X94806000Y-67988000D02*
X102806000Y-67988000D01*
X102806000Y-57488000D02*
X94806000Y-57488000D01*
X102806000Y-57488000D02*
X102806000Y-67988000D01*
X94806000Y-67988000D02*
X94806000Y-57488000D01*
%TO.C,REF\u002A\u002A*%
X94737600Y-110718600D02*
G75*
G03*
X94737600Y-110718600I-3450000J0D01*
G01*
%TO.C,D4*%
X126721900Y-86344800D02*
X123361900Y-86344800D01*
X123361900Y-86344800D02*
X123361900Y-84444800D01*
X126721900Y-84444800D02*
X126721900Y-86344800D01*
X123361900Y-84444800D02*
X126721900Y-84444800D01*
%TO.C,REF\u002A\u002A*%
X177236800Y-42799000D02*
G75*
G03*
X177236800Y-42799000I-3450000J0D01*
G01*
%TO.C,D3*%
X115250000Y-110265000D02*
X113350000Y-110265000D01*
X113350000Y-106905000D02*
X115250000Y-106905000D01*
X115250000Y-106905000D02*
X115250000Y-110265000D01*
X113350000Y-110265000D02*
X113350000Y-106905000D01*
%TO.C,D5*%
X126721900Y-81574600D02*
X126721900Y-83474600D01*
X123361900Y-81574600D02*
X126721900Y-81574600D01*
X126721900Y-83474600D02*
X123361900Y-83474600D01*
X123361900Y-83474600D02*
X123361900Y-81574600D01*
%TO.C,K1*%
X112090000Y-97290000D02*
X112090000Y-77190000D01*
X112090000Y-97290000D02*
X96190000Y-97290000D01*
X96190000Y-77190000D02*
X112090000Y-77190000D01*
X96190000Y-77190000D02*
X96190000Y-97290000D01*
%TO.C,REF\u002A\u002A*%
X177313000Y-110591600D02*
G75*
G03*
X177313000Y-110591600I-3450000J0D01*
G01*
%TO.C,RV1*%
X132523200Y-43422800D02*
X132523200Y-53452800D01*
X132523200Y-53452800D02*
X122493200Y-53452800D01*
X122493200Y-43422800D02*
X132523200Y-43422800D01*
X122493200Y-53452800D02*
X122493200Y-43422800D01*
%TO.C,R5*%
X108810000Y-68900000D02*
X112170000Y-68900000D01*
X108810000Y-70800000D02*
X108810000Y-68900000D01*
X112170000Y-70800000D02*
X108810000Y-70800000D01*
X112170000Y-68900000D02*
X112170000Y-70800000D01*
%TO.C,J5*%
X117580000Y-68075000D02*
X131280000Y-68075000D01*
X131280000Y-71625000D02*
X117580000Y-71625000D01*
X131280000Y-68075000D02*
X131280000Y-71625000D01*
X117580000Y-71625000D02*
X117580000Y-68075000D01*
%TO.C,J1*%
X96340000Y-102045000D02*
X111940000Y-102045000D01*
X111940000Y-110045000D02*
X111940000Y-102045000D01*
X96340000Y-102045000D02*
X96340000Y-110045000D01*
X111940000Y-110045000D02*
X96340000Y-110045000D01*
%TO.C,R3*%
X115250000Y-106455000D02*
X113350000Y-106455000D01*
X115250000Y-103095000D02*
X115250000Y-106455000D01*
X113350000Y-103095000D02*
X115250000Y-103095000D01*
X113350000Y-106455000D02*
X113350000Y-103095000D01*
%TO.C,J6*%
X177110800Y-87100000D02*
X173510800Y-87100000D01*
X173510800Y-95750000D02*
X177110800Y-95750000D01*
X173510800Y-87100000D02*
X173510800Y-95750000D01*
X177110800Y-95750000D02*
X177110800Y-87100000D01*
%TO.C,J4*%
X131280000Y-75460000D02*
X117580000Y-75460000D01*
X117580000Y-71910000D02*
X131280000Y-71910000D01*
X131280000Y-71910000D02*
X131280000Y-75460000D01*
X117580000Y-75460000D02*
X117580000Y-71910000D01*
%TO.C,R1*%
X135563400Y-94955400D02*
X132203400Y-94955400D01*
X135563400Y-93055400D02*
X135563400Y-94955400D01*
X132203400Y-93055400D02*
X135563400Y-93055400D01*
X132203400Y-94955400D02*
X132203400Y-93055400D01*
%TD*%
M02*
