%TF.GenerationSoftware,KiCad,Pcbnew,(6.0.4)*%
%TF.CreationDate,2023-05-30T10:31:34-05:00*%
%TF.ProjectId,Modulo de Practicas uPy,4d6f6475-6c6f-4206-9465-205072616374,rev?*%
%TF.SameCoordinates,Original*%
%TF.FileFunction,Soldermask,Bot*%
%TF.FilePolarity,Negative*%
%FSLAX46Y46*%
G04 Gerber Fmt 4.6, Leading zero omitted, Abs format (unit mm)*
G04 Created by KiCad (PCBNEW (6.0.4)) date 2023-05-30 10:31:34*
%MOMM*%
%LPD*%
G01*
G04 APERTURE LIST*
%ADD10R,1.700000X1.700000*%
%ADD11O,1.700000X1.700000*%
%ADD12R,3.000000X3.000000*%
%ADD13C,3.000000*%
%ADD14R,1.500000X1.050000*%
%ADD15O,1.500000X1.050000*%
%ADD16C,1.400000*%
%ADD17O,1.400000X1.400000*%
%ADD18R,1.600000X1.600000*%
%ADD19O,1.600000X1.600000*%
%ADD20R,1.050000X1.500000*%
%ADD21O,1.050000X1.500000*%
%ADD22C,0.800000*%
%ADD23C,6.400000*%
%ADD24R,1.560000X1.560000*%
%ADD25C,1.560000*%
%ADD26C,2.500000*%
%ADD27R,1.268000X1.268000*%
%ADD28C,1.268000*%
G04 APERTURE END LIST*
D10*
%TO.C,J8*%
X124460000Y-58420000D03*
D11*
X124460000Y-60960000D03*
%TD*%
D12*
%TO.C,J2*%
X98806000Y-49022000D03*
D13*
X98806000Y-54102000D03*
%TD*%
D14*
%TO.C,Q1*%
X132990000Y-99212400D03*
D15*
X132990000Y-100482400D03*
X132990000Y-101752400D03*
%TD*%
D10*
%TO.C,U2*%
X120411000Y-98044000D03*
D11*
X122951000Y-98044000D03*
X125491000Y-98044000D03*
%TD*%
D10*
%TO.C,IO18*%
X169418000Y-93990400D03*
D11*
X169418000Y-91450400D03*
X169418000Y-88910400D03*
%TD*%
D16*
%TO.C,R2*%
X118618000Y-93980000D03*
D17*
X126238000Y-93980000D03*
%TD*%
D18*
%TO.C,U3*%
X109484000Y-45481000D03*
D19*
X109484000Y-48021000D03*
X109484000Y-50561000D03*
X109484000Y-53101000D03*
X109484000Y-55641000D03*
X109484000Y-58181000D03*
X109484000Y-60721000D03*
X109484000Y-63261000D03*
X117104000Y-63261000D03*
X117104000Y-60721000D03*
X117104000Y-58181000D03*
X117104000Y-55641000D03*
X117104000Y-53101000D03*
X117104000Y-50561000D03*
X117104000Y-48021000D03*
X117104000Y-45481000D03*
%TD*%
D20*
%TO.C,Q2*%
X106680000Y-71120000D03*
D21*
X105410000Y-71120000D03*
X104140000Y-71120000D03*
%TD*%
D22*
%TO.C,REF\u002A\u002A*%
X89514344Y-41228944D03*
X89514344Y-44623056D03*
X93611400Y-42926000D03*
X92908456Y-41228944D03*
X91211400Y-45326000D03*
X91211400Y-40526000D03*
X92908456Y-44623056D03*
D23*
X91211400Y-42926000D03*
D22*
X88811400Y-42926000D03*
%TD*%
D24*
%TO.C,U1*%
X138430000Y-51360000D03*
D25*
X138430000Y-53900000D03*
X138430000Y-56440000D03*
X138430000Y-58980000D03*
X138430000Y-61520000D03*
X138430000Y-64060000D03*
X138430000Y-66600000D03*
X138430000Y-69140000D03*
X138430000Y-71680000D03*
X138430000Y-74220000D03*
X138430000Y-76760000D03*
X138430000Y-79300000D03*
X138430000Y-81840000D03*
X138430000Y-84380000D03*
X138430000Y-86920000D03*
X138430000Y-89460000D03*
X138430000Y-92000000D03*
X138430000Y-94540000D03*
X138430000Y-97080000D03*
X163830000Y-51360000D03*
X163830000Y-53900000D03*
X163830000Y-56440000D03*
X163830000Y-58980000D03*
X163830000Y-61520000D03*
X163830000Y-64060000D03*
X163830000Y-66600000D03*
X163830000Y-69140000D03*
X163830000Y-71680000D03*
X163830000Y-74220000D03*
X163830000Y-76760000D03*
X163830000Y-79300000D03*
X163830000Y-81840000D03*
X163830000Y-84380000D03*
X163830000Y-86920000D03*
X163830000Y-89460000D03*
X163830000Y-92000000D03*
X163830000Y-94540000D03*
X163830000Y-97080000D03*
%TD*%
D10*
%TO.C,J7*%
X173609000Y-59436000D03*
D11*
X173609000Y-61976000D03*
X173609000Y-64516000D03*
X173609000Y-67056000D03*
%TD*%
D12*
%TO.C,J3*%
X98806000Y-60198000D03*
D13*
X98806000Y-65278000D03*
%TD*%
D22*
%TO.C,REF\u002A\u002A*%
X89590544Y-112415656D03*
X93687600Y-110718600D03*
X89590544Y-109021544D03*
X92984656Y-109021544D03*
X92984656Y-112415656D03*
X88887600Y-110718600D03*
X91287600Y-113118600D03*
X91287600Y-108318600D03*
D23*
X91287600Y-110718600D03*
%TD*%
D22*
%TO.C,REF\u002A\u002A*%
X176186800Y-42799000D03*
X172089744Y-41101944D03*
D23*
X173786800Y-42799000D03*
D22*
X175483856Y-44496056D03*
X173786800Y-40399000D03*
X175483856Y-41101944D03*
X171386800Y-42799000D03*
X173786800Y-45199000D03*
X172089744Y-44496056D03*
%TD*%
D13*
%TO.C,K1*%
X104140000Y-78740000D03*
D26*
X98090000Y-80690000D03*
D13*
X98090000Y-92890000D03*
X110140000Y-92940000D03*
D26*
X110090000Y-80690000D03*
%TD*%
D22*
%TO.C,REF\u002A\u002A*%
X173863000Y-108191600D03*
X176263000Y-110591600D03*
X175560056Y-112288656D03*
X172165944Y-112288656D03*
D23*
X173863000Y-110591600D03*
D22*
X173863000Y-112991600D03*
X175560056Y-108894544D03*
X171463000Y-110591600D03*
X172165944Y-108894544D03*
%TD*%
D27*
%TO.C,RV1*%
X130048200Y-48422800D03*
D28*
X127508200Y-48422800D03*
X124968200Y-48422800D03*
%TD*%
D10*
%TO.C,J5*%
X119380000Y-69825000D03*
D11*
X121920000Y-69825000D03*
X124460000Y-69825000D03*
X127000000Y-69825000D03*
X129540000Y-69825000D03*
%TD*%
D12*
%TO.C,J1*%
X99060000Y-106045000D03*
D13*
X104140000Y-106045000D03*
X109220000Y-106045000D03*
%TD*%
D10*
%TO.C,J6*%
X175310800Y-88900000D03*
D11*
X175310800Y-91440000D03*
X175310800Y-93980000D03*
%TD*%
D10*
%TO.C,J4*%
X119380000Y-73660000D03*
D11*
X121920000Y-73660000D03*
X124460000Y-73660000D03*
X127000000Y-73660000D03*
X129540000Y-73660000D03*
%TD*%
M02*
